<svg xmlns="http://www.w3.org/2000/svg" xmlns:xlink="http://www.w3.org/1999/xlink" width="500" zoomAndPan="magnify" viewBox="0 0 375 374.999991" height="500" preserveAspectRatio="xMidYMid meet" version="1.0"><defs><g/></defs><g fill="#ff5757" fill-opacity="1"><g transform="translate(33.843752, 204.396287)"><g><path d="M 17.421875 -30.09375 C 12.921875 -30.09375 10.671875 -25.753906 10.671875 -17.078125 L 10.671875 -13.625 C 10.671875 -9.507812 11.265625 -6.28125 12.453125 -3.9375 C 13.640625 -1.601562 15.394531 -0.4375 17.71875 -0.4375 C 20.914062 -0.4375 23.847656 -3.539062 26.515625 -9.75 L 27.296875 -9.75 L 27 -0.046875 L 26.515625 -0.046875 C 26.347656 -0.359375 26.191406 -0.582031 26.046875 -0.71875 C 25.898438 -0.851562 25.6875 -0.921875 25.40625 -0.921875 C 25.132812 -0.921875 24.082031 -0.691406 22.25 -0.234375 C 20.425781 0.210938 18.566406 0.4375 16.671875 0.4375 C 11.941406 0.4375 8.273438 -0.835938 5.671875 -3.390625 C 3.078125 -5.953125 1.78125 -9.789062 1.78125 -14.90625 C 1.78125 -20.03125 3.132812 -23.988281 5.84375 -26.78125 C 8.5625 -29.570312 12.21875 -30.96875 16.8125 -30.96875 C 18.582031 -30.96875 20.316406 -30.738281 22.015625 -30.28125 C 23.710938 -29.832031 24.707031 -29.609375 25 -29.609375 C 25.289062 -29.609375 25.503906 -29.671875 25.640625 -29.796875 C 25.785156 -29.929688 25.945312 -30.160156 26.125 -30.484375 L 26.609375 -30.484375 L 26.953125 -21.03125 L 26.171875 -21.03125 C 24.867188 -23.96875 23.523438 -26.210938 22.140625 -27.765625 C 20.765625 -29.316406 19.191406 -30.09375 17.421875 -30.09375 Z M 17.421875 -30.09375 "/></g></g></g><g fill="#000000" fill-opacity="1"><g transform="translate(63.902344, 204.396287)"><g><path d="M 25.90625 0 L 15.984375 0 L 15.5 -3.171875 C 15.039062 -2.015625 14.351562 -1.125 13.4375 -0.5 C 12.519531 0.125 11.160156 0.4375 9.359375 0.4375 C 4.859375 0.4375 2.609375 -1.988281 2.609375 -6.84375 L 2.609375 -19.9375 L 0.171875 -19.9375 L 0.171875 -20.734375 L 10.71875 -20.734375 L 10.71875 -5.796875 C 10.71875 -4.046875 10.835938 -2.894531 11.078125 -2.34375 C 11.328125 -1.800781 11.820312 -1.53125 12.5625 -1.53125 C 13.300781 -1.53125 13.960938 -1.976562 14.546875 -2.875 C 15.128906 -3.769531 15.421875 -5.019531 15.421875 -6.625 L 15.421875 -19.9375 L 13.40625 -19.9375 L 13.40625 -20.734375 L 23.515625 -20.734375 L 23.515625 -0.78125 L 25.90625 -0.78125 Z M 25.90625 0 "/></g></g></g><g fill="#000000" fill-opacity="1"><g transform="translate(90.248221, 204.396287)"><g><path d="M 0.265625 -32.65625 L 10.9375 -32.65625 L 10.9375 -0.78125 L 13.375 -0.78125 L 13.375 0 L 0.4375 0 L 0.4375 -0.78125 L 2.828125 -0.78125 L 2.828125 -31.875 L 0.265625 -31.875 Z M 0.265625 -32.65625 "/></g></g></g><g fill="#000000" fill-opacity="1"><g transform="translate(104.009042, 204.396287)"><g><path d="M 6.828125 -23.734375 C 5.296875 -23.734375 4.203125 -24.125 3.546875 -24.90625 C 2.890625 -25.6875 2.5625 -26.65625 2.5625 -27.8125 C 2.5625 -28.976562 2.914062 -29.9375 3.625 -30.6875 C 4.34375 -31.445312 5.425781 -31.828125 6.875 -31.828125 C 8.332031 -31.828125 9.4375 -31.484375 10.1875 -30.796875 C 10.945312 -30.117188 11.328125 -29.148438 11.328125 -27.890625 C 11.328125 -26.628906 10.960938 -25.617188 10.234375 -24.859375 C 9.503906 -24.109375 8.367188 -23.734375 6.828125 -23.734375 Z M 0.265625 -20.734375 L 10.9375 -20.734375 L 10.9375 -0.78125 L 13.375 -0.78125 L 13.375 0 L 0.4375 0 L 0.4375 -0.78125 L 2.828125 -0.78125 L 2.828125 -19.9375 L 0.265625 -19.9375 Z M 0.265625 -20.734375 "/></g></g></g><g fill="#000000" fill-opacity="1"><g transform="translate(117.813409, 204.396287)"><g><path d="M 0.515625 -20.734375 L 11.015625 -20.734375 L 11.015625 -16.71875 C 11.484375 -18.050781 12.195312 -19.125 13.15625 -19.9375 C 14.113281 -20.75 15.5625 -21.15625 17.5 -21.15625 C 22 -21.15625 24.25 -18.734375 24.25 -13.890625 L 24.25 -0.78125 L 26.6875 -0.78125 L 26.6875 0 L 14.375 0 L 14.375 -0.78125 L 16.15625 -0.78125 L 16.15625 -14.9375 C 16.15625 -16.675781 16.035156 -17.800781 15.796875 -18.3125 C 15.566406 -18.820312 15.148438 -19.078125 14.546875 -19.078125 C 13.617188 -19.078125 12.796875 -18.46875 12.078125 -17.25 C 11.367188 -16.03125 11.015625 -14.546875 11.015625 -12.796875 L 11.015625 -0.78125 L 12.890625 -0.78125 L 12.890625 0 L 0.515625 0 L 0.515625 -0.78125 L 2.921875 -0.78125 L 2.921875 -19.9375 L 0.515625 -19.9375 Z M 0.515625 -20.734375 "/></g></g></g><g fill="#000000" fill-opacity="1"><g transform="translate(144.638313, 204.396287)"><g><path d="M 10.890625 -10.234375 L 12.15625 -10.234375 L 12.15625 -13.59375 C 12.15625 -16.34375 12 -18.1875 11.6875 -19.125 C 11.382812 -20.070312 10.796875 -20.546875 9.921875 -20.546875 C 9.398438 -20.546875 8.925781 -20.410156 8.5 -20.140625 C 8.082031 -19.867188 7.875 -19.492188 7.875 -19.015625 C 7.875 -18.535156 7.960938 -18.046875 8.140625 -17.546875 L 9.234375 -17.546875 C 9.460938 -16.941406 9.578125 -16.207031 9.578125 -15.34375 C 9.578125 -14.488281 9.210938 -13.75 8.484375 -13.125 C 7.765625 -12.5 6.851562 -12.1875 5.75 -12.1875 C 3.25 -12.1875 2 -13.394531 2 -15.8125 C 2 -19.375 5.035156 -21.15625 11.109375 -21.15625 C 14.554688 -21.15625 16.941406 -20.566406 18.265625 -19.390625 C 19.585938 -18.222656 20.25 -16.070312 20.25 -12.9375 L 20.25 -4.09375 C 20.25 -2.582031 20.671875 -1.828125 21.515625 -1.828125 C 22.503906 -1.828125 23.082031 -3.320312 23.25 -6.3125 L 23.90625 -6.265625 C 23.789062 -3.710938 23.3125 -1.957031 22.46875 -1 C 21.625 -0.0390625 20.242188 0.4375 18.328125 0.4375 C 14.847656 0.4375 12.847656 -0.632812 12.328125 -2.78125 C 11.941406 -1.675781 11.375 -0.863281 10.625 -0.34375 C 9.875 0.175781 8.769531 0.4375 7.3125 0.4375 C 3.019531 0.4375 0.875 -1.316406 0.875 -4.828125 C 0.875 -6.890625 1.691406 -8.304688 3.328125 -9.078125 C 4.972656 -9.847656 7.492188 -10.234375 10.890625 -10.234375 Z M 9.140625 -4.875 C 9.140625 -3.363281 9.21875 -2.390625 9.375 -1.953125 C 9.539062 -1.523438 9.847656 -1.3125 10.296875 -1.3125 C 10.742188 -1.3125 11.164062 -1.679688 11.5625 -2.421875 C 11.957031 -3.160156 12.15625 -4.179688 12.15625 -5.484375 L 12.15625 -9.53125 L 11.84375 -9.53125 C 10.039062 -9.53125 9.140625 -8.210938 9.140625 -5.578125 Z M 9.140625 -4.875 "/></g></g></g><g fill="#000000" fill-opacity="1"><g transform="translate(168.545568, 204.396287)"><g><path d="M 14.984375 -19.515625 C 13.910156 -19.515625 12.96875 -18.816406 12.15625 -17.421875 C 11.34375 -16.023438 10.9375 -14.367188 10.9375 -12.453125 L 10.9375 -0.78125 L 14.015625 -0.78125 L 14.015625 0 L 0.4375 0 L 0.4375 -0.78125 L 2.828125 -0.78125 L 2.828125 -19.9375 L 0.4375 -19.9375 L 0.4375 -20.734375 L 10.9375 -20.734375 L 10.9375 -16.546875 C 11.3125 -18.023438 12.035156 -19.160156 13.109375 -19.953125 C 14.179688 -20.753906 15.398438 -21.15625 16.765625 -21.15625 C 18.128906 -21.15625 19.238281 -20.769531 20.09375 -20 C 20.945312 -19.238281 21.375 -18.148438 21.375 -16.734375 C 21.375 -15.328125 21.054688 -14.25 20.421875 -13.5 C 19.785156 -12.75 18.804688 -12.375 17.484375 -12.375 C 16.160156 -12.375 15.1875 -12.804688 14.5625 -13.671875 C 13.9375 -14.546875 13.859375 -15.75 14.328125 -17.28125 L 15.890625 -17.28125 C 16.617188 -18.769531 16.316406 -19.515625 14.984375 -19.515625 Z M 14.984375 -19.515625 "/></g></g></g><g fill="#000000" fill-opacity="1"><g transform="translate(190.101292, 204.396287)"><g><path d="M 0.21875 -19.9375 L 0.21875 -20.734375 L 12.84375 -20.734375 L 12.84375 -19.9375 L 10.5 -19.9375 L 15.234375 -5.484375 L 20.296875 -19.9375 L 17.375 -19.9375 L 17.375 -20.734375 L 23.515625 -20.734375 L 23.515625 -19.9375 L 21.34375 -19.9375 L 13.1875 3.53125 C 12.226562 6.257812 11.15625 8.164062 9.96875 9.25 C 8.78125 10.34375 7.328125 10.890625 5.609375 10.890625 C 3.898438 10.890625 2.550781 10.492188 1.5625 9.703125 C 0.582031 8.921875 0.09375 7.921875 0.09375 6.703125 C 0.09375 5.484375 0.410156 4.554688 1.046875 3.921875 C 1.679688 3.285156 2.523438 2.96875 3.578125 2.96875 C 5.984375 2.96875 7.1875 3.96875 7.1875 5.96875 C 7.1875 6.40625 7.097656 6.925781 6.921875 7.53125 L 5.40625 7.53125 C 5.164062 8.195312 5.132812 8.75 5.3125 9.1875 C 5.488281 9.625 5.878906 9.84375 6.484375 9.84375 C 7.679688 9.84375 8.742188 9.253906 9.671875 8.078125 C 10.597656 6.898438 11.484375 5.109375 12.328125 2.703125 L 13.28125 0 L 9.453125 0 L 2 -19.9375 Z M 0.21875 -19.9375 "/></g></g></g><g fill="#000000" fill-opacity="1"><g transform="translate(213.268252, 204.396287)"><g/></g></g><g fill="#ff5757" fill-opacity="1"><g transform="translate(221.109365, 204.396287)"><g><path d="M 17.421875 -30.09375 C 12.921875 -30.09375 10.671875 -25.753906 10.671875 -17.078125 L 10.671875 -13.625 C 10.671875 -9.507812 11.265625 -6.28125 12.453125 -3.9375 C 13.640625 -1.601562 15.394531 -0.4375 17.71875 -0.4375 C 20.914062 -0.4375 23.847656 -3.539062 26.515625 -9.75 L 27.296875 -9.75 L 27 -0.046875 L 26.515625 -0.046875 C 26.347656 -0.359375 26.191406 -0.582031 26.046875 -0.71875 C 25.898438 -0.851562 25.6875 -0.921875 25.40625 -0.921875 C 25.132812 -0.921875 24.082031 -0.691406 22.25 -0.234375 C 20.425781 0.210938 18.566406 0.4375 16.671875 0.4375 C 11.941406 0.4375 8.273438 -0.835938 5.671875 -3.390625 C 3.078125 -5.953125 1.78125 -9.789062 1.78125 -14.90625 C 1.78125 -20.03125 3.132812 -23.988281 5.84375 -26.78125 C 8.5625 -29.570312 12.21875 -30.96875 16.8125 -30.96875 C 18.582031 -30.96875 20.316406 -30.738281 22.015625 -30.28125 C 23.710938 -29.832031 24.707031 -29.609375 25 -29.609375 C 25.289062 -29.609375 25.503906 -29.671875 25.640625 -29.796875 C 25.785156 -29.929688 25.945312 -30.160156 26.125 -30.484375 L 26.609375 -30.484375 L 26.953125 -21.03125 L 26.171875 -21.03125 C 24.867188 -23.96875 23.523438 -26.210938 22.140625 -27.765625 C 20.765625 -29.316406 19.191406 -30.09375 17.421875 -30.09375 Z M 17.421875 -30.09375 "/></g></g></g><g fill="#000000" fill-opacity="1"><g transform="translate(251.167961, 204.396287)"><g><path d="M 10.890625 -10.234375 L 12.15625 -10.234375 L 12.15625 -13.59375 C 12.15625 -16.34375 12 -18.1875 11.6875 -19.125 C 11.382812 -20.070312 10.796875 -20.546875 9.921875 -20.546875 C 9.398438 -20.546875 8.925781 -20.410156 8.5 -20.140625 C 8.082031 -19.867188 7.875 -19.492188 7.875 -19.015625 C 7.875 -18.535156 7.960938 -18.046875 8.140625 -17.546875 L 9.234375 -17.546875 C 9.460938 -16.941406 9.578125 -16.207031 9.578125 -15.34375 C 9.578125 -14.488281 9.210938 -13.75 8.484375 -13.125 C 7.765625 -12.5 6.851562 -12.1875 5.75 -12.1875 C 3.25 -12.1875 2 -13.394531 2 -15.8125 C 2 -19.375 5.035156 -21.15625 11.109375 -21.15625 C 14.554688 -21.15625 16.941406 -20.566406 18.265625 -19.390625 C 19.585938 -18.222656 20.25 -16.070312 20.25 -12.9375 L 20.25 -4.09375 C 20.25 -2.582031 20.671875 -1.828125 21.515625 -1.828125 C 22.503906 -1.828125 23.082031 -3.320312 23.25 -6.3125 L 23.90625 -6.265625 C 23.789062 -3.710938 23.3125 -1.957031 22.46875 -1 C 21.625 -0.0390625 20.242188 0.4375 18.328125 0.4375 C 14.847656 0.4375 12.847656 -0.632812 12.328125 -2.78125 C 11.941406 -1.675781 11.375 -0.863281 10.625 -0.34375 C 9.875 0.175781 8.769531 0.4375 7.3125 0.4375 C 3.019531 0.4375 0.875 -1.316406 0.875 -4.828125 C 0.875 -6.890625 1.691406 -8.304688 3.328125 -9.078125 C 4.972656 -9.847656 7.492188 -10.234375 10.890625 -10.234375 Z M 9.140625 -4.875 C 9.140625 -3.363281 9.21875 -2.390625 9.375 -1.953125 C 9.539062 -1.523438 9.847656 -1.3125 10.296875 -1.3125 C 10.742188 -1.3125 11.164062 -1.679688 11.5625 -2.421875 C 11.957031 -3.160156 12.15625 -4.179688 12.15625 -5.484375 L 12.15625 -9.53125 L 11.84375 -9.53125 C 10.039062 -9.53125 9.140625 -8.210938 9.140625 -5.578125 Z M 9.140625 -4.875 "/></g></g></g><g fill="#000000" fill-opacity="1"><g transform="translate(275.075216, 204.396287)"><g><path d="M 14.984375 -19.515625 C 13.910156 -19.515625 12.96875 -18.816406 12.15625 -17.421875 C 11.34375 -16.023438 10.9375 -14.367188 10.9375 -12.453125 L 10.9375 -0.78125 L 14.015625 -0.78125 L 14.015625 0 L 0.4375 0 L 0.4375 -0.78125 L 2.828125 -0.78125 L 2.828125 -19.9375 L 0.4375 -19.9375 L 0.4375 -20.734375 L 10.9375 -20.734375 L 10.9375 -16.546875 C 11.3125 -18.023438 12.035156 -19.160156 13.109375 -19.953125 C 14.179688 -20.753906 15.398438 -21.15625 16.765625 -21.15625 C 18.128906 -21.15625 19.238281 -20.769531 20.09375 -20 C 20.945312 -19.238281 21.375 -18.148438 21.375 -16.734375 C 21.375 -15.328125 21.054688 -14.25 20.421875 -13.5 C 19.785156 -12.75 18.804688 -12.375 17.484375 -12.375 C 16.160156 -12.375 15.1875 -12.804688 14.5625 -13.671875 C 13.9375 -14.546875 13.859375 -15.75 14.328125 -17.28125 L 15.890625 -17.28125 C 16.617188 -18.769531 16.316406 -19.515625 14.984375 -19.515625 Z M 14.984375 -19.515625 "/></g></g></g><g fill="#000000" fill-opacity="1"><g transform="translate(296.63094, 204.396287)"><g><path d="M 9.28125 -9.015625 C 9.28125 -5.960938 9.4375 -3.9375 9.75 -2.9375 C 10.070312 -1.9375 10.660156 -1.4375 11.515625 -1.4375 C 12.367188 -1.4375 13.109375 -1.8125 13.734375 -2.5625 C 14.359375 -3.320312 14.671875 -4.441406 14.671875 -5.921875 L 14.671875 -15.421875 C 14.671875 -16.660156 14.421875 -17.71875 13.921875 -18.59375 C 13.429688 -19.46875 12.707031 -19.90625 11.75 -19.90625 C 10.800781 -19.90625 10.148438 -19.265625 9.796875 -17.984375 C 9.453125 -16.703125 9.28125 -14.46875 9.28125 -11.28125 Z M 15.234375 0 L 14.765625 -3.046875 C 13.773438 -0.722656 11.769531 0.4375 8.75 0.4375 C 6.257812 0.4375 4.320312 -0.460938 2.9375 -2.265625 C 1.5625 -4.066406 0.875 -6.753906 0.875 -10.328125 C 0.875 -17.546875 3.75 -21.15625 9.5 -21.15625 C 12.050781 -21.15625 13.734375 -20.445312 14.546875 -19.03125 L 14.546875 -31.875 L 11.890625 -31.875 L 11.890625 -32.65625 L 22.78125 -32.65625 L 22.78125 -0.78125 L 24.90625 -0.78125 L 24.90625 0 Z M 15.234375 0 "/></g></g></g><g fill="#000000" fill-opacity="1"><g transform="translate(322.236522, 204.396287)"><g><path d="M 1.4375 0.4375 L 1.4375 -7.359375 L 1.953125 -7.359375 C 2.710938 -4.835938 3.726562 -3.066406 5 -2.046875 C 6.28125 -1.023438 7.878906 -0.515625 9.796875 -0.515625 C 12.753906 -0.515625 14.234375 -1.460938 14.234375 -3.359375 C 14.234375 -4.171875 13.875 -4.78125 13.15625 -5.1875 C 12.019531 -5.820312 10.566406 -6.3125 8.796875 -6.65625 C 6.816406 -7.1875 5.160156 -7.882812 3.828125 -8.75 C 2.234375 -9.800781 1.4375 -11.457031 1.4375 -13.71875 C 1.4375 -15.976562 2.132812 -17.78125 3.53125 -19.125 C 4.925781 -20.476562 6.78125 -21.15625 9.09375 -21.15625 C 10.519531 -21.15625 11.988281 -20.820312 13.5 -20.15625 C 14.050781 -19.925781 14.472656 -19.8125 14.765625 -19.8125 C 15.054688 -19.8125 15.300781 -19.910156 15.5 -20.109375 C 15.707031 -20.316406 15.957031 -20.695312 16.25 -21.25 L 16.71875 -21.25 L 16.71875 -14.59375 L 16.203125 -14.59375 C 14.722656 -18.363281 12.425781 -20.25 9.3125 -20.25 C 7.945312 -20.25 6.929688 -20.007812 6.265625 -19.53125 C 5.597656 -19.050781 5.265625 -18.445312 5.265625 -17.71875 C 5.265625 -17.289062 5.363281 -16.953125 5.5625 -16.703125 C 5.769531 -16.453125 5.929688 -16.269531 6.046875 -16.15625 C 6.171875 -16.039062 6.363281 -15.914062 6.625 -15.78125 C 6.882812 -15.65625 7.097656 -15.554688 7.265625 -15.484375 C 7.441406 -15.410156 7.710938 -15.316406 8.078125 -15.203125 C 8.441406 -15.085938 8.710938 -15.015625 8.890625 -14.984375 C 10.859375 -14.484375 12.273438 -14.050781 13.140625 -13.6875 C 14.015625 -13.332031 14.847656 -12.894531 15.640625 -12.375 C 17.234375 -11.269531 18.03125 -9.488281 18.03125 -7.03125 C 18.03125 -4.582031 17.300781 -2.722656 15.84375 -1.453125 C 14.394531 -0.191406 12.410156 0.4375 9.890625 0.4375 C 8.085938 0.4375 6.34375 0.015625 4.65625 -0.828125 C 4.3125 -1.054688 4.035156 -1.171875 3.828125 -1.171875 C 3.191406 -1.171875 2.566406 -0.632812 1.953125 0.4375 Z M 1.4375 0.4375 "/></g></g></g></svg>