<svg xmlns="http://www.w3.org/2000/svg" xmlns:xlink="http://www.w3.org/1999/xlink" width="500" zoomAndPan="magnify" viewBox="0 0 375 374.999991" height="500" preserveAspectRatio="xMidYMid meet" version="1.0"><defs><g/></defs><g fill="#00bf63" fill-opacity="1"><g transform="translate(29.030461, 199.158031)"><g><path d="M 7.234375 -17.9375 L 0.125 -17.9375 L 0.125 -23.125 L 20.84375 -23.125 L 20.84375 -17.9375 L 13.78125 -17.9375 L 13.78125 0 L 7.234375 0 Z M 7.234375 -17.9375 "/></g></g></g><g fill="#00bf63" fill-opacity="1"><g transform="translate(49.997707, 199.158031)"><g><path d="M 13.671875 -18.203125 C 15.898438 -18.203125 17.691406 -17.539062 19.046875 -16.21875 C 20.398438 -14.894531 21.078125 -12.898438 21.078125 -10.234375 L 21.078125 0 L 14.796875 0 L 14.796875 -9.21875 C 14.796875 -11.65625 13.816406 -12.875 11.859375 -12.875 C 10.773438 -12.875 9.910156 -12.519531 9.265625 -11.8125 C 8.617188 -11.113281 8.296875 -10.0625 8.296875 -8.65625 L 8.296875 0 L 2.015625 0 L 2.015625 -24.515625 L 8.296875 -24.515625 L 8.296875 -16.25 C 8.972656 -16.882812 9.773438 -17.367188 10.703125 -17.703125 C 11.628906 -18.035156 12.617188 -18.203125 13.671875 -18.203125 Z M 13.671875 -18.203125 "/></g></g></g><g fill="#00bf63" fill-opacity="1"><g transform="translate(72.979134, 199.158031)"><g><path d="M 20.3125 -8.921875 C 20.3125 -8.878906 20.28125 -8.359375 20.21875 -7.359375 L 7.203125 -7.359375 C 7.460938 -6.441406 7.972656 -5.734375 8.734375 -5.234375 C 9.492188 -4.742188 10.445312 -4.5 11.59375 -4.5 C 12.445312 -4.5 13.1875 -4.617188 13.8125 -4.859375 C 14.445312 -5.097656 15.082031 -5.492188 15.71875 -6.046875 L 19.03125 -2.609375 C 17.289062 -0.671875 14.742188 0.296875 11.390625 0.296875 C 9.296875 0.296875 7.457031 -0.0976562 5.875 -0.890625 C 4.289062 -1.679688 3.0625 -2.78125 2.1875 -4.1875 C 1.320312 -5.601562 0.890625 -7.203125 0.890625 -8.984375 C 0.890625 -10.742188 1.3125 -12.320312 2.15625 -13.71875 C 3.007812 -15.125 4.179688 -16.222656 5.671875 -17.015625 C 7.171875 -17.804688 8.859375 -18.203125 10.734375 -18.203125 C 12.515625 -18.203125 14.128906 -17.832031 15.578125 -17.09375 C 17.035156 -16.351562 18.1875 -15.285156 19.03125 -13.890625 C 19.882812 -12.492188 20.3125 -10.835938 20.3125 -8.921875 Z M 10.765625 -13.734375 C 9.796875 -13.734375 8.984375 -13.457031 8.328125 -12.90625 C 7.679688 -12.363281 7.273438 -11.617188 7.109375 -10.671875 L 14.4375 -10.671875 C 14.257812 -11.617188 13.84375 -12.363281 13.1875 -12.90625 C 12.539062 -13.457031 11.734375 -13.734375 10.765625 -13.734375 Z M 10.765625 -13.734375 "/></g></g></g><g fill="#00bf63" fill-opacity="1"><g transform="translate(94.177512, 199.158031)"><g/></g></g><g fill="#00bf63" fill-opacity="1"><g transform="translate(103.786128, 199.158031)"><g><path d="M 17.796875 -12.0625 L 23.578125 -12.0625 L 23.578125 -2.484375 C 22.265625 -1.535156 20.75 -0.804688 19.03125 -0.296875 C 17.3125 0.210938 15.59375 0.46875 13.875 0.46875 C 11.445312 0.46875 9.265625 -0.0390625 7.328125 -1.0625 C 5.390625 -2.09375 3.867188 -3.519531 2.765625 -5.34375 C 1.671875 -7.175781 1.125 -9.25 1.125 -11.5625 C 1.125 -13.875 1.671875 -15.941406 2.765625 -17.765625 C 3.867188 -19.597656 5.398438 -21.023438 7.359375 -22.046875 C 9.328125 -23.066406 11.539062 -23.578125 14 -23.578125 C 16.164062 -23.578125 18.101562 -23.210938 19.8125 -22.484375 C 21.53125 -21.765625 22.960938 -20.722656 24.109375 -19.359375 L 19.953125 -15.59375 C 18.390625 -17.3125 16.515625 -18.171875 14.328125 -18.171875 C 12.347656 -18.171875 10.753906 -17.566406 9.546875 -16.359375 C 8.335938 -15.160156 7.734375 -13.5625 7.734375 -11.5625 C 7.734375 -10.28125 8.003906 -9.140625 8.546875 -8.140625 C 9.097656 -7.140625 9.867188 -6.359375 10.859375 -5.796875 C 11.859375 -5.234375 12.992188 -4.953125 14.265625 -4.953125 C 15.523438 -4.953125 16.703125 -5.207031 17.796875 -5.71875 Z M 17.796875 -12.0625 "/></g></g></g><g fill="#00bf63" fill-opacity="1"><g transform="translate(129.210974, 199.158031)"><g><path d="M 11 0.296875 C 9.082031 0.296875 7.351562 -0.0976562 5.8125 -0.890625 C 4.269531 -1.679688 3.0625 -2.78125 2.1875 -4.1875 C 1.320312 -5.601562 0.890625 -7.203125 0.890625 -8.984375 C 0.890625 -10.742188 1.320312 -12.328125 2.1875 -13.734375 C 3.0625 -15.148438 4.265625 -16.25 5.796875 -17.03125 C 7.328125 -17.8125 9.0625 -18.203125 11 -18.203125 C 12.9375 -18.203125 14.675781 -17.8125 16.21875 -17.03125 C 17.757812 -16.25 18.957031 -15.15625 19.8125 -13.75 C 20.675781 -12.351562 21.109375 -10.765625 21.109375 -8.984375 C 21.109375 -7.203125 20.675781 -5.601562 19.8125 -4.1875 C 18.957031 -2.78125 17.757812 -1.679688 16.21875 -0.890625 C 14.675781 -0.0976562 12.9375 0.296875 11 0.296875 Z M 11 -4.6875 C 12.101562 -4.6875 13.003906 -5.066406 13.703125 -5.828125 C 14.410156 -6.585938 14.765625 -7.640625 14.765625 -8.984375 C 14.765625 -10.304688 14.410156 -11.34375 13.703125 -12.09375 C 13.003906 -12.84375 12.101562 -13.21875 11 -13.21875 C 9.894531 -13.21875 8.988281 -12.84375 8.28125 -12.09375 C 7.582031 -11.34375 7.234375 -10.304688 7.234375 -8.984375 C 7.234375 -7.640625 7.582031 -6.585938 8.28125 -5.828125 C 8.988281 -5.066406 9.894531 -4.6875 11 -4.6875 Z M 11 -4.6875 "/></g></g></g><g fill="#00bf63" fill-opacity="1"><g transform="translate(151.201819, 199.158031)"><g><path d="M 11 0.296875 C 9.082031 0.296875 7.351562 -0.0976562 5.8125 -0.890625 C 4.269531 -1.679688 3.0625 -2.78125 2.1875 -4.1875 C 1.320312 -5.601562 0.890625 -7.203125 0.890625 -8.984375 C 0.890625 -10.742188 1.320312 -12.328125 2.1875 -13.734375 C 3.0625 -15.148438 4.265625 -16.25 5.796875 -17.03125 C 7.328125 -17.8125 9.0625 -18.203125 11 -18.203125 C 12.9375 -18.203125 14.675781 -17.8125 16.21875 -17.03125 C 17.757812 -16.25 18.957031 -15.15625 19.8125 -13.75 C 20.675781 -12.351562 21.109375 -10.765625 21.109375 -8.984375 C 21.109375 -7.203125 20.675781 -5.601562 19.8125 -4.1875 C 18.957031 -2.78125 17.757812 -1.679688 16.21875 -0.890625 C 14.675781 -0.0976562 12.9375 0.296875 11 0.296875 Z M 11 -4.6875 C 12.101562 -4.6875 13.003906 -5.066406 13.703125 -5.828125 C 14.410156 -6.585938 14.765625 -7.640625 14.765625 -8.984375 C 14.765625 -10.304688 14.410156 -11.34375 13.703125 -12.09375 C 13.003906 -12.84375 12.101562 -13.21875 11 -13.21875 C 9.894531 -13.21875 8.988281 -12.84375 8.28125 -12.09375 C 7.582031 -11.34375 7.234375 -10.304688 7.234375 -8.984375 C 7.234375 -7.640625 7.582031 -6.585938 8.28125 -5.828125 C 8.988281 -5.066406 9.894531 -4.6875 11 -4.6875 Z M 11 -4.6875 "/></g></g></g><g fill="#00bf63" fill-opacity="1"><g transform="translate(173.192663, 199.158031)"><g><path d="M 21.046875 -24.515625 L 21.046875 0 L 15.0625 0 L 15.0625 -1.78125 C 13.894531 -0.394531 12.144531 0.296875 9.8125 0.296875 C 8.175781 0.296875 6.6875 -0.0820312 5.34375 -0.84375 C 4.007812 -1.601562 2.945312 -2.6875 2.15625 -4.09375 C 1.375 -5.5 0.984375 -7.128906 0.984375 -8.984375 C 0.984375 -10.835938 1.375 -12.460938 2.15625 -13.859375 C 2.945312 -15.253906 4.007812 -16.328125 5.34375 -17.078125 C 6.6875 -17.828125 8.175781 -18.203125 9.8125 -18.203125 C 11.945312 -18.203125 13.597656 -17.582031 14.765625 -16.34375 L 14.765625 -24.515625 Z M 11.125 -4.6875 C 12.207031 -4.6875 13.097656 -5.066406 13.796875 -5.828125 C 14.503906 -6.585938 14.859375 -7.640625 14.859375 -8.984375 C 14.859375 -10.304688 14.507812 -11.34375 13.8125 -12.09375 C 13.125 -12.84375 12.226562 -13.21875 11.125 -13.21875 C 10.03125 -13.21875 9.128906 -12.84375 8.421875 -12.09375 C 7.710938 -11.34375 7.359375 -10.304688 7.359375 -8.984375 C 7.359375 -7.640625 7.710938 -6.585938 8.421875 -5.828125 C 9.128906 -5.066406 10.03125 -4.6875 11.125 -4.6875 Z M 11.125 -4.6875 "/></g></g></g><g fill="#00bf63" fill-opacity="1"><g transform="translate(196.240125, 199.158031)"><g/></g></g><g fill="#00bf63" fill-opacity="1"><g transform="translate(205.848741, 199.158031)"><g><path d="M 20.078125 -12.0625 C 21.398438 -11.59375 22.4375 -10.867188 23.1875 -9.890625 C 23.9375 -8.910156 24.3125 -7.726562 24.3125 -6.34375 C 24.3125 -4.3125 23.492188 -2.742188 21.859375 -1.640625 C 20.234375 -0.546875 17.878906 0 14.796875 0 L 2.3125 0 L 2.3125 -23.125 L 14.140625 -23.125 C 17.085938 -23.125 19.332031 -22.578125 20.875 -21.484375 C 22.414062 -20.398438 23.1875 -18.929688 23.1875 -17.078125 C 23.1875 -15.972656 22.914062 -14.984375 22.375 -14.109375 C 21.832031 -13.242188 21.066406 -12.5625 20.078125 -12.0625 Z M 8.78125 -18.390625 L 8.78125 -13.9375 L 13.28125 -13.9375 C 15.476562 -13.9375 16.578125 -14.6875 16.578125 -16.1875 C 16.578125 -17.65625 15.476562 -18.390625 13.28125 -18.390625 Z M 14.265625 -4.71875 C 16.554688 -4.71875 17.703125 -5.5 17.703125 -7.0625 C 17.703125 -8.625 16.554688 -9.40625 14.265625 -9.40625 L 8.78125 -9.40625 L 8.78125 -4.71875 Z M 14.265625 -4.71875 "/></g></g></g><g fill="#00bf63" fill-opacity="1"><g transform="translate(231.240561, 199.158031)"><g><path d="M 2.015625 -24.515625 L 8.296875 -24.515625 L 8.296875 0 L 2.015625 0 Z M 2.015625 -24.515625 "/></g></g></g><g fill="#00bf63" fill-opacity="1"><g transform="translate(241.5756, 199.158031)"><g><path d="M 11 0.296875 C 9.082031 0.296875 7.351562 -0.0976562 5.8125 -0.890625 C 4.269531 -1.679688 3.0625 -2.78125 2.1875 -4.1875 C 1.320312 -5.601562 0.890625 -7.203125 0.890625 -8.984375 C 0.890625 -10.742188 1.320312 -12.328125 2.1875 -13.734375 C 3.0625 -15.148438 4.265625 -16.25 5.796875 -17.03125 C 7.328125 -17.8125 9.0625 -18.203125 11 -18.203125 C 12.9375 -18.203125 14.675781 -17.8125 16.21875 -17.03125 C 17.757812 -16.25 18.957031 -15.15625 19.8125 -13.75 C 20.675781 -12.351562 21.109375 -10.765625 21.109375 -8.984375 C 21.109375 -7.203125 20.675781 -5.601562 19.8125 -4.1875 C 18.957031 -2.78125 17.757812 -1.679688 16.21875 -0.890625 C 14.675781 -0.0976562 12.9375 0.296875 11 0.296875 Z M 11 -4.6875 C 12.101562 -4.6875 13.003906 -5.066406 13.703125 -5.828125 C 14.410156 -6.585938 14.765625 -7.640625 14.765625 -8.984375 C 14.765625 -10.304688 14.410156 -11.34375 13.703125 -12.09375 C 13.003906 -12.84375 12.101562 -13.21875 11 -13.21875 C 9.894531 -13.21875 8.988281 -12.84375 8.28125 -12.09375 C 7.582031 -11.34375 7.234375 -10.304688 7.234375 -8.984375 C 7.234375 -7.640625 7.582031 -6.585938 8.28125 -5.828125 C 8.988281 -5.066406 9.894531 -4.6875 11 -4.6875 Z M 11 -4.6875 "/></g></g></g><g fill="#00bf63" fill-opacity="1"><g transform="translate(263.566454, 199.158031)"><g><path d="M 21.265625 -17.90625 L 21.265625 -3.265625 C 21.265625 0.0546875 20.363281 2.546875 18.5625 4.203125 C 16.757812 5.867188 14.160156 6.703125 10.765625 6.703125 C 9.003906 6.703125 7.351562 6.503906 5.8125 6.109375 C 4.269531 5.710938 2.957031 5.128906 1.875 4.359375 L 4.15625 -0.03125 C 4.882812 0.5625 5.804688 1.023438 6.921875 1.359375 C 8.035156 1.703125 9.128906 1.875 10.203125 1.875 C 11.859375 1.875 13.070312 1.507812 13.84375 0.78125 C 14.613281 0.0625 15 -1.007812 15 -2.4375 L 15 -3.03125 C 13.78125 -1.625 12.003906 -0.921875 9.671875 -0.921875 C 8.085938 -0.921875 6.625 -1.28125 5.28125 -2 C 3.9375 -2.71875 2.867188 -3.726562 2.078125 -5.03125 C 1.285156 -6.34375 0.890625 -7.859375 0.890625 -9.578125 C 0.890625 -11.273438 1.285156 -12.773438 2.078125 -14.078125 C 2.867188 -15.390625 3.9375 -16.40625 5.28125 -17.125 C 6.625 -17.84375 8.085938 -18.203125 9.671875 -18.203125 C 12.234375 -18.203125 14.109375 -17.375 15.296875 -15.71875 L 15.296875 -17.90625 Z M 11.171875 -5.90625 C 12.285156 -5.90625 13.210938 -6.242188 13.953125 -6.921875 C 14.691406 -7.609375 15.0625 -8.492188 15.0625 -9.578125 C 15.0625 -10.660156 14.695312 -11.535156 13.96875 -12.203125 C 13.238281 -12.878906 12.304688 -13.21875 11.171875 -13.21875 C 10.023438 -13.21875 9.082031 -12.878906 8.34375 -12.203125 C 7.601562 -11.535156 7.234375 -10.660156 7.234375 -9.578125 C 7.234375 -8.492188 7.609375 -7.609375 8.359375 -6.921875 C 9.109375 -6.242188 10.046875 -5.90625 11.171875 -5.90625 Z M 11.171875 -5.90625 "/></g></g></g><g fill="#00bf63" fill-opacity="1"><g transform="translate(286.84504, 199.158031)"><g><path d="M 21.265625 -17.90625 L 21.265625 -3.265625 C 21.265625 0.0546875 20.363281 2.546875 18.5625 4.203125 C 16.757812 5.867188 14.160156 6.703125 10.765625 6.703125 C 9.003906 6.703125 7.351562 6.503906 5.8125 6.109375 C 4.269531 5.710938 2.957031 5.128906 1.875 4.359375 L 4.15625 -0.03125 C 4.882812 0.5625 5.804688 1.023438 6.921875 1.359375 C 8.035156 1.703125 9.128906 1.875 10.203125 1.875 C 11.859375 1.875 13.070312 1.507812 13.84375 0.78125 C 14.613281 0.0625 15 -1.007812 15 -2.4375 L 15 -3.03125 C 13.78125 -1.625 12.003906 -0.921875 9.671875 -0.921875 C 8.085938 -0.921875 6.625 -1.28125 5.28125 -2 C 3.9375 -2.71875 2.867188 -3.726562 2.078125 -5.03125 C 1.285156 -6.34375 0.890625 -7.859375 0.890625 -9.578125 C 0.890625 -11.273438 1.285156 -12.773438 2.078125 -14.078125 C 2.867188 -15.390625 3.9375 -16.40625 5.28125 -17.125 C 6.625 -17.84375 8.085938 -18.203125 9.671875 -18.203125 C 12.234375 -18.203125 14.109375 -17.375 15.296875 -15.71875 L 15.296875 -17.90625 Z M 11.171875 -5.90625 C 12.285156 -5.90625 13.210938 -6.242188 13.953125 -6.921875 C 14.691406 -7.609375 15.0625 -8.492188 15.0625 -9.578125 C 15.0625 -10.660156 14.695312 -11.535156 13.96875 -12.203125 C 13.238281 -12.878906 12.304688 -13.21875 11.171875 -13.21875 C 10.023438 -13.21875 9.082031 -12.878906 8.34375 -12.203125 C 7.601562 -11.535156 7.234375 -10.660156 7.234375 -9.578125 C 7.234375 -8.492188 7.609375 -7.609375 8.359375 -6.921875 C 9.109375 -6.242188 10.046875 -5.90625 11.171875 -5.90625 Z M 11.171875 -5.90625 "/></g></g></g><g fill="#00bf63" fill-opacity="1"><g transform="translate(310.123626, 199.158031)"><g><path d="M 20.3125 -8.921875 C 20.3125 -8.878906 20.28125 -8.359375 20.21875 -7.359375 L 7.203125 -7.359375 C 7.460938 -6.441406 7.972656 -5.734375 8.734375 -5.234375 C 9.492188 -4.742188 10.445312 -4.5 11.59375 -4.5 C 12.445312 -4.5 13.1875 -4.617188 13.8125 -4.859375 C 14.445312 -5.097656 15.082031 -5.492188 15.71875 -6.046875 L 19.03125 -2.609375 C 17.289062 -0.671875 14.742188 0.296875 11.390625 0.296875 C 9.296875 0.296875 7.457031 -0.0976562 5.875 -0.890625 C 4.289062 -1.679688 3.0625 -2.78125 2.1875 -4.1875 C 1.320312 -5.601562 0.890625 -7.203125 0.890625 -8.984375 C 0.890625 -10.742188 1.3125 -12.320312 2.15625 -13.71875 C 3.007812 -15.125 4.179688 -16.222656 5.671875 -17.015625 C 7.171875 -17.804688 8.859375 -18.203125 10.734375 -18.203125 C 12.515625 -18.203125 14.128906 -17.832031 15.578125 -17.09375 C 17.035156 -16.351562 18.1875 -15.285156 19.03125 -13.890625 C 19.882812 -12.492188 20.3125 -10.835938 20.3125 -8.921875 Z M 10.765625 -13.734375 C 9.796875 -13.734375 8.984375 -13.457031 8.328125 -12.90625 C 7.679688 -12.363281 7.273438 -11.617188 7.109375 -10.671875 L 14.4375 -10.671875 C 14.257812 -11.617188 13.84375 -12.363281 13.1875 -12.90625 C 12.539062 -13.457031 11.734375 -13.734375 10.765625 -13.734375 Z M 10.765625 -13.734375 "/></g></g></g><g fill="#00bf63" fill-opacity="1"><g transform="translate(331.321986, 199.158031)"><g><path d="M 8 -15.75 C 8.632812 -16.570312 9.460938 -17.1875 10.484375 -17.59375 C 11.503906 -18 12.675781 -18.203125 14 -18.203125 L 14 -12.546875 C 13.425781 -12.617188 12.953125 -12.65625 12.578125 -12.65625 C 11.234375 -12.65625 10.179688 -12.289062 9.421875 -11.5625 C 8.671875 -10.832031 8.296875 -9.71875 8.296875 -8.21875 L 8.296875 0 L 2.015625 0 L 2.015625 -17.90625 L 8 -17.90625 Z M 8 -15.75 "/></g></g></g></svg>