<svg width="731" height="107" viewBox="0 0 731 107" fill="none" xmlns="http://www.w3.org/2000/svg">
<path d="M85.141 34.8349C83.831 34.3178 82.9692 33.6456 82.5555 32.8182C83.538 30.9566 84.193 29.707 84.5205 29.0692C84.8652 28.4315 85.2531 27.4576 85.684 26.1476C86.1321 24.8204 86.4424 23.4846 86.6147 22.1401H104.532H126.069C126.5 25.5185 127.845 29.0779 130.103 32.8182C129.706 33.6456 128.784 34.3178 127.336 34.8349C125.923 32.2666 123.837 30.1293 121.079 28.4229C118.339 26.6992 114.779 25.8374 110.401 25.8374C110.263 30.1121 110.194 35.1796 110.194 41.04C110.194 48.5207 110.281 53.9761 110.453 57.4062C110.487 58.0439 112.409 58.5524 116.219 58.9316C116.512 60.0348 116.477 61.1465 116.115 62.2669C110.53 62.129 107.281 62.06 106.368 62.06C104.989 62.06 101.128 62.129 94.7849 62.2669C94.354 61.0776 94.354 59.9658 94.7849 58.9316C98.5252 58.5524 100.413 58.0612 100.447 57.4579C100.619 53.1143 100.706 47.6417 100.706 41.04C100.706 35.5243 100.637 30.5085 100.499 25.9925C93.3284 26.9233 88.2091 29.8707 85.141 34.8349ZM92.4579 24.9325L101.507 24.6739C101.68 30.3965 101.766 35.8518 101.766 41.04C101.766 47.7106 101.68 53.1832 101.507 57.4579C101.473 58.7334 99.4732 59.5607 95.5088 59.94C95.3709 60.2157 95.3709 60.6208 95.5088 61.1551C98.439 61.0517 101.447 61 104.532 61C108.204 61 111.728 61.0517 115.107 61.1551C115.245 60.8449 115.245 60.4398 115.107 59.94C109.384 59.5952 106.506 58.7679 106.471 57.4579C106.299 51.7353 106.213 46.2627 106.213 41.04C106.213 34.404 106.299 28.9486 106.471 24.6739L110.453 24.7773C119.037 24.9842 124.828 27.8972 127.827 33.5163C128.276 33.3439 128.569 33.1112 128.706 32.8182C126.983 29.3019 125.052 26.8199 122.915 25.372C120.778 23.9241 117.597 23.2002 113.375 23.2002H104.532C102.653 23.2002 99.818 23.1916 96.0259 23.1743C92.2339 23.1571 89.4157 23.1485 87.5714 23.1485C87.5024 23.7345 87.3818 24.3464 87.2094 24.9842C87.037 25.6219 86.8733 26.1649 86.7182 26.613C86.5803 27.0439 86.339 27.6214 85.9942 28.3453C85.6667 29.0692 85.4427 29.5605 85.322 29.819C85.2013 30.0603 84.9256 30.5947 84.4946 31.422C84.081 32.2494 83.8397 32.7148 83.7707 32.8182C83.9086 33.1112 84.2102 33.3439 84.6756 33.5163C85.8994 31.4996 86.8474 30.0086 87.5197 29.0434C88.1919 28.0781 88.9848 27.156 89.8983 26.2769C90.8291 25.3806 91.6823 24.9325 92.4579 24.9325ZM148.684 59.8107C148.477 60.2071 148.477 60.6294 148.684 61.0776C153.165 60.9741 157.647 60.9741 162.128 61.0776C162.387 60.6639 162.387 60.2416 162.128 59.8107C157.94 59.6038 155.828 58.7765 155.794 57.3286L155.509 44.3236C155.44 41.9622 155.061 40.2385 154.372 39.1526C153.682 38.0495 152.493 37.4979 150.804 37.4979C147.942 37.4979 144.538 39.4715 140.591 43.4187V22.2953C140.453 22.0195 140.152 21.7868 139.686 21.5972C137.29 22.7348 134.8 23.4415 132.214 23.7173C132.111 24.1482 132.111 24.5533 132.214 24.9325C134.196 25.0359 135.661 25.3892 136.609 25.9925V57.3286C136.575 58.6041 135.093 59.4315 132.162 59.8107C131.956 60.2071 131.956 60.6294 132.162 61.0776C136.678 60.9052 141.177 60.9052 145.659 61.0776C145.883 60.6294 145.883 60.2071 145.659 59.8107C142.453 59.4659 140.832 58.6386 140.798 57.3286C140.66 53.6572 140.591 49.5721 140.591 45.0734C144.038 42.0225 146.753 40.4971 148.735 40.4971C150.614 40.4971 151.554 42.057 151.554 45.1768L151.502 57.3286C151.502 58.1732 151.243 58.7679 150.726 59.1126C150.209 59.4401 149.528 59.6728 148.684 59.8107ZM147.83 61.9825C147.417 60.9655 147.417 59.9227 147.83 58.854C148.399 58.854 148.977 58.7075 149.563 58.4145C150.149 58.1043 150.442 57.7423 150.442 57.3286L150.494 45.1768C150.494 43.298 150.123 42.1518 149.382 41.7381C148.106 42.0484 146.391 42.9792 144.237 44.5304C144.237 49.1843 144.306 53.4331 144.443 57.2769C144.512 58.1904 145.202 58.7162 146.512 58.854C146.943 59.9227 146.943 60.9655 146.512 61.9825C141.462 61.8101 136.377 61.8101 131.257 61.9825C130.844 60.9655 130.844 59.9227 131.257 58.854C134.084 58.4748 135.515 57.9491 135.549 57.2769V26.6389C134.395 26.2769 132.964 26.0442 131.257 25.9408C130.878 24.9238 130.878 23.8293 131.257 22.6572C133.877 22.5193 136.808 21.7437 140.048 20.3303C141.927 20.4682 143.323 21.037 144.237 22.0367V38.8682C146.667 37.248 149.477 36.4379 152.665 36.4379C154.992 36.4379 156.647 37.0756 157.629 38.3511C158.629 39.6094 159.146 41.6002 159.181 44.3236C159.25 51.0803 159.336 55.4153 159.439 57.3286C159.474 58.0353 160.689 58.5438 163.085 58.854C163.481 59.9917 163.447 61.0345 162.981 61.9825C157.931 61.8791 152.881 61.8791 147.83 61.9825ZM180.347 39.1785C181.726 39.1785 182.726 39.6266 183.346 40.5229C183.967 41.402 184.277 42.5052 184.277 43.8324C184.277 44.3322 184.191 44.901 184.019 45.5388H173.935C174.47 43.3842 175.331 41.7898 176.521 40.7556C177.727 39.7042 179.003 39.1785 180.347 39.1785ZM173.677 47.2969H187.768C188.043 46.4351 188.181 45.5474 188.181 44.6339C188.181 42.6172 187.604 40.928 186.449 39.5663C185.311 38.1874 183.493 37.4979 180.994 37.4979C177.736 37.4979 174.995 38.6786 172.772 41.04C170.548 43.4015 169.437 46.4006 169.437 50.0375C169.437 53.9158 170.497 56.8374 172.617 58.8023C174.737 60.7673 177.227 61.7498 180.089 61.7498C182.209 61.7498 184.174 61.181 185.984 60.0434C187.811 58.8885 189.147 57.1562 189.991 54.8465C189.75 54.5708 189.414 54.3812 188.983 54.2777C188.914 54.3812 188.707 54.6656 188.362 55.1309C188.035 55.5791 187.793 55.9066 187.638 56.1134C187.483 56.303 187.199 56.5874 186.785 56.9666C186.389 57.3286 186.001 57.5958 185.622 57.7681C185.26 57.9405 184.794 58.1129 184.225 58.2852C183.657 58.4404 183.036 58.5179 182.364 58.5179C179.71 58.5179 177.598 57.7337 176.029 56.1651C174.461 54.5794 173.642 52.4507 173.573 49.779C173.573 49.1757 173.608 48.3484 173.677 47.2969ZM188.569 53.0626C189.655 53.3039 190.534 53.8468 191.206 54.6914C190.224 57.3803 188.707 59.4056 186.656 60.7673C184.605 62.129 182.416 62.8098 180.089 62.8098C176.917 62.8098 174.168 61.7412 171.841 59.6038C169.531 57.4665 168.376 54.2777 168.376 50.0375C168.376 46.1938 169.557 42.9705 171.919 40.3678C174.297 37.7479 177.658 36.4379 182.002 36.4379C188.569 36.4379 191.853 39.1699 191.853 44.6339C191.853 45.7025 191.603 46.9436 191.103 48.357H177.219V50.0375C177.305 52.1232 177.874 53.821 178.925 55.1309C179.977 56.4237 181.425 57.1821 183.269 57.4062C184.355 57.3028 185.251 56.9322 185.958 56.2944C186.664 55.6567 187.535 54.5794 188.569 53.0626ZM183.217 43.8324C183.217 41.9363 182.579 40.7901 181.304 40.3937C179.787 40.8591 178.658 42.2207 177.917 44.4787H183.165C183.165 44.4098 183.174 44.3064 183.191 44.1685C183.209 44.0306 183.217 43.9186 183.217 43.8324ZM235.996 25.0876C234.668 25.191 233.479 25.5099 232.428 26.0442C231.376 26.5786 230.454 27.2766 229.661 28.1385C228.868 28.9831 228.187 29.9569 227.619 31.0601C227.067 32.146 226.61 33.3008 226.248 34.5246C225.904 35.7484 225.645 37.0153 225.473 38.3253C225.317 39.618 225.24 40.8935 225.24 42.1518C225.24 43.4101 225.317 44.6942 225.473 46.0042C225.645 47.2969 225.912 48.5552 226.274 49.779C226.636 51.0028 227.093 52.1576 227.644 53.2435C228.213 54.3294 228.894 55.2947 229.687 56.1393C230.497 56.9666 231.419 57.6389 232.453 58.156C233.505 58.6731 234.686 58.9833 235.996 59.0867C237.34 58.9833 238.538 58.6731 239.589 58.156C240.641 57.6216 241.563 56.9408 242.356 56.1134C243.166 55.2688 243.847 54.3036 244.398 53.2177C244.967 52.1145 245.424 50.9597 245.769 49.7531C246.131 48.5293 246.389 47.2711 246.544 45.9783C246.717 44.6683 246.803 43.3928 246.803 42.1518C246.803 40.8935 246.717 39.618 246.544 38.3253C246.389 37.0153 246.131 35.7484 245.769 34.5246C245.424 33.2836 244.967 32.1201 244.398 31.0342C243.847 29.9311 243.166 28.9572 242.356 28.1126C241.563 27.268 240.632 26.5786 239.564 26.0442C238.512 25.5099 237.323 25.191 235.996 25.0876ZM235.091 60.1985C233.384 60.1985 231.859 59.9486 230.514 59.4487C229.17 58.9316 227.981 58.2421 226.946 57.3803C225.929 56.5013 225.059 55.4757 224.335 54.3036C223.628 53.1315 223.042 51.8819 222.577 50.5546C222.129 49.2102 221.801 47.8226 221.594 46.392C221.388 44.9441 221.284 43.5307 221.284 42.1518C221.284 40.7729 221.388 39.3681 221.594 37.9375C221.801 36.4896 222.129 35.0934 222.577 33.749C223.025 32.4045 223.611 31.1376 224.335 29.9483C225.059 28.759 225.929 27.7248 226.946 26.8457C227.963 25.9667 229.144 25.2686 230.488 24.7515C231.85 24.2344 233.384 23.9758 235.091 23.9758C236.659 23.9758 238.064 24.2344 239.305 24.7515C240.546 25.2513 241.632 25.9494 242.563 26.8457C243.511 27.7248 244.321 28.759 244.993 29.9483C245.665 31.1376 246.208 32.4045 246.622 33.749C247.053 35.0934 247.363 36.4896 247.553 37.9375C247.76 39.3681 247.863 40.7729 247.863 42.1518C247.863 43.5307 247.768 44.9355 247.579 46.3661C247.389 47.7795 247.079 49.1585 246.648 50.5029C246.234 51.8301 245.691 53.0884 245.019 54.2777C244.364 55.4498 243.562 56.4754 242.614 57.3545C241.666 58.2335 240.572 58.9316 239.331 59.4487C238.09 59.9486 236.676 60.1985 235.091 60.1985ZM235.091 62.06C236.28 62.06 237.564 61.9394 238.943 61.6981C240.322 61.4568 241.692 61.0431 243.054 60.457C244.433 59.871 245.76 59.0867 247.036 58.1043C248.311 57.1218 249.431 55.898 250.397 54.4329C251.379 52.9505 252.163 51.201 252.75 49.1843C253.336 47.1504 253.629 44.8062 253.629 42.1518C253.629 39.5491 253.336 37.248 252.75 35.2486C252.181 33.2319 251.414 31.4824 250.448 30C249.483 28.5177 248.371 27.2766 247.113 26.2769C245.855 25.2772 244.536 24.4757 243.157 23.8724C241.778 23.2519 240.391 22.8124 238.995 22.5538C237.616 22.278 236.314 22.1401 235.091 22.1401C233.901 22.1401 232.591 22.2608 231.161 22.5021C229.73 22.7262 228.291 23.1312 226.843 23.7173C225.395 24.2861 223.99 25.0617 222.629 26.0442C221.267 27.0267 220.06 28.2591 219.009 29.7415C217.957 31.2238 217.113 32.9906 216.475 35.0417C215.837 37.0756 215.518 39.4457 215.518 42.1518C215.518 44.7718 215.82 47.0815 216.423 49.0809C217.044 51.0803 217.863 52.8212 218.88 54.3036C219.897 55.7687 221.069 57.0011 222.396 58.0008C223.74 58.9833 225.137 59.7762 226.584 60.3795C228.032 60.9828 229.489 61.4137 230.954 61.6722C232.419 61.9308 233.798 62.06 235.091 62.06ZM235.996 63.2235C232.531 63.2235 229.463 62.715 226.791 61.6981C224.12 60.6984 221.87 59.285 220.043 57.4579C218.216 55.6136 216.828 53.3987 215.88 50.8132C214.932 48.2105 214.458 45.3233 214.458 42.1518C214.458 38.9803 214.932 36.1018 215.88 33.5163C216.828 30.9136 218.216 28.6987 220.043 26.8716C221.87 25.0273 224.12 23.6052 226.791 22.6055C229.463 21.5886 232.531 21.0801 235.996 21.0801C239.253 21.0801 242.209 21.5455 244.864 22.4762C247.535 23.407 249.811 24.7687 251.689 26.5613C253.585 28.3367 255.042 30.5343 256.059 33.1543C257.093 35.7743 257.61 38.7734 257.61 42.1518C257.61 45.5474 257.093 48.5552 256.059 51.1752C255.042 53.7779 253.585 55.9755 251.689 57.7681C249.811 59.5607 247.535 60.9138 244.864 61.8274C242.209 62.7581 239.253 63.2235 235.996 63.2235ZM279.449 59.8107C275.347 59.4315 273.278 58.6041 273.244 57.3286C273.071 47.7795 273.002 36.1362 273.037 22.3987C272.899 22.1229 272.597 21.8902 272.132 21.7006C269.736 22.8382 267.245 23.5449 264.66 23.8207C264.557 24.2516 264.557 24.6567 264.66 25.0359C266.608 25.1565 268.09 25.5099 269.107 26.0959C269.245 39.0578 269.228 49.4687 269.055 57.3286C269.021 58.6041 267.556 59.4315 264.66 59.8107C264.488 60.2416 264.488 60.6639 264.66 61.0776C268.659 60.9397 273.589 60.9397 279.449 61.0776C279.621 60.6639 279.621 60.2416 279.449 59.8107ZM280.38 58.854C280.673 59.9227 280.673 60.9655 280.38 61.9825C273.744 61.8446 268.185 61.8446 263.703 61.9825C263.428 60.9655 263.428 59.9227 263.703 58.854C266.53 58.5783 267.961 58.0525 267.995 57.2769C268.202 47.159 268.219 36.9808 268.047 26.7423C266.892 26.3803 265.444 26.1476 263.703 26.0442C263.324 25.0273 263.324 23.9327 263.703 22.7607C266.323 22.6228 269.254 21.8471 272.494 20.4337C274.373 20.5716 275.769 21.1404 276.682 22.1401C276.614 37.4979 276.682 49.2102 276.889 57.2769C276.924 58.0525 278.087 58.5783 280.38 58.854ZM292.238 42.2035C293.049 42.3414 293.686 42.6603 294.152 43.1601C294.634 43.6428 294.876 44.2633 294.876 45.0217C294.876 45.9352 294.574 46.6936 293.971 47.2969C293.367 47.883 292.575 48.176 291.592 48.176C290.575 48.176 289.653 47.814 288.826 47.0901C287.998 46.3661 287.585 45.3406 287.585 44.0134C287.585 41.7554 288.653 39.9283 290.791 38.5321C292.945 37.136 295.755 36.4379 299.219 36.4379C302.511 36.4379 304.821 37.1015 306.148 38.4287C307.493 39.7387 308.165 41.9536 308.165 45.0734V54.1226L309.82 54.0709C311.233 54.1743 312.216 54.8465 312.767 56.0876L311.94 57.5096C311.406 58.3197 310.957 58.9488 310.595 59.397C310.251 59.8279 309.751 60.3192 309.096 60.8707C308.441 61.4223 307.674 61.8187 306.795 62.06C305.916 62.3014 304.89 62.422 303.718 62.422C302.27 62.422 301.176 61.8791 300.434 60.7932C298.573 62.1376 296.143 62.8098 293.143 62.8098C291.833 62.8098 290.713 62.603 289.782 62.1893C288.869 61.7929 288.197 61.2585 287.766 60.5863C287.352 59.9141 287.059 59.285 286.887 58.6989C286.714 58.1129 286.628 57.5182 286.628 56.9149C286.628 54.3812 287.481 52.4851 289.188 51.2269C290.894 49.9686 294.341 48.6758 299.53 47.3486V44.5304C299.53 43.1515 299.237 42.1432 298.651 41.5054C298.082 40.8677 297.341 40.5488 296.427 40.5488C294.479 40.5488 293.083 41.1004 292.238 42.2035ZM300.59 49.779V55.1827C298.935 57.3717 297.246 58.4662 295.522 58.4662C294.522 58.4662 293.704 58.2249 293.066 57.7423C292.445 57.2597 292.135 56.5788 292.135 55.6998C292.135 54.2864 292.713 53.1229 293.867 52.2093C295.039 51.2958 297.28 50.4857 300.59 49.779ZM299.53 54.8465V51.6922C297.03 52.6058 295.781 53.9416 295.781 55.6998C295.781 56.4409 296.048 56.958 296.582 57.251C297.496 56.9235 298.478 56.122 299.53 54.8465ZM291.592 45.9008C290.989 45.9008 290.567 45.4612 290.325 44.5822C289.981 43.1688 290.403 41.9363 291.592 40.8849C292.764 39.8507 294.531 39.3336 296.892 39.3336C298.013 39.3336 298.909 39.7732 299.581 40.6522C300.254 41.514 300.59 42.8068 300.59 44.5304V48.1243C295.505 49.4343 292.083 50.6753 290.325 51.8474C288.567 53.0022 287.688 54.6914 287.688 56.9149C287.688 58.087 288.084 59.1902 288.877 60.2244C289.67 61.2413 291.092 61.7498 293.143 61.7498C293.954 61.7498 294.712 61.6205 295.419 61.362C296.143 61.1034 296.884 60.6897 297.642 60.1209C298.418 59.5349 298.892 59.1643 299.064 59.0092C299.237 58.854 299.521 58.5869 299.917 58.2077C300.331 57.8112 300.555 57.5958 300.59 57.5613C300.814 60.0951 301.857 61.362 303.718 61.362C304.183 61.362 304.718 61.2413 305.321 61C305.924 60.7587 306.528 60.2847 307.131 59.578C307.751 58.8713 308.139 58.4059 308.294 58.1818C308.467 57.9405 308.717 57.5699 309.044 57.0701C309.372 56.553 309.613 56.1996 309.768 56.01C309.544 55.5274 309.113 55.2516 308.475 55.1827C307.527 56.6305 306.562 57.3372 305.58 57.3028C304.873 57.2683 304.52 56.7684 304.52 55.8032V45.0734C304.52 42.3155 303.977 40.3678 302.891 39.2302C301.822 38.0754 299.978 37.4979 297.358 37.4979C294.996 37.4979 292.945 38.1098 291.204 39.3336C289.481 40.5402 288.619 42.1001 288.619 44.0134C288.619 44.9958 288.92 45.7629 289.524 46.3144C290.127 46.8488 290.816 47.1159 291.592 47.1159C291.833 46.7712 291.833 46.3661 291.592 45.9008ZM330.469 57.4062C330.504 58.0784 331.667 58.6041 333.96 58.9833C334.528 60.1209 334.494 61.2155 333.856 62.2669C326.548 62.0256 321.024 61.9739 317.283 62.1118C316.645 61.0948 316.611 60.052 317.18 58.9833C320.076 58.6041 321.541 58.0784 321.575 57.4062C321.644 55.6998 321.679 50.4512 321.679 41.6606H318.498C317.93 40.2989 317.93 38.9803 318.498 37.7048H321.679V36.0501C321.679 31.7581 322.79 28.1212 325.014 25.1393C327.237 22.1401 330.409 20.6406 334.528 20.6406C336.614 20.6406 338.372 21.1921 339.803 22.2953C341.233 23.3812 341.949 24.829 341.949 26.6389C341.949 27.7937 341.552 28.8021 340.759 29.6639C339.967 30.5085 338.932 30.9308 337.657 30.9308C336.605 30.9308 335.787 30.6636 335.201 30.1293C334.615 29.595 334.322 28.9227 334.322 28.1126C334.322 26.6647 334.839 25.734 335.873 25.3203C335.442 25.0617 334.821 24.9325 334.011 24.9325C332.925 25.1221 332.029 25.6736 331.322 26.5872C330.616 27.5007 330.262 28.6469 330.262 30.0259V37.7048H335.537C336.106 39.0837 336.106 40.4023 335.537 41.6606H330.262C330.262 49.71 330.331 54.9586 330.469 57.4062ZM334.011 23.407C335.735 23.407 336.976 23.7173 337.734 24.3378C338.493 24.9583 338.872 25.6909 338.872 26.5355C338.872 27.7593 338.433 28.5177 337.553 28.8107C337.312 29.1554 337.312 29.5605 337.553 30.0259C338.467 30.0259 339.251 29.6811 339.906 28.9917C340.561 28.3022 340.889 27.5179 340.889 26.6389C340.889 25.1565 340.277 23.9672 339.053 23.0709C337.846 22.1574 336.338 21.7006 334.528 21.7006C330.754 21.7006 327.841 23.0881 325.789 25.8632C323.756 28.6383 322.739 32.0339 322.739 36.0501V38.7648H319.248C318.99 39.3336 318.99 39.9541 319.248 40.6264H322.739C322.739 50.141 322.704 55.7515 322.635 57.4579C322.601 58.7334 321.136 59.5607 318.24 59.94C317.981 60.4053 317.981 60.8104 318.24 61.1551C322.756 60.9483 327.677 60.9483 333.003 61.1551C333.244 60.8104 333.244 60.4053 333.003 59.94C328.918 59.5607 326.85 58.7334 326.798 57.4579C326.66 54.769 326.591 49.1585 326.591 40.6264H334.528C334.787 40.0576 334.787 39.437 334.528 38.7648H326.591V31.241C326.591 29.1554 327.315 27.3283 328.763 25.7598C330.211 24.1913 331.96 23.407 334.011 23.407ZM362.331 57.0701C362.262 58.6386 360.357 59.5952 356.617 59.94C356.479 60.2157 356.479 60.6208 356.617 61.1551C359.875 61.0517 362.185 61 363.546 61C365.701 61 368.157 61.0517 370.915 61.1551C371.053 60.6208 371.053 60.2157 370.915 59.94C367.14 59.5952 365.235 58.6386 365.201 57.0701C365.029 51.7095 364.942 47.0384 364.942 43.0567C364.942 37.61 365.011 32.7923 365.149 28.6039H365.408L378.025 60.3536H378.284L390.073 29.2244H390.306C390.478 34.4126 390.565 39.0234 390.565 43.0567C390.565 48.6586 390.478 53.4418 390.306 57.4062C390.272 57.8543 390.065 58.2421 389.685 58.5696C389.324 58.8799 388.781 59.1298 388.057 59.3194C387.333 59.4918 386.721 59.6125 386.221 59.6814C385.721 59.7503 385.083 59.8193 384.308 59.8882C384.17 60.164 384.17 60.5691 384.308 61.1034C387.238 61 390.237 60.9483 393.305 60.9483C396.977 60.9483 400.51 61 403.906 61.1034C404.044 60.7932 404.044 60.3881 403.906 59.8882C398.183 59.5435 395.305 58.7334 395.27 57.4579C395.063 52.0456 394.96 46.6075 394.96 41.1435C394.96 35.8518 395.029 31.0342 395.167 26.6906C395.201 25.4151 398.08 24.605 403.802 24.2602C403.94 23.7604 403.94 23.3553 403.802 23.0451C400.407 23.1485 395.891 23.2002 390.254 23.2002L379.24 51.9508L368.64 23.2002C364.434 23.2002 360.711 23.1312 357.47 22.9933C357.298 23.3381 357.298 23.6656 357.47 23.9758C359.521 24.2689 360.857 24.6998 361.478 25.2686C362.116 25.8201 362.452 27.1043 362.486 29.1209C362.607 33.3611 362.667 37.3687 362.667 41.1435C362.667 46.3661 362.555 51.675 362.331 57.0701ZM361.271 57.0701C361.495 51.6405 361.607 46.3317 361.607 41.1435C361.607 37.3687 361.547 33.3611 361.426 29.1209C361.392 27.5352 361.081 26.5182 360.495 26.0701C359.927 25.6047 358.686 25.2427 356.772 24.9842C356.29 23.9327 356.307 22.8985 356.824 21.8816C360.788 22.054 365.942 22.1401 372.285 22.1401L380.766 44.789L389.505 22.1401C394.124 22.1401 399.226 22.0712 404.811 21.9333C405.155 23.0537 405.19 24.1654 404.914 25.2686C401.105 25.6478 399.183 26.1563 399.148 26.794C398.993 30.0345 398.916 34.8176 398.916 41.1435C398.916 47.6761 399.028 53.0798 399.252 57.3545C399.286 57.9922 401.208 58.5007 405.017 58.8799C405.293 59.983 405.259 61.0948 404.914 62.2152C399.329 62.0773 396.08 62.0083 395.167 62.0083C393.788 62.0083 389.927 62.0773 383.584 62.2152C383.153 61.0086 383.153 59.8969 383.584 58.8799C387.324 58.5007 389.211 58.0095 389.246 57.4062C389.418 53.3728 389.505 48.5897 389.505 43.0567C389.505 38.7476 389.487 35.5847 389.453 33.568L379.007 61.4137H377.275L366.002 32.9992V43.0567C366.002 47.0384 366.089 51.7095 366.261 57.0701C366.295 58.0008 368.183 58.6214 371.923 58.9316C372.354 59.9658 372.354 61.0776 371.923 62.2669C366.769 62.06 361.418 62.06 355.867 62.2669C355.454 61.0776 355.454 59.9658 355.867 58.9316C359.435 58.5869 361.237 57.9664 361.271 57.0701ZM422.642 39.1785C424.021 39.1785 425.02 39.6266 425.641 40.5229C426.262 41.402 426.572 42.5052 426.572 43.8324C426.572 44.3322 426.486 44.901 426.313 45.5388H416.23C416.764 43.3842 417.626 41.7898 418.815 40.7556C420.022 39.7042 421.297 39.1785 422.642 39.1785ZM415.971 47.2969H430.062C430.338 46.4351 430.476 45.5474 430.476 44.6339C430.476 42.6172 429.898 40.928 428.744 39.5663C427.606 38.1874 425.788 37.4979 423.288 37.4979C420.031 37.4979 417.29 38.6786 415.066 41.04C412.843 43.4015 411.731 46.4006 411.731 50.0375C411.731 53.9158 412.791 56.8374 414.911 58.8023C417.031 60.7673 419.522 61.7498 422.383 61.7498C424.503 61.7498 426.468 61.181 428.278 60.0434C430.105 58.8885 431.441 57.1562 432.286 54.8465C432.044 54.5708 431.708 54.3812 431.277 54.2777C431.208 54.3812 431.002 54.6656 430.657 55.1309C430.329 55.5791 430.088 55.9066 429.933 56.1134C429.778 56.303 429.493 56.5874 429.08 56.9666C428.683 57.3286 428.295 57.5958 427.916 57.7681C427.554 57.9405 427.089 58.1129 426.52 58.2852C425.951 58.4404 425.331 58.5179 424.659 58.5179C422.004 58.5179 419.893 57.7337 418.324 56.1651C416.756 54.5794 415.937 52.4507 415.868 49.779C415.868 49.1757 415.902 48.3484 415.971 47.2969ZM430.864 53.0626C431.95 53.3039 432.829 53.8468 433.501 54.6914C432.518 57.3803 431.002 59.4056 428.95 60.7673C426.899 62.129 424.71 62.8098 422.383 62.8098C419.212 62.8098 416.463 61.7412 414.136 59.6038C411.826 57.4665 410.671 54.2777 410.671 50.0375C410.671 46.1938 411.852 42.9705 414.213 40.3678C416.592 37.7479 419.953 36.4379 424.297 36.4379C430.864 36.4379 434.147 39.1699 434.147 44.6339C434.147 45.7025 433.897 46.9436 433.397 48.357H419.513V50.0375C419.6 52.1232 420.168 53.821 421.22 55.1309C422.271 56.4237 423.719 57.1821 425.563 57.4062C426.649 57.3028 427.546 56.9322 428.252 56.2944C428.959 55.6567 429.829 54.5794 430.864 53.0626ZM425.512 43.8324C425.512 41.9363 424.874 40.7901 423.598 40.3937C422.082 40.8591 420.953 42.2207 420.211 44.4787H425.46C425.46 44.4098 425.469 44.3064 425.486 44.1685C425.503 44.0306 425.512 43.9186 425.512 43.8324ZM444.92 61.3103C444.093 61.586 443.283 61.9222 442.49 62.3186C441.68 61.8187 441.145 61.3103 440.887 60.7932C440.921 60.6897 440.973 60.3364 441.042 59.7331C441.111 59.1298 441.18 58.4231 441.249 57.613C441.335 56.8029 441.404 55.9669 441.456 55.1051C441.507 54.2433 441.533 53.5107 441.533 52.9074C442.343 52.5282 443.593 52.3386 445.282 52.3386C445.472 52.3386 445.661 52.3386 445.851 52.3386C446.04 52.3386 446.239 52.3472 446.446 52.3645C447.687 56.3978 449.384 58.5869 451.539 58.9316C452.418 58.7937 453.09 58.4748 453.556 57.975C454.038 57.4579 454.28 56.8805 454.28 56.2427C454.28 55.7773 454.15 55.3464 453.892 54.95C453.633 54.5363 453.288 54.1571 452.858 53.8123C452.427 53.4676 451.918 53.1487 451.332 52.8557C450.763 52.5627 450.16 52.2783 449.522 52.0025C448.885 51.7095 448.238 51.4337 447.583 51.1752C446.928 50.8994 446.299 50.615 445.696 50.3219C445.058 50.0289 444.455 49.6756 443.886 49.2619C443.317 48.831 442.817 48.3484 442.386 47.814C441.955 47.2624 441.611 46.6592 441.352 46.0042C441.111 45.3492 440.99 44.6425 440.99 43.8841C440.99 43.074 441.128 42.2294 441.404 41.3503C441.68 40.4712 442.154 39.6697 442.826 38.9458C443.498 38.2219 444.403 37.6272 445.541 37.1618C446.678 36.6792 448.109 36.4379 449.833 36.4379C451.746 36.4379 453.159 36.5413 454.073 36.7481L455.029 36.4379H456.787C457.012 37.903 457.279 39.2733 457.589 40.5488C457.916 41.8243 458.278 43.0136 458.675 44.1168C457.934 44.8579 457.037 45.2285 455.986 45.2285C455.4 44.5391 454.857 43.9186 454.357 43.367C453.857 42.7982 453.375 42.3069 452.909 41.8933C452.461 41.4796 452.013 41.1435 451.565 40.8849C451.134 40.6264 450.686 40.4454 450.22 40.342C449.083 40.5316 448.514 41.0487 448.514 41.8933C448.514 42.5655 448.807 43.1515 449.393 43.6514C449.979 44.1512 450.712 44.608 451.591 45.0217C452.47 45.4354 453.426 45.8318 454.461 46.211C455.512 46.573 456.503 46.9608 457.434 47.3745C458.106 47.6675 458.735 48.0467 459.321 48.5121C459.925 48.9775 460.45 49.5204 460.898 50.141C461.347 50.7442 461.7 51.4251 461.958 52.1835C462.217 52.9247 462.346 53.7262 462.346 54.588C462.346 55.8635 462.019 57.0097 461.364 58.0267C460.726 59.0436 459.873 59.9055 458.804 60.6122C457.753 61.3189 456.546 61.8618 455.184 62.241C453.823 62.6202 452.435 62.8098 451.022 62.8098C448.591 62.8098 446.558 62.31 444.92 61.3103ZM450.841 61.7498C452.995 61.7498 454.84 61.112 456.374 59.8365C457.908 58.561 458.675 57.1304 458.675 55.5446C458.675 53.9933 458.201 52.6575 457.253 51.5371C456.305 50.3995 455.159 49.5204 453.814 48.8999C452.47 48.2794 451.117 47.7106 449.755 47.1935C448.393 46.6592 447.238 46.0387 446.29 45.332C445.342 44.6253 444.868 43.7979 444.868 42.8499C444.868 41.6433 445.317 40.7298 446.213 40.1093C447.109 39.4888 448.161 39.1785 449.367 39.1785C450.643 39.1785 451.78 39.5749 452.78 40.3678C453.78 41.1607 455.004 42.4276 456.451 44.1685C456.917 44.1685 457.253 44.0564 457.46 43.8324C456.822 42.0053 455.874 40.4971 454.616 39.3078C453.375 38.1012 451.78 37.4979 449.833 37.4979C447.057 37.4979 445.067 38.1615 443.86 39.4888C442.653 40.7987 442.05 42.2638 442.05 43.8841C442.05 45.263 442.507 46.4437 443.421 47.4262C444.351 48.3914 445.463 49.1412 446.756 49.6756C448.066 50.1927 449.367 50.7098 450.66 51.2269C451.953 51.744 453.056 52.4162 453.969 53.2435C454.883 54.0709 455.34 55.0706 455.34 56.2427C455.34 57.2252 454.917 58.1043 454.073 58.8799C453.228 59.6555 452.047 60.0434 450.531 60.0434C448.704 60.0434 447.29 59.4659 446.29 58.3111C445.308 57.139 444.481 55.5101 443.808 53.4245C443.205 53.4245 442.8 53.4762 442.593 53.5797C442.593 54.8207 442.533 56.2427 442.412 57.8457C442.292 59.4487 442.171 60.3967 442.05 60.6897C442.171 60.8621 442.335 61.0172 442.541 61.1551C443.248 60.6553 443.791 60.1296 444.17 59.578C445.687 60.4226 446.868 60.9914 447.712 61.2844C448.574 61.5947 449.617 61.7498 450.841 61.7498ZM472.602 61.3103C471.775 61.586 470.965 61.9222 470.172 62.3186C469.362 61.8187 468.827 61.3103 468.569 60.7932C468.603 60.6897 468.655 60.3364 468.724 59.7331C468.793 59.1298 468.862 58.4231 468.931 57.613C469.017 56.8029 469.086 55.9669 469.137 55.1051C469.189 54.2433 469.215 53.5107 469.215 52.9074C470.025 52.5282 471.275 52.3386 472.964 52.3386C473.154 52.3386 473.343 52.3386 473.533 52.3386C473.722 52.3386 473.921 52.3472 474.127 52.3645C475.369 56.3978 477.066 58.5869 479.221 58.9316C480.1 58.7937 480.772 58.4748 481.238 57.975C481.72 57.4579 481.962 56.8805 481.962 56.2427C481.962 55.7773 481.832 55.3464 481.574 54.95C481.315 54.5363 480.97 54.1571 480.539 53.8123C480.109 53.4676 479.6 53.1487 479.014 52.8557C478.445 52.5627 477.842 52.2783 477.204 52.0025C476.566 51.7095 475.92 51.4337 475.265 51.1752C474.61 50.8994 473.981 50.615 473.378 50.3219C472.74 50.0289 472.137 49.6756 471.568 49.2619C470.999 48.831 470.499 48.3484 470.068 47.814C469.637 47.2624 469.293 46.6592 469.034 46.0042C468.793 45.3492 468.672 44.6425 468.672 43.8841C468.672 43.074 468.81 42.2294 469.086 41.3503C469.362 40.4712 469.836 39.6697 470.508 38.9458C471.18 38.2219 472.085 37.6272 473.223 37.1618C474.36 36.6792 475.791 36.4379 477.514 36.4379C479.428 36.4379 480.841 36.5413 481.755 36.7481L482.711 36.4379H484.469C484.694 37.903 484.961 39.2733 485.271 40.5488C485.598 41.8243 485.96 43.0136 486.357 44.1168C485.616 44.8579 484.719 45.2285 483.668 45.2285C483.082 44.5391 482.539 43.9186 482.039 43.367C481.539 42.7982 481.057 42.3069 480.591 41.8933C480.143 41.4796 479.695 41.1435 479.247 40.8849C478.816 40.6264 478.368 40.4454 477.902 40.342C476.765 40.5316 476.196 41.0487 476.196 41.8933C476.196 42.5655 476.489 43.1515 477.075 43.6514C477.661 44.1512 478.394 44.608 479.273 45.0217C480.152 45.4354 481.108 45.8318 482.142 46.211C483.194 46.573 484.185 46.9608 485.116 47.3745C485.788 47.6675 486.417 48.0467 487.003 48.5121C487.606 48.9775 488.132 49.5204 488.58 50.141C489.029 50.7442 489.382 51.4251 489.64 52.1835C489.899 52.9247 490.028 53.7262 490.028 54.588C490.028 55.8635 489.701 57.0097 489.046 58.0267C488.408 59.0436 487.555 59.9055 486.486 60.6122C485.435 61.3189 484.228 61.8618 482.866 62.241C481.505 62.6202 480.117 62.8098 478.704 62.8098C476.273 62.8098 474.24 62.31 472.602 61.3103ZM478.523 61.7498C480.677 61.7498 482.522 61.112 484.056 59.8365C485.59 58.561 486.357 57.1304 486.357 55.5446C486.357 53.9933 485.883 52.6575 484.935 51.5371C483.987 50.3995 482.841 49.5204 481.496 48.8999C480.152 48.2794 478.799 47.7106 477.437 47.1935C476.075 46.6592 474.92 46.0387 473.972 45.332C473.024 44.6253 472.55 43.7979 472.55 42.8499C472.55 41.6433 472.998 40.7298 473.895 40.1093C474.791 39.4888 475.843 39.1785 477.049 39.1785C478.325 39.1785 479.462 39.5749 480.462 40.3678C481.462 41.1607 482.685 42.4276 484.133 44.1685C484.599 44.1685 484.935 44.0564 485.142 43.8324C484.504 42.0053 483.556 40.4971 482.298 39.3078C481.057 38.1012 479.462 37.4979 477.514 37.4979C474.739 37.4979 472.749 38.1615 471.542 39.4888C470.335 40.7987 469.732 42.2638 469.732 43.8841C469.732 45.263 470.189 46.4437 471.102 47.4262C472.033 48.3914 473.145 49.1412 474.438 49.6756C475.748 50.1927 477.049 50.7098 478.342 51.2269C479.635 51.744 480.738 52.4162 481.651 53.2435C482.565 54.0709 483.022 55.0706 483.022 56.2427C483.022 57.2252 482.599 58.1043 481.755 58.8799C480.91 59.6555 479.729 60.0434 478.213 60.0434C476.385 60.0434 474.972 59.4659 473.972 58.3111C472.99 57.139 472.163 55.5101 471.49 53.4245C470.887 53.4245 470.482 53.4762 470.275 53.5797C470.275 54.8207 470.215 56.2427 470.094 57.8457C469.973 59.4487 469.853 60.3967 469.732 60.6897C469.853 60.8621 470.017 61.0172 470.223 61.1551C470.93 60.6553 471.473 60.1296 471.852 59.578C473.369 60.4226 474.55 60.9914 475.394 61.2844C476.256 61.5947 477.299 61.7498 478.523 61.7498ZM508.325 39.1785C509.704 39.1785 510.704 39.6266 511.324 40.5229C511.945 41.402 512.255 42.5052 512.255 43.8324C512.255 44.3322 512.169 44.901 511.996 45.5388H501.913C502.447 43.3842 503.309 41.7898 504.498 40.7556C505.705 39.7042 506.98 39.1785 508.325 39.1785ZM501.654 47.2969H515.745C516.021 46.4351 516.159 45.5474 516.159 44.6339C516.159 42.6172 515.581 40.928 514.427 39.5663C513.289 38.1874 511.471 37.4979 508.971 37.4979C505.714 37.4979 502.973 38.6786 500.749 41.04C498.526 43.4015 497.414 46.4006 497.414 50.0375C497.414 53.9158 498.474 56.8374 500.594 58.8023C502.714 60.7673 505.205 61.7498 508.066 61.7498C510.186 61.7498 512.151 61.181 513.961 60.0434C515.788 58.8885 517.124 57.1562 517.969 54.8465C517.727 54.5708 517.391 54.3812 516.96 54.2777C516.891 54.3812 516.685 54.6656 516.34 55.1309C516.012 55.5791 515.771 55.9066 515.616 56.1134C515.461 56.303 515.176 56.5874 514.763 56.9666C514.366 57.3286 513.978 57.5958 513.599 57.7681C513.237 57.9405 512.772 58.1129 512.203 58.2852C511.634 58.4404 511.014 58.5179 510.342 58.5179C507.687 58.5179 505.576 57.7337 504.007 56.1651C502.439 54.5794 501.62 52.4507 501.551 49.779C501.551 49.1757 501.585 48.3484 501.654 47.2969ZM516.547 53.0626C517.633 53.3039 518.512 53.8468 519.184 54.6914C518.201 57.3803 516.685 59.4056 514.633 60.7673C512.582 62.129 510.393 62.8098 508.066 62.8098C504.895 62.8098 502.146 61.7412 499.819 59.6038C497.509 57.4665 496.354 54.2777 496.354 50.0375C496.354 46.1938 497.535 42.9705 499.896 40.3678C502.275 37.7479 505.636 36.4379 509.98 36.4379C516.547 36.4379 519.83 39.1699 519.83 44.6339C519.83 45.7025 519.58 46.9436 519.08 48.357H505.196V50.0375C505.283 52.1232 505.851 53.821 506.903 55.1309C507.954 56.4237 509.402 57.1821 511.246 57.4062C512.332 57.3028 513.229 56.9322 513.935 56.2944C514.642 55.6567 515.513 54.5794 516.547 53.0626ZM511.195 43.8324C511.195 41.9363 510.557 40.7901 509.281 40.3937C507.765 40.8591 506.636 42.2207 505.895 44.4787H511.143C511.143 44.4098 511.152 44.3064 511.169 44.1685C511.186 44.0306 511.195 43.9186 511.195 43.8324ZM543.401 59.8107C543.194 60.2071 543.194 60.6294 543.401 61.0776C547.883 60.9741 552.373 60.9741 556.872 61.0776C557.113 60.6639 557.113 60.2416 556.872 59.8107C552.666 59.6038 550.546 58.7765 550.511 57.3286L550.253 44.3236C550.167 41.9622 549.779 40.2385 549.089 39.1526C548.417 38.0495 547.228 37.4979 545.521 37.4979C542.66 37.4979 539.256 39.4715 535.309 43.4187V38.2736C535.171 37.9978 534.869 37.7737 534.404 37.6013C532.008 38.7217 529.517 39.4284 526.932 39.7214C526.828 40.1351 526.828 40.5402 526.932 40.9366C528.914 41.04 530.379 41.3934 531.327 41.9967C531.517 47.1504 531.517 52.2611 531.327 57.3286C531.293 58.6041 529.81 59.4315 526.88 59.8107C526.673 60.2071 526.673 60.6294 526.88 61.0776C531.362 60.9052 535.869 60.9052 540.402 61.0776C540.609 60.6294 540.609 60.2071 540.402 59.8107C537.179 59.4659 535.55 58.6386 535.516 57.3286C535.378 53.7434 535.309 49.6583 535.309 45.0734C538.773 42.0225 541.488 40.4971 543.453 40.4971C545.332 40.4971 546.271 42.057 546.271 45.1768L546.219 57.3286C546.219 58.1732 545.961 58.7679 545.444 59.1126C544.927 59.4401 544.246 59.6728 543.401 59.8107ZM542.574 61.9825C542.143 60.9655 542.143 59.9227 542.574 58.854C543.126 58.854 543.694 58.7075 544.28 58.4145C544.866 58.1043 545.159 57.7423 545.159 57.3286L545.211 45.1768C545.211 43.298 544.841 42.1518 544.099 41.7381C542.824 42.0484 541.109 42.9792 538.954 44.5304C538.954 49.2705 539.023 53.5193 539.161 57.2769C539.247 58.1904 539.937 58.7162 541.229 58.854C541.66 59.9227 541.66 60.9655 541.229 61.9825C536.179 61.8101 531.103 61.8101 526.001 61.9825C525.57 60.9655 525.57 59.9227 526.001 58.854C528.811 58.4748 530.233 57.9491 530.267 57.2769C530.457 52.4162 530.457 47.5296 530.267 42.6172C529.112 42.2725 527.69 42.0484 526.001 41.945C525.605 40.9108 525.605 39.8162 526.001 38.6614C528.604 38.5235 531.534 37.7479 534.792 36.3345C536.653 36.4723 538.041 37.0325 538.954 38.015V38.8682C541.402 37.248 544.211 36.4379 547.383 36.4379C549.71 36.4379 551.365 37.0756 552.347 38.3511C553.347 39.6094 553.864 41.6002 553.898 44.3236C553.967 51.1665 554.054 55.5015 554.157 57.3286C554.191 58.0353 555.407 58.5438 557.802 58.854C558.199 59.9917 558.164 61.0345 557.699 61.9825C552.649 61.8791 547.607 61.8791 542.574 61.9825ZM568.808 46.0042C568.808 43.6083 569.256 41.876 570.153 40.8073C571.066 39.7214 572.212 39.1785 573.591 39.1785C574.608 39.1785 575.548 39.6697 576.409 40.6522C577.288 41.6175 577.728 43.2463 577.728 45.5388C577.728 50.4512 576.384 52.9074 573.695 52.9074C570.437 52.9074 568.808 50.6063 568.808 46.0042ZM568.705 67.8774C568.705 65.9814 569.799 64.4473 571.988 63.2752C573.367 63.1373 575.487 63.0684 578.348 63.0684C580.4 63.0684 581.77 63.4476 582.459 64.206C583.149 64.9644 583.494 66.0676 583.494 67.5154C583.494 68.7565 582.83 70.0406 581.503 71.3678C580.176 72.7123 578.193 73.3845 575.556 73.3845C573.178 73.3845 571.437 72.8415 570.333 71.7556C569.248 70.687 568.705 69.3942 568.705 67.8774ZM585.329 38.6097C585.795 38.6442 586.027 38.8855 586.027 39.3336C586.027 39.9024 585.674 40.2385 584.967 40.342C584.364 40.4109 583.623 40.273 582.744 39.9283C582.278 39.7559 581.684 39.5146 580.96 39.2043C580.236 38.8769 579.727 38.6528 579.434 38.5321C579.141 38.3942 578.736 38.2391 578.219 38.0667C577.702 37.8944 577.254 37.7823 576.875 37.7306C576.513 37.6789 576.056 37.6272 575.504 37.5755C574.97 37.5238 574.367 37.4979 573.695 37.4979C571.075 37.4979 568.851 38.377 567.024 40.1351C565.214 41.8933 564.309 43.8324 564.309 45.9525C564.309 49.3825 565.869 51.9594 568.989 53.6831C566.197 55.7687 564.801 57.6389 564.801 59.2936C564.801 61.3792 566.455 62.6719 569.765 63.1718C566.386 64.9989 564.697 67.1879 564.697 69.7389C564.697 71.3937 565.473 72.7726 567.024 73.8757C568.575 74.9961 570.851 75.5563 573.85 75.5563C577.418 75.5563 580.434 74.3756 582.899 72.0142C585.381 69.6528 586.622 67.2483 586.622 64.8007C586.622 60.8535 584.218 58.8799 579.409 58.8799C578.874 58.8799 578.168 58.8971 577.288 58.9316C576.409 58.9661 575.806 58.9833 575.479 58.9833C572.841 58.9833 570.98 58.811 569.894 58.4662C568.825 58.1043 568.291 57.5354 568.291 56.7598C568.291 55.7773 569.049 54.9672 570.566 54.3294C571.618 54.5018 572.729 54.588 573.901 54.588C576.228 54.588 578.193 53.7779 579.796 52.1576C581.417 50.5374 582.227 48.3484 582.227 45.5905C582.227 43.4015 581.813 41.7467 580.986 40.6264L581.115 40.4971C581.391 40.6867 581.761 40.9539 582.227 41.2986C582.709 41.6261 583.071 41.8588 583.313 41.9967C583.571 42.1346 583.899 42.2725 584.295 42.4104C584.709 42.5482 585.114 42.6172 585.51 42.6172C586.165 42.6172 586.717 42.3673 587.165 41.8674C587.613 41.3503 587.837 40.7384 587.837 40.0317C587.837 39.2905 587.622 38.67 587.191 38.1702C586.777 37.6531 586.157 37.3945 585.329 37.3945C585.088 37.8427 585.088 38.2477 585.329 38.6097ZM585.665 43.6772C585.803 44.246 585.872 44.8838 585.872 45.5905C585.872 48.6586 584.89 51.1062 582.925 52.9333C580.977 54.7431 578.59 55.648 575.763 55.648H572.531C572.031 56.2168 571.885 56.7253 572.092 57.1735C572.316 57.6044 572.729 57.8199 573.333 57.8199H581.994C587.51 57.8199 590.268 60.1468 590.268 64.8007C590.268 66.0417 589.897 67.3431 589.156 68.7048C588.415 70.0664 587.38 71.3333 586.053 72.5054C584.726 73.6947 582.985 74.6772 580.831 75.4529C578.676 76.2285 576.349 76.6163 573.85 76.6163C570.489 76.6163 567.946 75.9613 566.223 74.6514C564.499 73.3586 563.637 71.7212 563.637 69.7389C563.637 67.5499 564.783 65.516 567.076 63.6372C564.852 62.8616 563.74 61.4137 563.74 59.2936C563.74 57.4665 564.869 55.6136 567.127 53.7348C564.542 51.8732 563.249 49.2791 563.249 45.9525C563.249 43.5911 564.266 41.4192 566.3 39.437C568.334 37.4376 570.799 36.4379 573.695 36.4379C575.849 36.4379 577.435 36.5499 578.452 36.774C579.486 36.9981 580.779 37.429 582.33 38.0667C583.106 36.9119 584.106 36.3345 585.329 36.3345C586.536 36.3345 587.432 36.6878 588.018 37.3945C588.604 38.1012 588.897 38.9803 588.897 40.0317C588.897 41.0487 588.604 41.9105 588.018 42.6172C587.432 43.3239 586.648 43.6772 585.665 43.6772ZM572.376 67.8774C572.376 68.9805 572.695 69.9458 573.333 70.7731C573.988 71.6005 575.039 72.1004 576.487 72.2727C578.469 72.1004 579.952 71.4885 580.934 70.437C581.934 69.4028 582.434 68.429 582.434 67.5154C582.434 66.4468 582.192 65.6108 581.71 65.0075C581.227 64.4215 580.305 64.1284 578.943 64.1284C577.306 64.1284 575.694 64.1974 574.108 64.3353C572.953 65.3178 572.376 66.4985 572.376 67.8774ZM572.479 46.0042C572.479 49.2619 573.186 51.1579 574.6 51.6922C575.978 51.1579 576.668 49.1068 576.668 45.5388C576.668 42.712 575.944 41.0142 574.496 40.4454C573.152 41.0142 572.479 42.8671 572.479 46.0042ZM606.935 39.1785C608.314 39.1785 609.314 39.6266 609.934 40.5229C610.555 41.402 610.865 42.5052 610.865 43.8324C610.865 44.3322 610.779 44.901 610.607 45.5388H600.523C601.058 43.3842 601.919 41.7898 603.109 40.7556C604.315 39.7042 605.591 39.1785 606.935 39.1785ZM600.265 47.2969H614.356C614.631 46.4351 614.769 45.5474 614.769 44.6339C614.769 42.6172 614.192 40.928 613.037 39.5663C611.899 38.1874 610.081 37.4979 607.582 37.4979C604.324 37.4979 601.583 38.6786 599.36 41.04C597.136 43.4015 596.025 46.4006 596.025 50.0375C596.025 53.9158 597.085 56.8374 599.205 58.8023C601.325 60.7673 603.816 61.7498 606.677 61.7498C608.797 61.7498 610.762 61.181 612.572 60.0434C614.399 58.8885 615.735 57.1562 616.579 54.8465C616.338 54.5708 616.002 54.3812 615.571 54.2777C615.502 54.3812 615.295 54.6656 614.95 55.1309C614.623 55.5791 614.382 55.9066 614.226 56.1134C614.071 56.303 613.787 56.5874 613.373 56.9666C612.977 57.3286 612.589 57.5958 612.21 57.7681C611.848 57.9405 611.382 58.1129 610.814 58.2852C610.245 58.4404 609.624 58.5179 608.952 58.5179C606.298 58.5179 604.186 57.7337 602.618 56.1651C601.049 54.5794 600.23 52.4507 600.161 49.779C600.161 49.1757 600.196 48.3484 600.265 47.2969ZM615.157 53.0626C616.243 53.3039 617.122 53.8468 617.794 54.6914C616.812 57.3803 615.295 59.4056 613.244 60.7673C611.193 62.129 609.004 62.8098 606.677 62.8098C603.505 62.8098 600.756 61.7412 598.429 59.6038C596.119 57.4665 594.965 54.2777 594.965 50.0375C594.965 46.1938 596.145 42.9705 598.507 40.3678C600.885 37.7479 604.246 36.4379 608.59 36.4379C615.157 36.4379 618.441 39.1699 618.441 44.6339C618.441 45.7025 618.191 46.9436 617.691 48.357H603.807V50.0375C603.893 52.1232 604.462 53.821 605.513 55.1309C606.565 56.4237 608.013 57.1821 609.857 57.4062C610.943 57.3028 611.839 56.9322 612.546 56.2944C613.253 55.6567 614.123 54.5794 615.157 53.0626ZM609.805 43.8324C609.805 41.9363 609.167 40.7901 607.892 40.3937C606.375 40.8591 605.246 42.2207 604.505 44.4787H609.754C609.754 44.4098 609.762 44.3064 609.779 44.1685C609.797 44.0306 609.805 43.9186 609.805 43.8324ZM634.229 46.4437C634.66 44.8579 635.548 43.3153 636.893 41.8157C638.237 40.3161 639.607 39.5663 641.003 39.5663C642.641 39.5663 643.46 40.092 643.46 41.1435C643.46 42.0915 643.012 42.6948 642.115 42.9533C641.874 43.298 641.874 43.7031 642.115 44.1685C643.046 44.1685 643.804 43.8841 644.39 43.3153C644.994 42.7465 645.295 41.9536 645.295 40.9366C645.295 39.868 644.968 39.032 644.313 38.4287C643.675 37.8082 642.839 37.4979 641.805 37.4979C640.46 37.4979 639.107 38.0409 637.746 39.1268C636.401 40.1955 635.229 41.3934 634.229 42.7206V38.2736C634.092 37.9978 633.799 37.7737 633.35 37.6013C631.041 38.6872 628.369 39.3939 625.335 39.7214C625.232 40.1351 625.232 40.5402 625.335 40.9366C627.662 41.04 629.326 41.3934 630.325 41.9967C630.463 48.4259 630.446 53.5797 630.274 57.4579C630.239 58.7334 628.774 59.5607 625.878 59.94C625.62 60.4053 625.62 60.8104 625.878 61.1551C630.394 60.9483 635.315 60.9483 640.641 61.1551C640.883 60.8104 640.883 60.4053 640.641 59.94C636.556 59.5607 634.497 58.7334 634.462 57.4579C634.307 53.9589 634.229 50.2875 634.229 46.4437ZM638.108 57.4062C638.142 58.0784 639.306 58.6041 641.598 58.9833C642.167 60.1209 642.132 61.2155 641.495 62.2669C634.186 62.0256 628.662 61.9739 624.922 62.1118C624.284 61.0948 624.249 60.052 624.818 58.9833C627.714 58.6041 629.179 58.0784 629.214 57.4062C629.42 52.4937 629.438 47.5641 629.265 42.6172C628.128 42.2725 626.559 42.0484 624.56 41.945C624.163 40.9108 624.163 39.8162 624.56 38.6614C627.438 38.489 630.489 37.7134 633.712 36.3345C635.574 36.5413 636.97 37.1015 637.901 38.015C639.349 36.9636 640.65 36.4379 641.805 36.4379C643.149 36.4379 644.244 36.8343 645.089 37.6272C645.933 38.4201 646.355 39.5232 646.355 40.9366C646.355 42.2811 645.959 43.3325 645.166 44.0909C644.373 44.8493 643.356 45.2285 642.115 45.2285C640.96 45.2285 639.995 44.8407 639.219 44.0651C638.513 45.0131 638.073 45.8749 637.901 46.6505C637.901 50.3909 637.97 53.9761 638.108 57.4062Z" fill="black"/>
<path d="M177.508 82.0157H174.712V81.7146H175.142C175.357 81.7146 175.493 81.6752 175.551 81.5963C175.608 81.5102 175.637 81.3919 175.637 81.2413V75.4333C175.637 75.3257 175.63 75.2433 175.615 75.1859C175.601 75.1214 175.554 75.064 175.476 75.0138C175.404 74.9636 175.293 74.9385 175.142 74.9385H174.497C174.117 74.9385 173.823 75.0569 173.615 75.2935C173.414 75.5229 173.306 75.7703 173.292 76.0356L172.991 75.9711L173.099 74.4868H179.143L179.251 75.9711L178.95 76.0356C178.935 75.7775 178.824 75.5301 178.616 75.2935C178.408 75.0569 178.118 74.9385 177.745 74.9385H177.1C176.942 74.9385 176.824 74.9672 176.745 75.0246C176.666 75.0748 176.619 75.1286 176.605 75.1859C176.591 75.2433 176.583 75.3257 176.583 75.4333V81.2413C176.583 81.3417 176.591 81.4206 176.605 81.478C176.619 81.5353 176.666 81.5891 176.745 81.6393C176.824 81.6895 176.942 81.7146 177.1 81.7146H177.508V82.0157ZM186.896 82.0157H185.025V81.7146H185.089C185.161 81.7146 185.222 81.6787 185.272 81.607C185.322 81.5282 185.348 81.4278 185.348 81.3059V78.5739C185.348 77.9143 185.061 77.5844 184.487 77.5844C184.078 77.5844 183.716 77.7995 183.401 78.2298C183.092 78.66 182.938 78.9827 182.938 79.1978V81.2413C182.938 81.3489 182.945 81.4314 182.96 81.4887C182.996 81.6393 183.146 81.7146 183.411 81.7146H183.627V82.0157H181.454V81.7146H181.605C181.798 81.7146 181.924 81.6823 181.981 81.6178C182.046 81.5461 182.078 81.4421 182.078 81.3059V74.917C182.078 74.7808 182.031 74.684 181.938 74.6266C181.845 74.5621 181.683 74.5298 181.454 74.5298V74.2287C181.605 74.2287 181.827 74.1892 182.121 74.1104C182.415 74.0315 182.623 73.949 182.745 73.863L182.938 73.82V78.2728C183.311 77.3263 183.985 76.853 184.96 76.853C185.218 76.853 185.437 76.9104 185.616 77.0251C185.803 77.1399 185.935 77.2869 186.014 77.4661C186.158 77.7673 186.229 78.072 186.229 78.3803V81.2844C186.229 81.3848 186.237 81.46 186.251 81.5102C186.28 81.6465 186.423 81.7146 186.681 81.7146H186.896V82.0157ZM193.547 80.7036L193.741 80.8972C193.282 81.7433 192.457 82.1663 191.267 82.1663C190.715 82.1663 190.242 81.9225 189.847 81.4349C189.46 80.9474 189.267 80.4024 189.267 79.8001C189.267 78.9898 189.528 78.2979 190.052 77.7243C190.582 77.1434 191.224 76.853 191.977 76.853C192.336 76.853 192.651 76.957 192.924 77.165C193.411 77.545 193.655 78.0362 193.655 78.6385C193.655 78.7245 193.637 78.8285 193.601 78.9504C193.572 79.0723 193.547 79.1332 193.526 79.1332L190.063 79.2408C190.063 79.8001 190.238 80.3164 190.59 80.7896C190.941 81.2629 191.368 81.4995 191.87 81.4995C192.228 81.4995 192.558 81.4278 192.859 81.2844C193.167 81.1338 193.397 80.9402 193.547 80.7036ZM190.17 78.8106L192.687 78.703C192.701 78.703 192.708 78.6385 192.708 78.5094C192.708 78.1366 192.597 77.8712 192.375 77.7135C192.16 77.5557 191.859 77.4769 191.472 77.4769C191.092 77.4769 190.78 77.5952 190.536 77.8318C190.292 78.0684 190.17 78.3947 190.17 78.8106ZM202.807 82.1663C202.176 82.1663 201.649 81.9297 201.226 81.4565C200.803 80.9832 200.592 80.4311 200.592 79.8001C200.592 78.997 200.893 78.3051 201.495 77.7243C202.105 77.1434 202.746 76.853 203.42 76.853C204.094 76.853 204.636 77.0933 205.044 77.5737C205.46 78.0469 205.668 78.5955 205.668 79.2193C205.668 80.0009 205.378 80.6892 204.797 81.2844C204.223 81.8723 203.56 82.1663 202.807 82.1663ZM201.345 79.2193C201.345 79.8861 201.545 80.4418 201.947 80.8864C202.356 81.3238 202.811 81.5425 203.313 81.5425C203.822 81.5425 204.22 81.3525 204.507 80.9725C204.793 80.5924 204.937 80.2016 204.937 79.8001C204.937 79.1906 204.747 78.66 204.367 78.2083C203.994 77.7493 203.539 77.5199 203.001 77.5199C202.463 77.5199 202.051 77.7027 201.764 78.0684C201.484 78.427 201.345 78.8106 201.345 79.2193ZM211.052 73.7124C211.325 73.7124 211.633 73.7984 211.977 73.9705L211.891 74.9385L211.59 74.917C211.59 74.7736 211.518 74.6087 211.375 74.4223C211.232 74.2358 211.045 74.1426 210.816 74.1426C210.428 74.1426 210.138 74.3326 209.944 74.7127C209.751 75.0927 209.654 75.7058 209.654 76.5519C209.654 76.8387 209.797 76.9821 210.084 76.9821H211.138V77.4339H209.676V81.2198C209.676 81.3346 209.679 81.4206 209.686 81.478C209.701 81.5282 209.744 81.5819 209.815 81.6393C209.887 81.6895 209.998 81.7146 210.149 81.7146H210.493V82.0157H208.17V81.7146H208.299C208.457 81.7146 208.571 81.6895 208.643 81.6393C208.722 81.5819 208.765 81.5282 208.772 81.478C208.786 81.4206 208.794 81.3346 208.794 81.2198V77.8211C208.794 77.6848 208.769 77.588 208.718 77.5307C208.668 77.4661 208.564 77.4339 208.406 77.4339H208.17V76.9821H208.794V76.5089C208.794 74.6446 209.547 73.7124 211.052 73.7124ZM216.473 73.7124C216.746 73.7124 217.054 73.7984 217.398 73.9705L217.312 74.9385L217.011 74.917C217.011 74.7736 216.939 74.6087 216.796 74.4223C216.652 74.2358 216.466 74.1426 216.237 74.1426C215.849 74.1426 215.559 74.3326 215.365 74.7127C215.172 75.0927 215.075 75.7058 215.075 76.5519C215.075 76.8387 215.218 76.9821 215.505 76.9821H216.559V77.4339H215.096V81.2198C215.096 81.3346 215.1 81.4206 215.107 81.478C215.122 81.5282 215.165 81.5819 215.236 81.6393C215.308 81.6895 215.419 81.7146 215.57 81.7146H215.914V82.0157H213.591V81.7146H213.72C213.878 81.7146 213.992 81.6895 214.064 81.6393C214.143 81.5819 214.186 81.5282 214.193 81.478C214.207 81.4206 214.215 81.3346 214.215 81.2198V77.8211C214.215 77.6848 214.189 77.588 214.139 77.5307C214.089 77.4661 213.985 77.4339 213.827 77.4339H213.591V76.9821H214.215V76.5089C214.215 74.6446 214.967 73.7124 216.473 73.7124ZM219.949 74.5298C220.114 74.5298 220.239 74.5836 220.325 74.6912C220.418 74.7987 220.465 74.9385 220.465 75.1106C220.465 75.2756 220.397 75.4154 220.261 75.5301C220.124 75.6377 219.974 75.6914 219.809 75.6914C219.651 75.6914 219.526 75.6377 219.432 75.5301C219.346 75.4225 219.303 75.2899 219.303 75.1321C219.303 74.9672 219.371 74.8274 219.508 74.7127C219.644 74.5908 219.791 74.5298 219.949 74.5298ZM221.132 82.0157H218.959V81.7146H219.131C219.325 81.7146 219.447 81.6823 219.497 81.6178C219.554 81.5533 219.583 81.4493 219.583 81.3059V78.0792C219.583 77.943 219.536 77.8461 219.443 77.7888C219.357 77.7243 219.196 77.692 218.959 77.692V77.3908C219.102 77.3908 219.318 77.3406 219.604 77.2402C219.898 77.1327 220.121 77.0323 220.271 76.9391L220.465 76.8961V81.2413C220.465 81.3561 220.468 81.4385 220.476 81.4887C220.49 81.5389 220.533 81.5891 220.605 81.6393C220.676 81.6895 220.788 81.7146 220.938 81.7146H221.132V82.0157ZM227.827 80.7036L228.021 80.8972C227.562 81.7433 226.737 82.1663 225.547 82.1663C224.995 82.1663 224.521 81.9225 224.127 81.4349C223.74 80.9474 223.546 80.4024 223.546 79.8001C223.546 79.4129 223.639 79.0257 223.826 78.6385C224.019 78.2441 224.217 77.9322 224.417 77.7027C224.625 77.4661 224.905 77.2653 225.256 77.1004C225.615 76.9355 225.991 76.853 226.386 76.853C226.78 76.853 227.189 76.9319 227.612 77.0897L227.547 78.0792H227.225C227.225 77.8928 227.106 77.7386 226.87 77.6167C226.64 77.4948 226.382 77.4339 226.095 77.4339C225.808 77.4339 225.55 77.4805 225.321 77.5737C225.091 77.6597 224.916 77.7673 224.794 77.8963C224.679 78.0254 224.586 78.1796 224.514 78.3588C224.399 78.6241 224.342 78.9181 224.342 79.2408C224.342 79.8001 224.518 80.3164 224.869 80.7896C225.22 81.2629 225.647 81.4995 226.149 81.4995C226.508 81.4995 226.837 81.4278 227.139 81.2844C227.447 81.1338 227.676 80.9402 227.827 80.7036ZM231.484 74.5298C231.649 74.5298 231.774 74.5836 231.86 74.6912C231.953 74.7987 232 74.9385 232 75.1106C232 75.2756 231.932 75.4154 231.796 75.5301C231.659 75.6377 231.509 75.6914 231.344 75.6914C231.186 75.6914 231.061 75.6377 230.967 75.5301C230.881 75.4225 230.838 75.2899 230.838 75.1321C230.838 74.9672 230.906 74.8274 231.043 74.7127C231.179 74.5908 231.326 74.5298 231.484 74.5298ZM232.667 82.0157H230.494V81.7146H230.666C230.86 81.7146 230.982 81.6823 231.032 81.6178C231.089 81.5533 231.118 81.4493 231.118 81.3059V78.0792C231.118 77.943 231.071 77.8461 230.978 77.7888C230.892 77.7243 230.731 77.692 230.494 77.692V77.3908C230.638 77.3908 230.853 77.3406 231.139 77.2402C231.433 77.1327 231.656 77.0323 231.806 76.9391L232 76.8961V81.2413C232 81.3561 232.003 81.4385 232.011 81.4887C232.025 81.5389 232.068 81.5891 232.14 81.6393C232.211 81.6895 232.323 81.7146 232.473 81.7146H232.667V82.0157ZM239.9 82.0157H238.351V81.1553C237.992 81.5425 237.695 81.8078 237.458 81.9512C237.222 82.0946 236.899 82.1663 236.49 82.1663C236.089 82.1663 235.773 82.0731 235.544 81.8867C235.321 81.6931 235.21 81.4242 235.21 81.08C235.21 80.7358 235.357 80.4024 235.651 80.0797C235.952 79.7499 236.3 79.5025 236.695 79.3376C237.096 79.1655 237.447 79.0364 237.749 78.9504C238.05 78.8572 238.251 78.8106 238.351 78.8106V78.5739C238.351 77.8999 238.071 77.5629 237.512 77.5629C237.125 77.5629 236.763 77.6454 236.426 77.8103C236.096 77.9752 235.848 78.1867 235.684 78.4449L235.468 78.2513C235.949 77.3191 236.781 76.853 237.964 76.853C238.265 76.853 238.512 76.9355 238.706 77.1004C238.907 77.2582 239.039 77.4446 239.104 77.6597C239.176 77.8748 239.211 78.115 239.211 78.3803V81.2844C239.211 81.3776 239.219 81.4493 239.233 81.4995C239.247 81.5497 239.29 81.5999 239.362 81.6501C239.441 81.6931 239.556 81.7146 239.706 81.7146H239.9V82.0157ZM238.351 80.553V79.2408C237.792 79.3484 237.272 79.5635 236.791 79.8861C236.311 80.2088 236.071 80.5602 236.071 80.9402C236.071 81.0908 236.142 81.2234 236.286 81.3381C236.436 81.4457 236.619 81.4995 236.834 81.4995C237.057 81.4995 237.318 81.4027 237.62 81.2091C237.921 81.0083 238.164 80.7896 238.351 80.553ZM244.546 82.0157H242.395V81.7146H242.546C242.704 81.7146 242.818 81.6823 242.89 81.6178C242.962 81.5461 242.998 81.4278 242.998 81.2629V74.917C242.998 74.7808 242.951 74.684 242.858 74.6266C242.765 74.5621 242.603 74.5298 242.374 74.5298V74.2287C242.517 74.2287 242.736 74.1892 243.03 74.1104C243.331 74.0315 243.55 73.949 243.686 73.863L243.88 73.82V81.2413C243.88 81.3561 243.883 81.4385 243.89 81.4887C243.905 81.5389 243.948 81.5891 244.019 81.6393C244.091 81.6895 244.202 81.7146 244.353 81.7146H244.546V82.0157ZM251.59 81.7146L251.697 80.553L251.998 80.5745C251.998 80.8183 252.156 81.0513 252.471 81.2736C252.787 81.4959 253.128 81.607 253.493 81.607C254.246 81.607 254.623 81.3776 254.623 80.9187C254.623 80.6892 254.526 80.4849 254.332 80.3056C254.139 80.1263 253.906 79.9793 253.633 79.8646C253.361 79.7427 253.088 79.6208 252.816 79.4989C252.543 79.3699 252.31 79.2049 252.117 79.0042C251.923 78.7962 251.826 78.5596 251.826 78.2943C251.826 77.3621 252.515 76.8961 253.891 76.8961C254.2 76.8961 254.537 76.9821 254.902 77.1542L254.838 78.2298H254.58C254.58 78.029 254.461 77.8354 254.225 77.649C253.995 77.4625 253.744 77.3693 253.472 77.3693C253.199 77.3693 252.966 77.4231 252.773 77.5307C252.586 77.6382 252.493 77.7995 252.493 78.0147C252.493 78.2226 252.59 78.3947 252.783 78.5309C252.977 78.6672 253.21 78.7783 253.483 78.8643C253.755 78.9504 254.027 79.0472 254.3 79.1548C254.572 79.2623 254.805 79.438 254.999 79.6818C255.193 79.9256 255.289 80.2303 255.289 80.596C255.289 80.9617 255.171 81.2664 254.935 81.5102C254.511 81.9476 253.898 82.1663 253.095 82.1663C252.471 82.1663 251.97 82.0157 251.59 81.7146ZM260.968 81.3489L261.054 81.607C260.516 81.9799 259.928 82.1663 259.29 82.1663C259.061 82.1663 258.863 82.0839 258.698 81.9189C258.533 81.754 258.451 81.5353 258.451 81.2629V77.4554H257.827V77.0036H258.064C258.3 77.0036 258.519 76.8602 258.72 76.5734C258.928 76.2866 259.032 76.0213 259.032 75.7775H259.311V77.0036H260.774V77.4554H259.72C259.448 77.4554 259.311 77.5844 259.311 77.8426V80.9187C259.311 81.3919 259.484 81.6285 259.828 81.6285C260.215 81.6285 260.595 81.5353 260.968 81.3489ZM268.584 82.0157H267.036V80.7466C266.871 81.1983 266.616 81.5497 266.272 81.8006C265.928 82.0444 265.508 82.1663 265.014 82.1663C264.755 82.1663 264.537 82.109 264.357 81.9942C264.178 81.8795 264.049 81.7325 263.97 81.5533C263.834 81.2449 263.766 80.9402 263.766 80.639V78.0792C263.766 77.7493 263.558 77.5844 263.142 77.5844V77.2833C263.285 77.2833 263.501 77.2438 263.787 77.165C264.081 77.0861 264.296 77.0036 264.433 76.9176L264.626 76.8961V80.4454C264.626 80.7681 264.702 81.0155 264.852 81.1876C265.01 81.3525 265.229 81.4349 265.508 81.4349C265.91 81.4349 266.265 81.2198 266.573 80.7896C266.881 80.3594 267.036 80.0367 267.036 79.8216V78.0792C267.036 77.7493 266.828 77.5844 266.412 77.5844V77.2833C266.57 77.2833 266.792 77.2438 267.079 77.165C267.373 77.0861 267.588 77.0036 267.724 76.9176L267.918 76.8961V81.2844C267.918 81.3848 267.925 81.46 267.939 81.5102C267.975 81.6465 268.125 81.7146 268.391 81.7146H268.584V82.0157ZM276.119 82.0157H274.571V80.7681C274.42 81.1768 274.176 81.5138 273.839 81.7791C273.502 82.0373 273.083 82.1663 272.581 82.1663C272.086 82.1663 271.695 82.005 271.408 81.6823C271.122 81.3597 270.978 80.9258 270.978 80.3809C270.978 79.3699 271.24 78.5309 271.763 77.8641C272.294 77.1901 272.943 76.853 273.71 76.853C273.882 76.853 274.169 76.9248 274.571 77.0682V74.917C274.571 74.7808 274.524 74.684 274.431 74.6266C274.338 74.5621 274.176 74.5298 273.947 74.5298V74.2287C274.097 74.2287 274.32 74.1892 274.614 74.1104C274.908 74.0315 275.116 73.949 275.237 73.863L275.431 73.82V81.2844C275.431 81.4206 275.456 81.521 275.506 81.5855C275.564 81.6429 275.696 81.6716 275.904 81.6716H276.119V82.0157ZM274.571 79.8861V77.9716C274.542 77.9286 274.499 77.8712 274.442 77.7995C274.384 77.7278 274.262 77.6346 274.076 77.5199C273.897 77.4052 273.71 77.3478 273.517 77.3478C272.993 77.3478 272.556 77.5952 272.204 78.0899C271.86 78.5847 271.688 79.2121 271.688 79.9722C271.688 80.3952 271.814 80.7466 272.065 81.0262C272.323 81.2987 272.649 81.4349 273.043 81.4349C273.445 81.4349 273.8 81.2198 274.108 80.7896C274.416 80.3522 274.571 80.0511 274.571 79.8861ZM282.854 80.7036L283.048 80.8972C282.589 81.7433 281.764 82.1663 280.574 82.1663C280.022 82.1663 279.549 81.9225 279.154 81.4349C278.767 80.9474 278.573 80.4024 278.573 79.8001C278.573 78.9898 278.835 78.2979 279.359 77.7243C279.889 77.1434 280.531 76.853 281.284 76.853C281.642 76.853 281.958 76.957 282.23 77.165C282.718 77.545 282.962 78.0362 282.962 78.6385C282.962 78.7245 282.944 78.8285 282.908 78.9504C282.879 79.0723 282.854 79.1332 282.833 79.1332L279.369 79.2408C279.369 79.8001 279.545 80.3164 279.896 80.7896C280.248 81.2629 280.674 81.4995 281.176 81.4995C281.535 81.4995 281.865 81.4278 282.166 81.2844C282.474 81.1338 282.704 80.9402 282.854 80.7036ZM279.477 78.8106L281.994 78.703C282.008 78.703 282.015 78.6385 282.015 78.5094C282.015 78.1366 281.904 77.8712 281.682 77.7135C281.467 77.5557 281.166 77.4769 280.778 77.4769C280.398 77.4769 280.086 77.5952 279.843 77.8318C279.599 78.0684 279.477 78.3947 279.477 78.8106ZM291.1 82.0157H289.25V81.7146H289.293C289.372 81.7146 289.437 81.6752 289.487 81.5963C289.544 81.5174 289.573 81.4206 289.573 81.3059V78.5739C289.573 78.2513 289.494 78.0075 289.336 77.8426C289.186 77.6705 288.971 77.5844 288.691 77.5844C288.289 77.5844 287.935 77.7995 287.626 78.2298C287.318 78.66 287.164 78.9827 287.164 79.1978V81.2413C287.164 81.3561 287.167 81.4385 287.174 81.4887C287.189 81.5389 287.232 81.5891 287.304 81.6393C287.375 81.6895 287.486 81.7146 287.637 81.7146H287.831V82.0157H285.658V81.7146H285.83C286.024 81.7146 286.145 81.6823 286.196 81.6178C286.253 81.5533 286.282 81.4493 286.282 81.3059V78.0792C286.282 77.943 286.235 77.8461 286.142 77.7888C286.056 77.7243 285.895 77.692 285.658 77.692V77.3908C285.801 77.3908 286.016 77.3406 286.303 77.2402C286.597 77.1327 286.82 77.0323 286.97 76.9391L287.164 76.8961V78.2728C287.329 77.8211 287.583 77.4733 287.927 77.2295C288.272 76.9785 288.691 76.853 289.186 76.853C289.444 76.853 289.663 76.9104 289.842 77.0251C290.021 77.1399 290.15 77.2869 290.229 77.4661C290.365 77.7744 290.433 78.0792 290.433 78.3803V81.2844C290.433 81.3848 290.441 81.46 290.455 81.5102C290.491 81.6465 290.641 81.7146 290.907 81.7146H291.1V82.0157ZM296.664 81.3489L296.75 81.607C296.213 81.9799 295.625 82.1663 294.986 82.1663C294.757 82.1663 294.56 82.0839 294.395 81.9189C294.23 81.754 294.147 81.5353 294.147 81.2629V77.4554H293.524V77.0036H293.76C293.997 77.0036 294.216 76.8602 294.416 76.5734C294.624 76.2866 294.728 76.0213 294.728 75.7775H295.008V77.0036H296.471V77.4554H295.417C295.144 77.4554 295.008 77.5844 295.008 77.8426V80.9187C295.008 81.3919 295.18 81.6285 295.524 81.6285C295.911 81.6285 296.291 81.5353 296.664 81.3489ZM308.844 82.0157H306.994V81.7146H307.037C307.116 81.7146 307.18 81.6752 307.231 81.5963C307.288 81.5174 307.317 81.4206 307.317 81.3059V78.5739C307.317 78.2513 307.238 78.0075 307.08 77.8426C306.929 77.6705 306.714 77.5844 306.435 77.5844C306.033 77.5844 305.678 77.7995 305.37 78.2298C305.062 78.66 304.907 78.9827 304.907 79.1978V81.2413C304.907 81.3561 304.911 81.4385 304.918 81.4887C304.932 81.5389 304.976 81.5891 305.047 81.6393C305.119 81.6895 305.23 81.7146 305.381 81.7146H305.574V82.0157H303.402V81.7146H303.574C303.767 81.7146 303.889 81.6823 303.939 81.6178C303.997 81.5533 304.025 81.4493 304.025 81.3059V78.0792C304.025 77.943 303.979 77.8461 303.886 77.7888C303.8 77.7243 303.638 77.692 303.402 77.692V77.3908C303.545 77.3908 303.76 77.3406 304.047 77.2402C304.341 77.1327 304.563 77.0323 304.714 76.9391L304.907 76.8961V78.2728C305.072 77.8211 305.327 77.4733 305.671 77.2295C306.015 76.9785 306.435 76.853 306.929 76.853C307.188 76.853 307.406 76.9104 307.586 77.0251C307.765 77.1399 307.894 77.2869 307.973 77.4661C308.109 77.7744 308.177 78.0792 308.177 78.3803V81.2844C308.177 81.3848 308.184 81.46 308.199 81.5102C308.234 81.6465 308.385 81.7146 308.65 81.7146H308.844V82.0157ZM315.536 80.7036L315.73 80.8972C315.271 81.7433 314.446 82.1663 313.256 82.1663C312.704 82.1663 312.23 81.9225 311.836 81.4349C311.449 80.9474 311.255 80.4024 311.255 79.8001C311.255 78.9898 311.517 78.2979 312.04 77.7243C312.571 77.1434 313.213 76.853 313.966 76.853C314.324 76.853 314.64 76.957 314.912 77.165C315.4 77.545 315.644 78.0362 315.644 78.6385C315.644 78.7245 315.626 78.8285 315.59 78.9504C315.561 79.0723 315.536 79.1332 315.515 79.1332L312.051 79.2408C312.051 79.8001 312.227 80.3164 312.578 80.7896C312.93 81.2629 313.356 81.4995 313.858 81.4995C314.217 81.4995 314.547 81.4278 314.848 81.2844C315.156 81.1338 315.385 80.9402 315.536 80.7036ZM312.159 78.8106L314.676 78.703C314.69 78.703 314.697 78.6385 314.697 78.5094C314.697 78.1366 314.586 77.8712 314.364 77.7135C314.149 77.5557 313.847 77.4769 313.46 77.4769C313.08 77.4769 312.768 77.5952 312.524 77.8318C312.281 78.0684 312.159 78.3947 312.159 78.8106ZM322.881 82.1233L322.688 82.1663L321.612 79.0257L320.773 81.478C320.701 81.4995 320.59 81.6034 320.44 81.7899C320.289 81.9763 320.214 82.0875 320.214 82.1233L320.02 82.1663L318.493 77.7995C318.428 77.6346 318.357 77.5163 318.278 77.4446C318.206 77.3657 318.091 77.3263 317.934 77.3263H317.783V77.0036H319.805L319.784 77.3263C319.497 77.3263 319.353 77.4123 319.353 77.5844C319.353 77.6418 319.382 77.7565 319.439 77.9286L320.472 80.8541L321.354 78.2943L321.16 77.7995C321.038 77.484 320.881 77.3263 320.687 77.3263V77.0036H322.602V77.3263H322.516C322.2 77.3263 322.042 77.4123 322.042 77.5844C322.042 77.6131 322.064 77.692 322.107 77.8211L323.139 80.8541L324.193 77.778C324.251 77.6418 324.279 77.545 324.279 77.4876C324.279 77.4231 324.24 77.3801 324.161 77.3586C324.089 77.3371 323.921 77.3263 323.656 77.3263H323.527V77.0036H325.549V77.3263H325.441C325.204 77.3263 325.039 77.3621 324.946 77.4339C324.853 77.5056 324.774 77.6418 324.71 77.8426L323.462 81.478C323.397 81.478 323.283 81.5784 323.118 81.7791C322.96 81.9727 322.881 82.0875 322.881 82.1233ZM327.763 81.7146L327.87 80.553L328.171 80.5745C328.171 80.8183 328.329 81.0513 328.645 81.2736C328.96 81.4959 329.301 81.607 329.666 81.607C330.419 81.607 330.796 81.3776 330.796 80.9187C330.796 80.6892 330.699 80.4849 330.505 80.3056C330.312 80.1263 330.079 79.9793 329.806 79.8646C329.534 79.7427 329.261 79.6208 328.989 79.4989C328.716 79.3699 328.483 79.2049 328.29 79.0042C328.096 78.7962 327.999 78.5596 327.999 78.2943C327.999 77.3621 328.688 76.8961 330.064 76.8961C330.373 76.8961 330.71 76.9821 331.075 77.1542L331.011 78.2298H330.753C330.753 78.029 330.634 77.8354 330.398 77.649C330.168 77.4625 329.917 77.3693 329.645 77.3693C329.372 77.3693 329.139 77.4231 328.946 77.5307C328.759 77.6382 328.666 77.7995 328.666 78.0147C328.666 78.2226 328.763 78.3947 328.956 78.5309C329.15 78.6672 329.383 78.7783 329.656 78.8643C329.928 78.9504 330.2 79.0472 330.473 79.1548C330.745 79.2623 330.978 79.438 331.172 79.6818C331.366 79.9256 331.462 80.2303 331.462 80.596C331.462 80.9617 331.344 81.2664 331.108 81.5102C330.684 81.9476 330.071 82.1663 329.268 82.1663C328.645 82.1663 328.143 82.0157 327.763 81.7146ZM336.237 84.5326H334.065V84.2099H334.194C334.352 84.2099 334.466 84.1848 334.538 84.1346C334.617 84.0844 334.66 84.0342 334.667 83.984C334.681 83.9338 334.689 83.8514 334.689 83.7366V78.1652C334.689 77.8354 334.481 77.6705 334.065 77.6705V77.3908C334.201 77.3908 334.416 77.3371 334.71 77.2295C335.004 77.1148 335.219 77.0108 335.355 76.9176L335.549 76.8961V78.2513C335.7 77.8426 335.943 77.5091 336.28 77.251C336.617 76.9857 337.033 76.853 337.528 76.853C338.023 76.853 338.414 77.0144 338.7 77.337C338.994 77.6597 339.141 78.0935 339.141 78.6385C339.141 79.6495 338.876 80.492 338.345 81.1661C337.815 81.8329 337.17 82.1663 336.409 82.1663C336.144 82.1663 335.857 82.0946 335.549 81.9512V83.7797C335.549 83.8801 335.556 83.9553 335.571 84.0055C335.606 84.1418 335.757 84.2099 336.022 84.2099H336.237V84.5326ZM335.549 79.1332V81.0477C335.578 81.0908 335.621 81.1481 335.678 81.2198C335.735 81.2915 335.854 81.3848 336.033 81.4995C336.219 81.6142 336.409 81.6716 336.603 81.6716C337.127 81.6716 337.56 81.4242 337.905 80.9294C338.256 80.4347 338.432 79.8073 338.432 79.0472C338.432 78.6241 338.299 78.2764 338.034 78.0039C337.775 77.7243 337.449 77.5844 337.055 77.5844C336.668 77.5844 336.32 77.8031 336.012 78.2405C335.703 78.6707 335.549 78.9683 335.549 79.1332ZM346.276 82.0157H344.727V81.1553C344.368 81.5425 344.071 81.8078 343.834 81.9512C343.598 82.0946 343.275 82.1663 342.866 82.1663C342.465 82.1663 342.149 82.0731 341.92 81.8867C341.697 81.6931 341.586 81.4242 341.586 81.08C341.586 80.7358 341.733 80.4024 342.027 80.0797C342.328 79.7499 342.676 79.5025 343.071 79.3376C343.472 79.1655 343.824 79.0364 344.125 78.9504C344.426 78.8572 344.627 78.8106 344.727 78.8106V78.5739C344.727 77.8999 344.447 77.5629 343.888 77.5629C343.501 77.5629 343.139 77.6454 342.802 77.8103C342.472 77.9752 342.225 78.1867 342.06 78.4449L341.844 78.2513C342.325 77.3191 343.157 76.853 344.34 76.853C344.641 76.853 344.888 76.9355 345.082 77.1004C345.283 77.2582 345.415 77.4446 345.48 77.6597C345.552 77.8748 345.587 78.115 345.587 78.3803V81.2844C345.587 81.3776 345.595 81.4493 345.609 81.4995C345.623 81.5497 345.666 81.5999 345.738 81.6501C345.817 81.6931 345.932 81.7146 346.082 81.7146H346.276V82.0157ZM344.727 80.553V79.2408C344.168 79.3484 343.648 79.5635 343.167 79.8861C342.687 80.2088 342.447 80.5602 342.447 80.9402C342.447 81.0908 342.519 81.2234 342.662 81.3381C342.812 81.4457 342.995 81.4995 343.21 81.4995C343.433 81.4995 343.694 81.4027 343.996 81.2091C344.297 81.0083 344.541 80.7896 344.727 80.553ZM350.966 84.5326H348.793V84.2099H348.922C349.08 84.2099 349.194 84.1848 349.266 84.1346C349.345 84.0844 349.388 84.0342 349.395 83.984C349.41 83.9338 349.417 83.8514 349.417 83.7366V78.1652C349.417 77.8354 349.209 77.6705 348.793 77.6705V77.3908C348.929 77.3908 349.144 77.3371 349.438 77.2295C349.732 77.1148 349.947 77.0108 350.084 76.9176L350.277 76.8961V78.2513C350.428 77.8426 350.672 77.5091 351.009 77.251C351.346 76.9857 351.761 76.853 352.256 76.853C352.751 76.853 353.142 77.0144 353.429 77.337C353.723 77.6597 353.87 78.0935 353.87 78.6385C353.87 79.6495 353.604 80.492 353.074 81.1661C352.543 81.8329 351.898 82.1663 351.138 82.1663C350.872 82.1663 350.585 82.0946 350.277 81.9512V83.7797C350.277 83.8801 350.284 83.9553 350.299 84.0055C350.335 84.1418 350.485 84.2099 350.75 84.2099H350.966V84.5326ZM350.277 79.1332V81.0477C350.306 81.0908 350.349 81.1481 350.406 81.2198C350.464 81.2915 350.582 81.3848 350.761 81.4995C350.948 81.6142 351.138 81.6716 351.331 81.6716C351.855 81.6716 352.288 81.4242 352.633 80.9294C352.984 80.4347 353.16 79.8073 353.16 79.0472C353.16 78.6241 353.027 78.2764 352.762 78.0039C352.504 77.7243 352.177 77.5844 351.783 77.5844C351.396 77.5844 351.048 77.8031 350.74 78.2405C350.431 78.6707 350.277 78.9683 350.277 79.1332ZM360.498 80.7036L360.691 80.8972C360.232 81.7433 359.408 82.1663 358.217 82.1663C357.665 82.1663 357.192 81.9225 356.798 81.4349C356.411 80.9474 356.217 80.4024 356.217 79.8001C356.217 78.9898 356.479 78.2979 357.002 77.7243C357.533 77.1434 358.174 76.853 358.927 76.853C359.286 76.853 359.601 76.957 359.874 77.165C360.361 77.545 360.605 78.0362 360.605 78.6385C360.605 78.7245 360.587 78.8285 360.551 78.9504C360.523 79.0723 360.498 79.1332 360.476 79.1332L357.013 79.2408C357.013 79.8001 357.189 80.3164 357.54 80.7896C357.891 81.2629 358.318 81.4995 358.82 81.4995C359.178 81.4995 359.508 81.4278 359.809 81.2844C360.118 81.1338 360.347 80.9402 360.498 80.7036ZM357.12 78.8106L359.637 78.703C359.652 78.703 359.659 78.6385 359.659 78.5094C359.659 78.1366 359.548 77.8712 359.325 77.7135C359.11 77.5557 358.809 77.4769 358.422 77.4769C358.042 77.4769 357.73 77.5952 357.486 77.8318C357.242 78.0684 357.12 78.3947 357.12 78.8106ZM365.572 82.0157H363.249V81.7146H363.421C363.615 81.7146 363.736 81.6823 363.787 81.6178C363.844 81.5533 363.873 81.4493 363.873 81.3059V78.0792C363.873 77.943 363.826 77.8461 363.733 77.7888C363.647 77.7243 363.486 77.692 363.249 77.692V77.3908C363.392 77.3908 363.607 77.3406 363.894 77.2402C364.188 77.1327 364.411 77.0323 364.561 76.9391L364.755 76.8961V78.2298C365.013 77.6633 365.307 77.2904 365.637 77.1112C365.966 76.9248 366.454 76.8315 367.099 76.8315L367.035 78.0792H366.712C366.712 77.9788 366.673 77.882 366.594 77.7888C366.522 77.6956 366.404 77.649 366.239 77.649C365.88 77.649 365.543 77.8426 365.228 78.2298C364.912 78.617 364.755 78.9898 364.755 79.3484V81.2413C364.755 81.3561 364.758 81.4385 364.765 81.4887C364.78 81.5389 364.823 81.5891 364.895 81.6393C364.966 81.6895 365.077 81.7146 365.228 81.7146H365.572V82.0157ZM375.756 82.1663C375.125 82.1663 374.598 81.9297 374.175 81.4565C373.752 80.9832 373.54 80.4311 373.54 79.8001C373.54 78.997 373.842 78.3051 374.444 77.7243C375.053 77.1434 375.695 76.853 376.369 76.853C377.043 76.853 377.585 77.0933 377.993 77.5737C378.409 78.0469 378.617 78.5955 378.617 79.2193C378.617 80.0009 378.327 80.6892 377.746 81.2844C377.172 81.8723 376.509 82.1663 375.756 82.1663ZM374.293 79.2193C374.293 79.8861 374.494 80.4418 374.896 80.8864C375.304 81.3238 375.76 81.5425 376.262 81.5425C376.771 81.5425 377.169 81.3525 377.456 80.9725C377.742 80.5924 377.886 80.2016 377.886 79.8001C377.886 79.1906 377.696 78.66 377.316 78.2083C376.943 77.7493 376.488 77.5199 375.95 77.5199C375.412 77.5199 375 77.7027 374.713 78.0684C374.433 78.427 374.293 78.8106 374.293 79.2193ZM384.001 73.7124C384.274 73.7124 384.582 73.7984 384.926 73.9705L384.84 74.9385L384.539 74.917C384.539 74.7736 384.467 74.6087 384.324 74.4223C384.18 74.2358 383.994 74.1426 383.765 74.1426C383.377 74.1426 383.087 74.3326 382.893 74.7127C382.7 75.0927 382.603 75.7058 382.603 76.5519C382.603 76.8387 382.746 76.9821 383.033 76.9821H384.087V77.4339H382.624V81.2198C382.624 81.3346 382.628 81.4206 382.635 81.478C382.65 81.5282 382.693 81.5819 382.764 81.6393C382.836 81.6895 382.947 81.7146 383.098 81.7146H383.442V82.0157H381.119V81.7146H381.248C381.405 81.7146 381.52 81.6895 381.592 81.6393C381.671 81.5819 381.714 81.5282 381.721 81.478C381.735 81.4206 381.742 81.3346 381.742 81.2198V77.8211C381.742 77.6848 381.717 77.588 381.667 77.5307C381.617 77.4661 381.513 77.4339 381.355 77.4339H381.119V76.9821H381.742V76.5089C381.742 74.6446 382.495 73.7124 384.001 73.7124ZM390.802 81.4995L390.952 80.1012L391.318 80.1228C391.318 80.5171 391.551 80.8362 392.017 81.08C392.49 81.3166 393.024 81.4349 393.62 81.4349C394.222 81.4349 394.674 81.3453 394.975 81.1661C395.276 80.9796 395.426 80.7466 395.426 80.4669C395.426 79.9937 395.175 79.5706 394.674 79.1978C394.466 79.0472 394.247 78.9145 394.017 78.7998C393.494 78.5273 393.164 78.3552 393.028 78.2835C392.899 78.2047 392.752 78.1258 392.587 78.0469C392.422 77.968 392.268 77.8856 392.124 77.7995C391.988 77.7063 391.841 77.5952 391.683 77.4661C391.325 77.1793 391.146 76.8602 391.146 76.5089C391.146 76.1503 391.207 75.8384 391.329 75.5731C391.458 75.3078 391.615 75.0999 391.802 74.9493C391.995 74.7987 392.221 74.6732 392.479 74.5729C392.917 74.4151 393.404 74.3362 393.942 74.3362C394.487 74.3362 395.011 74.4725 395.512 74.7449L395.383 75.9926H395.018C395.018 75.3186 394.451 74.9816 393.318 74.9816C392.795 74.9816 392.401 75.064 392.135 75.2289C391.877 75.3939 391.748 75.6197 391.748 75.9066C391.748 76.3655 392.494 76.9176 393.985 77.5629C394.968 77.986 395.595 78.4556 395.867 78.9719C396.004 79.23 396.072 79.5133 396.072 79.8216C396.072 80.5673 395.771 81.1445 395.168 81.5533C394.573 81.962 393.853 82.1663 393.006 82.1663C392.16 82.1663 391.425 81.944 390.802 81.4995ZM401.622 81.3489L401.708 81.607C401.171 81.9799 400.583 82.1663 399.944 82.1663C399.715 82.1663 399.518 82.0839 399.353 81.9189C399.188 81.754 399.106 81.5353 399.106 81.2629V77.4554H398.482V77.0036H398.718C398.955 77.0036 399.174 76.8602 399.374 76.5734C399.582 76.2866 399.686 76.0213 399.686 75.7775H399.966V77.0036H401.429V77.4554H400.375C400.102 77.4554 399.966 77.5844 399.966 77.8426V80.9187C399.966 81.3919 400.138 81.6285 400.482 81.6285C400.869 81.6285 401.25 81.5353 401.622 81.3489ZM404.786 81.0047C404.951 81.0047 405.076 81.0621 405.163 81.1768C405.256 81.2915 405.302 81.4314 405.302 81.5963C405.302 81.7612 405.234 81.901 405.098 82.0157C404.962 82.1305 404.811 82.1878 404.646 82.1878C404.489 82.1878 404.363 82.1305 404.27 82.0157C404.184 81.901 404.141 81.7648 404.141 81.607C404.141 81.4493 404.209 81.3095 404.345 81.1876C404.481 81.0657 404.628 81.0047 404.786 81.0047ZM415.683 82.2309C414.744 82.2309 413.959 81.8688 413.328 81.1445C412.704 80.4203 412.392 79.585 412.392 78.6385C412.392 78.0505 412.521 77.484 412.779 76.9391C413.037 76.3941 413.367 75.9316 413.769 75.5516C414.178 75.1716 414.626 74.8668 415.113 74.6374C415.608 74.4079 416.085 74.2932 416.544 74.2932C417.476 74.2932 418.258 74.6553 418.889 75.3795C419.52 76.1037 419.835 76.9391 419.835 77.8856C419.835 78.5883 419.645 79.2766 419.265 79.9507C418.885 80.6175 418.369 81.1661 417.716 81.5963C417.071 82.0193 416.393 82.2309 415.683 82.2309ZM416.35 81.4134C417.132 81.4134 417.788 81.1266 418.318 80.553C418.856 79.9793 419.125 79.2695 419.125 78.4234C419.125 77.5773 418.813 76.8172 418.189 76.1432C417.573 75.4692 416.823 75.1321 415.942 75.1321C415.189 75.1321 414.525 75.4046 413.952 75.9496C413.385 76.4874 413.102 77.1327 413.102 77.8856C413.102 78.8608 413.4 79.6925 413.995 80.3809C414.597 81.0693 415.382 81.4134 416.35 81.4134ZM424.502 82.0157H422.351V81.7146H422.502C422.659 81.7146 422.774 81.6823 422.846 81.6178C422.918 81.5461 422.953 81.4278 422.953 81.2629V74.917C422.953 74.7808 422.907 74.684 422.814 74.6266C422.72 74.5621 422.559 74.5298 422.33 74.5298V74.2287C422.473 74.2287 422.692 74.1892 422.986 74.1104C423.287 74.0315 423.506 73.949 423.642 73.863L423.835 73.82V81.2413C423.835 81.3561 423.839 81.4385 423.846 81.4887C423.86 81.5389 423.903 81.5891 423.975 81.6393C424.047 81.6895 424.158 81.7146 424.309 81.7146H424.502V82.0157ZM431.779 82.0157H430.23V81.1553C429.872 81.5425 429.574 81.8078 429.338 81.9512C429.101 82.0946 428.778 82.1663 428.37 82.1663C427.968 82.1663 427.653 82.0731 427.423 81.8867C427.201 81.6931 427.09 81.4242 427.09 81.08C427.09 80.7358 427.237 80.4024 427.531 80.0797C427.832 79.7499 428.18 79.5025 428.574 79.3376C428.976 79.1655 429.327 79.0364 429.628 78.9504C429.929 78.8572 430.13 78.8106 430.23 78.8106V78.5739C430.23 77.8999 429.951 77.5629 429.391 77.5629C429.004 77.5629 428.642 77.6454 428.305 77.8103C427.975 77.9752 427.728 78.1867 427.563 78.4449L427.348 78.2513C427.828 77.3191 428.66 76.853 429.843 76.853C430.144 76.853 430.392 76.9355 430.585 77.1004C430.786 77.2582 430.919 77.4446 430.983 77.6597C431.055 77.8748 431.091 78.115 431.091 78.3803V81.2844C431.091 81.3776 431.098 81.4493 431.112 81.4995C431.127 81.5497 431.17 81.5999 431.241 81.6501C431.32 81.6931 431.435 81.7146 431.586 81.7146H431.779V82.0157ZM430.23 80.553V79.2408C429.671 79.3484 429.151 79.5635 428.671 79.8861C428.19 80.2088 427.95 80.5602 427.95 80.9402C427.95 81.0908 428.022 81.2234 428.165 81.3381C428.316 81.4457 428.499 81.4995 428.714 81.4995C428.936 81.4995 429.198 81.4027 429.499 81.2091C429.8 81.0083 430.044 80.7896 430.23 80.553ZM437.222 73.7124C437.494 73.7124 437.803 73.7984 438.147 73.9705L438.061 74.9385L437.76 74.917C437.76 74.7736 437.688 74.6087 437.544 74.4223C437.401 74.2358 437.215 74.1426 436.985 74.1426C436.598 74.1426 436.308 74.3326 436.114 74.7127C435.92 75.0927 435.824 75.7058 435.824 76.5519C435.824 76.8387 435.967 76.9821 436.254 76.9821H437.308V77.4339H435.845V81.2198C435.845 81.3346 435.849 81.4206 435.856 81.478C435.87 81.5282 435.913 81.5819 435.985 81.6393C436.057 81.6895 436.168 81.7146 436.318 81.7146H436.662V82.0157H434.339V81.7146H434.468C434.626 81.7146 434.741 81.6895 434.813 81.6393C434.891 81.5819 434.934 81.5282 434.942 81.478C434.956 81.4206 434.963 81.3346 434.963 81.2198V77.8211C434.963 77.6848 434.938 77.588 434.888 77.5307C434.838 77.4661 434.734 77.4339 434.576 77.4339H434.339V76.9821H434.963V76.5089C434.963 74.6446 435.716 73.7124 437.222 73.7124ZM450.605 79.9076L450.863 80.2948C450.282 80.9545 449.701 81.4421 449.12 81.7576C448.54 82.0731 447.916 82.2309 447.249 82.2309C446.424 82.2309 445.689 81.8688 445.044 81.1445C444.406 80.4203 444.087 79.5993 444.087 78.6815C444.087 77.5271 444.521 76.5089 445.388 75.6269C446.263 74.7378 447.278 74.2932 448.432 74.2932C448.891 74.2932 449.465 74.4079 450.153 74.6374L450.024 76.1432H449.658C449.658 75.8779 449.569 75.6699 449.389 75.5193C449.21 75.3688 449.006 75.2756 448.776 75.2397C448.554 75.1967 448.274 75.1752 447.937 75.1752C447.105 75.1752 446.381 75.419 445.765 75.9066C445.148 76.3941 444.84 77.061 444.84 77.9071C444.84 78.5238 444.954 79.0723 445.184 79.5527C445.413 80.0331 445.7 80.4024 446.044 80.6605C446.725 81.1625 447.378 81.4134 448.002 81.4134C448.389 81.4134 448.819 81.2879 449.292 81.037C449.766 80.786 450.203 80.4096 450.605 79.9076ZM455.429 82.1663C454.798 82.1663 454.271 81.9297 453.848 81.4565C453.425 80.9832 453.213 80.4311 453.213 79.8001C453.213 78.997 453.514 78.3051 454.117 77.7243C454.726 77.1434 455.368 76.853 456.042 76.853C456.716 76.853 457.257 77.0933 457.666 77.5737C458.082 78.0469 458.29 78.5955 458.29 79.2193C458.29 80.0009 458 80.6892 457.419 81.2844C456.845 81.8723 456.182 82.1663 455.429 82.1663ZM453.966 79.2193C453.966 79.8861 454.167 80.4418 454.569 80.8864C454.977 81.3238 455.433 81.5425 455.935 81.5425C456.444 81.5425 456.842 81.3525 457.128 80.9725C457.415 80.5924 457.559 80.2016 457.559 79.8001C457.559 79.1906 457.369 78.66 456.989 78.2083C456.616 77.7493 456.16 77.5199 455.623 77.5199C455.085 77.5199 454.673 77.7027 454.386 78.0684C454.106 78.427 453.966 78.8106 453.966 79.2193ZM462.878 82.0157H460.727V81.7146H460.878C461.035 81.7146 461.15 81.6823 461.222 81.6178C461.293 81.5461 461.329 81.4278 461.329 81.2629V74.917C461.329 74.7808 461.283 74.684 461.189 74.6266C461.096 74.5621 460.935 74.5298 460.705 74.5298V74.2287C460.849 74.2287 461.068 74.1892 461.362 74.1104C461.663 74.0315 461.881 73.949 462.018 73.863L462.211 73.82V81.2413C462.211 81.3561 462.215 81.4385 462.222 81.4887C462.236 81.5389 462.279 81.5891 462.351 81.6393C462.423 81.6895 462.534 81.7146 462.684 81.7146H462.878V82.0157ZM467.595 82.0157H465.444V81.7146H465.595C465.752 81.7146 465.867 81.6823 465.939 81.6178C466.011 81.5461 466.046 81.4278 466.046 81.2629V74.917C466.046 74.7808 466 74.684 465.907 74.6266C465.813 74.5621 465.652 74.5298 465.423 74.5298V74.2287C465.566 74.2287 465.785 74.1892 466.079 74.1104C466.38 74.0315 466.599 73.949 466.735 73.863L466.928 73.82V81.2413C466.928 81.3561 466.932 81.4385 466.939 81.4887C466.953 81.5389 466.997 81.5891 467.068 81.6393C467.14 81.6895 467.251 81.7146 467.402 81.7146H467.595V82.0157ZM474.334 80.7036L474.528 80.8972C474.069 81.7433 473.245 82.1663 472.054 82.1663C471.502 82.1663 471.029 81.9225 470.635 81.4349C470.247 80.9474 470.054 80.4024 470.054 79.8001C470.054 78.9898 470.315 78.2979 470.839 77.7243C471.369 77.1434 472.011 76.853 472.764 76.853C473.123 76.853 473.438 76.957 473.711 77.165C474.198 77.545 474.442 78.0362 474.442 78.6385C474.442 78.7245 474.424 78.8285 474.388 78.9504C474.36 79.0723 474.334 79.1332 474.313 79.1332L470.85 79.2408C470.85 79.8001 471.025 80.3164 471.377 80.7896C471.728 81.2629 472.155 81.4995 472.657 81.4995C473.015 81.4995 473.345 81.4278 473.646 81.2844C473.954 81.1338 474.184 80.9402 474.334 80.7036ZM470.957 78.8106L473.474 78.703C473.488 78.703 473.496 78.6385 473.496 78.5094C473.496 78.1366 473.384 77.8712 473.162 77.7135C472.947 77.5557 472.646 77.4769 472.259 77.4769C471.879 77.4769 471.567 77.5952 471.323 77.8318C471.079 78.0684 470.957 78.3947 470.957 78.8106ZM478.539 81.4565L479.615 81.4134C480.432 81.4134 480.998 81.5031 481.314 81.6823C481.629 81.8544 481.787 82.1341 481.787 82.5213C481.787 82.9085 481.676 83.2455 481.454 83.5323C481.231 83.8191 480.941 84.045 480.583 84.2099C479.873 84.5254 479.113 84.6831 478.302 84.6831C477.829 84.6831 477.445 84.5684 477.151 84.339C476.858 84.1167 476.711 83.837 476.711 83.5C476.711 82.7113 477.048 82.2022 477.722 81.9727C477.557 81.9727 477.42 81.9369 477.313 81.8652C477.212 81.7935 477.162 81.7146 477.162 81.6285C477.162 81.5353 477.177 81.4457 477.205 81.3597C477.234 81.2736 477.281 81.1876 477.345 81.1015C477.41 81.0083 477.463 80.9366 477.506 80.8864C477.557 80.829 477.635 80.7466 477.743 80.639L477.958 80.4239C477.571 80.0797 477.377 79.6137 477.377 79.0257C477.377 78.4305 477.6 77.9179 478.044 77.4876C478.489 77.0502 478.976 76.8315 479.507 76.8315C479.837 76.8315 480.131 76.9248 480.389 77.1112C480.69 76.767 481.192 76.5949 481.895 76.5949L481.787 77.5199C481.744 77.4554 481.669 77.3944 481.561 77.337C481.454 77.2725 481.371 77.2402 481.314 77.2402C481.12 77.2402 480.92 77.3048 480.712 77.4339C480.984 77.7493 481.12 78.1294 481.12 78.5739C481.12 79.1332 480.905 79.6316 480.475 80.069C480.045 80.5064 479.557 80.7251 479.012 80.7251C478.733 80.7251 478.503 80.6749 478.324 80.5745C478.023 80.933 477.872 81.1553 477.872 81.2413C477.872 81.3848 478.094 81.4565 478.539 81.4565ZM479.077 81.9942H478.324C478.102 82.1305 477.955 82.2344 477.883 82.3061C477.811 82.3779 477.75 82.446 477.7 82.5105C477.65 82.575 477.607 82.6396 477.571 82.7041C477.499 82.8547 477.463 83.0232 477.463 83.2096C477.463 83.3961 477.549 83.5574 477.722 83.6936C478.016 83.9087 478.424 84.0163 478.948 84.0163C479.478 84.0163 479.969 83.9267 480.421 83.7474C480.873 83.5681 481.099 83.3208 481.099 83.0053C481.099 82.6898 480.916 82.4424 480.55 82.2631C480.185 82.0839 479.693 81.9942 479.077 81.9942ZM478.066 78.6492C478.066 79.0293 478.198 79.3663 478.464 79.6603C478.736 79.9543 479.041 80.1012 479.378 80.1012C479.715 80.1012 479.973 79.9973 480.152 79.7893C480.339 79.5742 480.432 79.291 480.432 78.9396C480.432 78.5811 480.299 78.2441 480.034 77.9286C479.776 77.6131 479.471 77.4554 479.12 77.4554C478.768 77.4554 478.503 77.5593 478.324 77.7673C478.152 77.968 478.066 78.262 478.066 78.6492ZM488.285 80.7036L488.479 80.8972C488.02 81.7433 487.195 82.1663 486.005 82.1663C485.453 82.1663 484.98 81.9225 484.585 81.4349C484.198 80.9474 484.005 80.4024 484.005 79.8001C484.005 78.9898 484.266 78.2979 484.79 77.7243C485.32 77.1434 485.962 76.853 486.715 76.853C487.074 76.853 487.389 76.957 487.662 77.165C488.149 77.545 488.393 78.0362 488.393 78.6385C488.393 78.7245 488.375 78.8285 488.339 78.9504C488.31 79.0723 488.285 79.1332 488.264 79.1332L484.801 79.2408C484.801 79.8001 484.976 80.3164 485.328 80.7896C485.679 81.2629 486.106 81.4995 486.607 81.4995C486.966 81.4995 487.296 81.4278 487.597 81.2844C487.905 81.1338 488.135 80.9402 488.285 80.7036ZM484.908 78.8106L487.425 78.703C487.439 78.703 487.446 78.6385 487.446 78.5094C487.446 78.1366 487.335 77.8712 487.113 77.7135C486.898 77.5557 486.597 77.4769 486.209 77.4769C485.829 77.4769 485.518 77.5952 485.274 77.8318C485.03 78.0684 484.908 78.3947 484.908 78.8106ZM496.523 78.0147C496.681 78.0147 496.807 78.072 496.9 78.1867C497 78.3015 497.05 78.4413 497.05 78.6062C497.05 78.7711 496.979 78.911 496.835 79.0257C496.699 79.1404 496.549 79.1978 496.384 79.1978C496.226 79.1978 496.104 79.1404 496.018 79.0257C495.932 78.911 495.889 78.7747 495.889 78.617C495.889 78.4592 495.953 78.3194 496.082 78.1975C496.219 78.0756 496.366 78.0147 496.523 78.0147ZM510.238 82.0157H504.473V81.7146H504.839C505.046 81.7146 505.183 81.6752 505.247 81.5963C505.319 81.5174 505.355 81.3919 505.355 81.2198V75.2827C505.355 75.1393 505.308 75.021 505.215 74.9278C505.129 74.8346 505.003 74.788 504.839 74.788H504.473V74.4868H510.152L510.238 75.9711L509.937 76.0356C509.937 75.7775 509.833 75.5301 509.625 75.2935C509.417 75.0569 509.126 74.9385 508.754 74.9385H506.796C506.581 74.9385 506.441 74.9816 506.377 75.0676C506.312 75.1465 506.28 75.2612 506.28 75.4118V77.8641H508.431C508.538 77.8641 508.621 77.8605 508.678 77.8533C508.736 77.839 508.786 77.7995 508.829 77.735C508.879 77.6705 508.904 77.5773 508.904 77.4554V76.9606H509.227V79.1978H508.904V78.746C508.904 78.5668 508.865 78.452 508.786 78.4019C508.707 78.3445 508.589 78.3158 508.431 78.3158H506.28V81.0908C506.28 81.2413 506.312 81.3597 506.377 81.4457C506.441 81.5246 506.581 81.564 506.796 81.564H508.84C509.22 81.564 509.553 81.4421 509.84 81.1983C510.134 80.9545 510.288 80.7179 510.302 80.4884L510.604 80.5315L510.238 82.0157ZM513.119 81.7146L513.227 80.553L513.528 80.5745C513.528 80.8183 513.686 81.0513 514.001 81.2736C514.317 81.4959 514.657 81.607 515.023 81.607C515.776 81.607 516.152 81.3776 516.152 80.9187C516.152 80.6892 516.056 80.4849 515.862 80.3056C515.668 80.1263 515.435 79.9793 515.163 79.8646C514.89 79.7427 514.618 79.6208 514.345 79.4989C514.073 79.3699 513.84 79.2049 513.646 79.0042C513.453 78.7962 513.356 78.5596 513.356 78.2943C513.356 77.3621 514.044 76.8961 515.421 76.8961C515.729 76.8961 516.066 76.9821 516.432 77.1542L516.368 78.2298H516.109C516.109 78.029 515.991 77.8354 515.754 77.649C515.525 77.4625 515.274 77.3693 515.002 77.3693C514.729 77.3693 514.496 77.4231 514.302 77.5307C514.116 77.6382 514.023 77.7995 514.023 78.0147C514.023 78.2226 514.12 78.3947 514.313 78.5309C514.507 78.6672 514.74 78.7783 515.012 78.8643C515.285 78.9504 515.557 79.0472 515.83 79.1548C516.102 79.2623 516.335 79.438 516.529 79.6818C516.722 79.9256 516.819 80.2303 516.819 80.596C516.819 80.9617 516.701 81.2664 516.464 81.5102C516.041 81.9476 515.428 82.1663 514.625 82.1663C514.001 82.1663 513.499 82.0157 513.119 81.7146ZM522.498 81.3489L522.584 81.607C522.046 81.9799 521.458 82.1663 520.82 82.1663C520.59 82.1663 520.393 82.0839 520.228 81.9189C520.063 81.754 519.981 81.5353 519.981 81.2629V77.4554H519.357V77.0036H519.594C519.83 77.0036 520.049 76.8602 520.25 76.5734C520.458 76.2866 520.562 76.0213 520.562 75.7775H520.841V77.0036H522.304V77.4554H521.25C520.977 77.4554 520.841 77.5844 520.841 77.8426V80.9187C520.841 81.3919 521.013 81.6285 521.358 81.6285C521.745 81.6285 522.125 81.5353 522.498 81.3489ZM525.661 81.0047C525.826 81.0047 525.952 81.0621 526.038 81.1768C526.131 81.2915 526.178 81.4314 526.178 81.5963C526.178 81.7612 526.11 81.901 525.973 82.0157C525.837 82.1305 525.686 82.1878 525.522 82.1878C525.364 82.1878 525.238 82.1305 525.145 82.0157C525.059 81.901 525.016 81.7648 525.016 81.607C525.016 81.4493 525.084 81.3095 525.22 81.1876C525.357 81.0657 525.504 81.0047 525.661 81.0047ZM536.387 82.0157H533.418V81.7146H533.827C534.286 81.7146 534.515 81.5497 534.515 81.2198V76.1432C534.515 75.9352 534.433 75.7847 534.268 75.6914C534.103 75.5911 533.784 75.5409 533.31 75.5409V75.2397C534.099 75.2397 534.73 75.0031 535.203 74.5298L535.462 74.4868V81.2198C535.462 81.4206 535.505 81.5533 535.591 81.6178C535.677 81.6823 535.856 81.7146 536.128 81.7146H536.387V82.0157ZM540.96 78.1975C540.637 78.3122 540.365 78.5345 540.143 78.8643C539.92 79.1942 539.809 79.5384 539.809 79.8969C539.809 80.4203 539.981 80.8362 540.326 81.1445C540.677 81.4457 541.064 81.5963 541.487 81.5963C542.556 81.5963 543.09 81.0657 543.09 80.0044C543.09 79.4953 542.889 79.0866 542.487 78.7783C542.093 78.4628 541.584 78.2692 540.96 78.1975ZM540.605 77.9179C540.211 77.7673 539.903 77.5808 539.68 77.3586C539.465 77.1291 539.358 76.8136 539.358 76.4121C539.358 75.8958 539.591 75.4441 540.057 75.0569C540.53 74.6625 541.057 74.4653 541.638 74.4653C542.219 74.4653 542.663 74.623 542.971 74.9385C543.28 75.254 543.434 75.609 543.434 76.0034C543.434 76.3906 543.337 76.7347 543.144 77.0359C542.95 77.3299 542.681 77.5629 542.337 77.735C542.832 77.9071 543.226 78.1867 543.52 78.5739C543.814 78.954 543.961 79.4272 543.961 79.9937C543.961 80.553 543.717 81.0513 543.23 81.4887C542.749 81.9261 542.133 82.1448 541.38 82.1448C540.634 82.1448 540.057 81.9297 539.648 81.4995C539.239 81.0621 539.035 80.5996 539.035 80.112C539.035 79.6244 539.178 79.1834 539.465 78.7891C539.759 78.3947 540.139 78.1043 540.605 77.9179ZM541.799 77.5091C542.036 77.3729 542.247 77.1721 542.434 76.9068C542.627 76.6343 542.724 76.3619 542.724 76.0894C542.724 75.8169 542.602 75.5695 542.358 75.3473C542.122 75.1178 541.799 75.0031 541.39 75.0031C540.989 75.0031 540.681 75.1214 540.465 75.358C540.257 75.5875 540.153 75.8492 540.153 76.1432C540.153 76.43 540.254 76.6702 540.455 76.8638C540.777 77.1721 541.225 77.3872 541.799 77.5091ZM548.324 78.1975C548.002 78.3122 547.729 78.5345 547.507 78.8643C547.285 79.1942 547.173 79.5384 547.173 79.8969C547.173 80.4203 547.345 80.8362 547.69 81.1445C548.041 81.4457 548.428 81.5963 548.851 81.5963C549.92 81.5963 550.454 81.0657 550.454 80.0044C550.454 79.4953 550.253 79.0866 549.852 78.7783C549.457 78.4628 548.948 78.2692 548.324 78.1975ZM547.969 77.9179C547.575 77.7673 547.267 77.5808 547.044 77.3586C546.829 77.1291 546.722 76.8136 546.722 76.4121C546.722 75.8958 546.955 75.4441 547.421 75.0569C547.894 74.6625 548.421 74.4653 549.002 74.4653C549.583 74.4653 550.027 74.623 550.336 74.9385C550.644 75.254 550.798 75.609 550.798 76.0034C550.798 76.3906 550.701 76.7347 550.508 77.0359C550.314 77.3299 550.045 77.5629 549.701 77.735C550.196 77.9071 550.59 78.1867 550.884 78.5739C551.178 78.954 551.325 79.4272 551.325 79.9937C551.325 80.553 551.081 81.0513 550.594 81.4887C550.113 81.9261 549.497 82.1448 548.744 82.1448C547.998 82.1448 547.421 81.9297 547.012 81.4995C546.603 81.0621 546.399 80.5996 546.399 80.112C546.399 79.6244 546.542 79.1834 546.829 78.7891C547.123 78.3947 547.503 78.1043 547.969 77.9179ZM549.163 77.5091C549.4 77.3729 549.611 77.1721 549.798 76.9068C549.991 76.6343 550.088 76.3619 550.088 76.0894C550.088 75.8169 549.966 75.5695 549.722 75.3473C549.486 75.1178 549.163 75.0031 548.754 75.0031C548.353 75.0031 548.045 75.1214 547.829 75.358C547.622 75.5875 547.518 75.8492 547.518 76.1432C547.518 76.43 547.618 76.6702 547.819 76.8638C548.141 77.1721 548.59 77.3872 549.163 77.5091ZM555.538 82.0157H554.29C554.699 81.1051 555.011 80.4275 555.226 79.9829C555.448 79.5384 555.81 78.9038 556.312 78.0792C556.821 77.2546 557.416 76.3941 558.098 75.4978H555.301C554.885 75.4978 554.541 75.6018 554.269 75.8098C553.996 76.0177 553.853 76.2292 553.838 76.4443L553.537 76.4013L553.967 74.5944H559.001L558.98 74.8525C557.983 76.1647 557.183 77.4554 556.581 78.7245C555.986 79.9865 555.638 81.0836 555.538 82.0157Z" fill="black"/>
</svg>
