<svg xmlns="http://www.w3.org/2000/svg" xmlns:xlink="http://www.w3.org/1999/xlink" width="500" zoomAndPan="magnify" viewBox="0 0 375 374.999991" height="500" preserveAspectRatio="xMidYMid meet" version="1.0"><defs><g/></defs><g fill="#000000" fill-opacity="1"><g transform="translate(132.732256, 141.374991)"><g><path d="M 7.625 -0.65625 L 10.234375 -1.3125 L 10.234375 -29.390625 L 5.21875 -29.390625 C 5.21875 -27.617188 4.738281 -25.921875 3.78125 -24.296875 C 3.375 -23.628906 2.910156 -23.078125 2.390625 -22.640625 L 1.09375 -22.640625 L 1.09375 -30.484375 L 26.5625 -30.484375 L 26.5625 -22.640625 L 25.25 -22.640625 C 24.707031 -23.078125 24.226562 -23.628906 23.8125 -24.296875 C 22.882812 -25.867188 22.421875 -27.566406 22.421875 -29.390625 L 17.421875 -29.390625 L 17.421875 -1.3125 L 20.03125 -0.65625 L 20.03125 0 L 7.625 0 Z M 7.625 -0.65625 "/></g></g></g><g fill="#000000" fill-opacity="1"><g transform="translate(160.384545, 141.374991)"><g><path d="M 13.28125 0.65625 C 9.675781 0.65625 6.847656 -0.363281 4.796875 -2.40625 C 2.753906 -4.457031 1.734375 -7.285156 1.734375 -10.890625 C 1.734375 -14.484375 2.753906 -17.300781 4.796875 -19.34375 C 6.847656 -21.394531 9.675781 -22.421875 13.28125 -22.421875 C 16.882812 -22.421875 19.707031 -21.394531 21.75 -19.34375 C 23.800781 -17.300781 24.828125 -14.484375 24.828125 -10.890625 C 24.828125 -7.285156 23.800781 -4.457031 21.75 -2.40625 C 19.707031 -0.363281 16.882812 0.65625 13.28125 0.65625 Z M 13.28125 -0.21875 C 14.445312 -0.21875 15.425781 -1.03125 16.21875 -2.65625 C 17.019531 -4.28125 17.421875 -7.023438 17.421875 -10.890625 C 17.421875 -14.742188 17.019531 -17.484375 16.21875 -19.109375 C 15.425781 -20.742188 14.445312 -21.5625 13.28125 -21.5625 C 12.125 -21.5625 11.144531 -20.742188 10.34375 -19.109375 C 9.539062 -17.484375 9.140625 -14.742188 9.140625 -10.890625 C 9.140625 -7.023438 9.539062 -4.28125 10.34375 -2.65625 C 11.144531 -1.03125 12.125 -0.21875 13.28125 -0.21875 Z M 6.96875 -23.953125 L 13.28125 -31.140625 L 19.59375 -23.953125 L 18.078125 -23.953125 L 13.28125 -27 L 8.5 -23.953125 Z M 18.765625 -27.125 L 20.515625 -33.65625 L 26.171875 -33.65625 L 20.296875 -27.125 Z M 18.765625 -27.125 "/></g></g></g><g fill="#000000" fill-opacity="1"><g transform="translate(186.948157, 141.374991)"><g><path d="M 1.734375 -0.65625 L 4.359375 -1.3125 L 4.359375 -20.46875 L 1.734375 -21.125 L 1.734375 -21.78125 L 5.65625 -21.78125 C 7.375 -21.78125 8.726562 -21.226562 9.71875 -20.125 C 10.09375 -19.6875 10.410156 -19.144531 10.671875 -18.5 C 11.078125 -19.257812 11.554688 -19.914062 12.109375 -20.46875 C 13.410156 -21.769531 15.035156 -22.421875 16.984375 -22.421875 C 18.609375 -22.421875 20.066406 -22.078125 21.359375 -21.390625 C 22.648438 -20.710938 23.65625 -19.820312 24.375 -18.71875 C 25.101562 -17.625 25.46875 -16.460938 25.46875 -15.234375 L 25.46875 -1.3125 L 28.09375 -0.65625 L 28.09375 0 L 22.421875 0 C 19.804688 0 18.5 -1.304688 18.5 -3.921875 L 18.5 -15.234375 C 18.5 -17.066406 18.171875 -18.46875 17.515625 -19.4375 C 16.867188 -20.414062 16.109375 -20.90625 15.234375 -20.90625 C 14.140625 -20.90625 13.15625 -20.320312 12.28125 -19.15625 C 11.90625 -18.664062 11.585938 -18.085938 11.328125 -17.421875 L 11.328125 -1.3125 L 13.9375 -0.65625 L 13.9375 0 L 1.734375 0 Z M 1.734375 -0.65625 "/></g></g></g><g fill="#000000" fill-opacity="1"><g transform="translate(215.906857, 141.374991)"><g><path d="M 11.96875 9.359375 C 9.382812 9.359375 7.28125 9.125 5.65625 8.65625 C 4.03125 8.195312 2.863281 7.601562 2.15625 6.875 C 1.445312 6.15625 1.09375 5.390625 1.09375 4.578125 C 1.09375 3.585938 1.390625 2.796875 1.984375 2.203125 C 2.578125 1.609375 3.367188 1.3125 4.359375 1.3125 C 4.585938 1.3125 5.007812 1.351562 5.625 1.4375 L 6.09375 1.53125 L 6.09375 7.625 C 6.445312 7.738281 7 7.882812 7.75 8.0625 C 9.082031 8.34375 10.347656 8.484375 11.546875 8.484375 C 15.085938 8.484375 17.675781 7.984375 19.3125 6.984375 C 20.957031 5.984375 21.78125 4.742188 21.78125 3.265625 C 21.78125 1.378906 20.035156 0.4375 16.546875 0.4375 L 8.28125 0.4375 C 6.101562 0.4375 4.429688 -0.0078125 3.265625 -0.90625 C 2.109375 -1.8125 1.53125 -2.960938 1.53125 -4.359375 C 1.53125 -5.742188 2.210938 -6.976562 3.578125 -8.0625 C 4.117188 -8.46875 4.8125 -8.828125 5.65625 -9.140625 C 4.582031 -9.804688 3.804688 -10.597656 3.328125 -11.515625 C 2.847656 -12.429688 2.609375 -13.53125 2.609375 -14.8125 C 2.609375 -16.957031 3.421875 -18.6875 5.046875 -20 C 6.671875 -21.320312 9.050781 -21.984375 12.1875 -21.984375 C 13.550781 -21.984375 14.804688 -21.84375 15.953125 -21.5625 C 17.109375 -21.289062 18.03125 -20.925781 18.71875 -20.46875 C 18.957031 -20.957031 19.265625 -21.394531 19.640625 -21.78125 C 20.515625 -22.644531 21.585938 -23.078125 22.859375 -23.078125 C 23.847656 -23.078125 24.675781 -22.734375 25.34375 -22.046875 C 26.007812 -21.367188 26.34375 -20.476562 26.34375 -19.375 C 26.34375 -18.53125 26.117188 -17.847656 25.671875 -17.328125 C 25.222656 -16.804688 24.648438 -16.546875 23.953125 -16.546875 C 23.628906 -16.546875 23.265625 -16.578125 22.859375 -16.640625 L 22.421875 -16.765625 L 22.421875 -21.984375 C 21.671875 -21.984375 20.960938 -21.625 20.296875 -20.90625 C 20.035156 -20.644531 19.800781 -20.28125 19.59375 -19.8125 C 21.050781 -18.53125 21.78125 -16.863281 21.78125 -14.8125 C 21.78125 -12.65625 20.960938 -10.914062 19.328125 -9.59375 C 17.703125 -8.28125 15.320312 -7.625 12.1875 -7.625 C 10.101562 -7.625 8.21875 -7.984375 6.53125 -8.703125 L 5.65625 -8.28125 C 5.363281 -8.101562 5.144531 -7.929688 5 -7.765625 C 4.863281 -7.609375 4.796875 -7.414062 4.796875 -7.1875 C 4.796875 -6.6875 5.046875 -6.304688 5.546875 -6.046875 C 6.054688 -5.785156 6.96875 -5.65625 8.28125 -5.65625 L 16.546875 -5.65625 C 18.722656 -5.65625 20.425781 -5.023438 21.65625 -3.765625 C 22.894531 -2.503906 23.515625 -0.738281 23.515625 1.53125 C 23.515625 3.851562 22.546875 5.738281 20.609375 7.1875 C 18.679688 8.632812 15.800781 9.359375 11.96875 9.359375 Z M 12.1875 -8.484375 C 13.144531 -8.484375 13.890625 -8.945312 14.421875 -9.875 C 14.960938 -10.8125 15.234375 -12.457031 15.234375 -14.8125 C 15.234375 -17.15625 14.960938 -18.789062 14.421875 -19.71875 C 13.890625 -20.65625 13.144531 -21.125 12.1875 -21.125 C 11.226562 -21.125 10.476562 -20.65625 9.9375 -19.71875 C 9.40625 -18.789062 9.140625 -17.15625 9.140625 -14.8125 C 9.140625 -12.457031 9.40625 -10.8125 9.9375 -9.875 C 10.476562 -8.945312 11.226562 -8.484375 12.1875 -8.484375 Z M 12.1875 -8.484375 "/></g></g></g><g fill="#000000" fill-opacity="1"><g transform="translate(116.724445, 202.124987)"><g><path d="M 2.171875 0 L 2.171875 -0.65625 L 4.796875 -1.3125 L 4.796875 -29.171875 L 2.171875 -29.828125 L 2.171875 -30.484375 L 14.59375 -30.484375 L 14.59375 -29.828125 L 11.96875 -29.171875 L 11.96875 -15.671875 L 21.34375 -15.671875 L 21.34375 -29.171875 L 18.71875 -29.828125 L 18.71875 -30.484375 L 31.140625 -30.484375 L 31.140625 -29.828125 L 28.515625 -29.171875 L 28.515625 -1.3125 L 31.140625 -0.65625 L 31.140625 0 L 18.71875 0 L 18.71875 -0.65625 L 21.34375 -1.3125 L 21.34375 -14.59375 L 11.96875 -14.59375 L 11.96875 -1.3125 L 14.59375 -0.65625 L 14.59375 0 Z M 2.171875 0 "/></g></g></g><g fill="#000000" fill-opacity="1"><g transform="translate(150.037828, 202.124987)"><g><path d="M 13.28125 0.65625 C 9.675781 0.65625 6.847656 -0.363281 4.796875 -2.40625 C 2.753906 -4.457031 1.734375 -7.285156 1.734375 -10.890625 C 1.734375 -14.484375 2.753906 -17.300781 4.796875 -19.34375 C 6.847656 -21.394531 9.675781 -22.421875 13.28125 -22.421875 C 16.882812 -22.421875 19.707031 -21.394531 21.75 -19.34375 C 23.800781 -17.300781 24.828125 -14.484375 24.828125 -10.890625 C 24.828125 -7.285156 23.800781 -4.457031 21.75 -2.40625 C 19.707031 -0.363281 16.882812 0.65625 13.28125 0.65625 Z M 13.28125 -0.21875 C 14.445312 -0.21875 15.425781 -1.03125 16.21875 -2.65625 C 17.019531 -4.28125 17.421875 -7.023438 17.421875 -10.890625 C 17.421875 -14.742188 17.019531 -17.484375 16.21875 -19.109375 C 15.425781 -20.742188 14.445312 -21.5625 13.28125 -21.5625 C 12.125 -21.5625 11.144531 -20.742188 10.34375 -19.109375 C 9.539062 -17.484375 9.140625 -14.742188 9.140625 -10.890625 C 9.140625 -7.023438 9.539062 -4.28125 10.34375 -2.65625 C 11.144531 -1.03125 12.125 -0.21875 13.28125 -0.21875 Z M 13.28125 -0.21875 "/></g></g></g><g fill="#000000" fill-opacity="1"><g transform="translate(176.60144, 202.124987)"><g><path d="M 10.234375 0.65625 C 7.648438 0.65625 5.660156 0.101562 4.265625 -1 C 2.867188 -2.101562 2.171875 -3.507812 2.171875 -5.21875 C 2.171875 -6.351562 2.421875 -7.472656 2.921875 -8.578125 C 3.117188 -9.097656 3.378906 -9.578125 3.703125 -10.015625 C 4.890625 -10.304688 6.179688 -10.566406 7.578125 -10.796875 C 10.710938 -11.316406 13.484375 -11.632812 15.890625 -11.75 L 15.890625 -13.0625 C 15.890625 -16.28125 15.5 -18.5 14.71875 -19.71875 C 13.9375 -20.945312 12.734375 -21.5625 11.109375 -21.5625 C 10.492188 -21.5625 9.96875 -21.488281 9.53125 -21.34375 L 8.921875 -21.125 L 8.921875 -14.59375 L 8.359375 -14.453125 C 7.898438 -14.398438 7.507812 -14.375 7.1875 -14.375 C 6.195312 -14.375 5.40625 -14.671875 4.8125 -15.265625 C 4.21875 -15.859375 3.921875 -16.648438 3.921875 -17.640625 C 3.921875 -18.972656 4.59375 -20.101562 5.9375 -21.03125 C 7.289062 -21.957031 9.300781 -22.421875 11.96875 -22.421875 C 14.238281 -22.421875 16.191406 -22.019531 17.828125 -21.21875 C 19.472656 -20.425781 20.722656 -19.328125 21.578125 -17.921875 C 22.429688 -16.515625 22.859375 -14.894531 22.859375 -13.0625 L 22.859375 -1.3125 L 25.46875 -0.65625 L 25.46875 0 L 21.5625 0 C 19.8125 0 18.457031 -0.535156 17.5 -1.609375 C 17.09375 -2.046875 16.773438 -2.597656 16.546875 -3.265625 C 16.140625 -2.535156 15.660156 -1.882812 15.109375 -1.3125 C 13.804688 0 12.179688 0.65625 10.234375 0.65625 Z M 11.96875 -0.875 C 13.050781 -0.875 14.023438 -1.453125 14.890625 -2.609375 C 15.210938 -3.046875 15.546875 -3.628906 15.890625 -4.359375 L 15.890625 -10.671875 C 14.554688 -10.671875 13.28125 -10.597656 12.0625 -10.453125 C 11.164062 -10.335938 10.554688 -10.265625 10.234375 -10.234375 C 10.085938 -9.910156 9.941406 -9.472656 9.796875 -8.921875 C 9.503906 -7.816406 9.359375 -6.726562 9.359375 -5.65625 C 9.359375 -4.03125 9.601562 -2.828125 10.09375 -2.046875 C 10.59375 -1.265625 11.21875 -0.875 11.96875 -0.875 Z M 12.71875 -23.953125 L 6.84375 -30.484375 L 12.5 -30.484375 L 14.234375 -23.953125 Z M 12.71875 -23.953125 "/></g></g></g><g fill="#000000" fill-opacity="1"><g transform="translate(202.947317, 202.124987)"><g><path d="M 1.734375 -0.65625 L 4.359375 -1.3125 L 4.359375 -20.46875 L 1.734375 -21.125 L 1.734375 -21.78125 L 5.65625 -21.78125 C 7.375 -21.78125 8.726562 -21.226562 9.71875 -20.125 C 10.09375 -19.6875 10.410156 -19.144531 10.671875 -18.5 C 11.078125 -19.257812 11.554688 -19.914062 12.109375 -20.46875 C 13.410156 -21.769531 15.035156 -22.421875 16.984375 -22.421875 C 18.609375 -22.421875 20.066406 -22.078125 21.359375 -21.390625 C 22.648438 -20.710938 23.65625 -19.820312 24.375 -18.71875 C 25.101562 -17.625 25.46875 -16.460938 25.46875 -15.234375 L 25.46875 -1.3125 L 28.09375 -0.65625 L 28.09375 0 L 22.421875 0 C 19.804688 0 18.5 -1.304688 18.5 -3.921875 L 18.5 -15.234375 C 18.5 -17.066406 18.171875 -18.46875 17.515625 -19.4375 C 16.867188 -20.414062 16.109375 -20.90625 15.234375 -20.90625 C 14.140625 -20.90625 13.15625 -20.320312 12.28125 -19.15625 C 11.90625 -18.664062 11.585938 -18.085938 11.328125 -17.421875 L 11.328125 -1.3125 L 13.9375 -0.65625 L 13.9375 0 L 1.734375 0 Z M 1.734375 -0.65625 "/></g></g></g><g fill="#000000" fill-opacity="1"><g transform="translate(231.906017, 202.124987)"><g><path d="M 11.96875 9.359375 C 9.382812 9.359375 7.28125 9.125 5.65625 8.65625 C 4.03125 8.195312 2.863281 7.601562 2.15625 6.875 C 1.445312 6.15625 1.09375 5.390625 1.09375 4.578125 C 1.09375 3.585938 1.390625 2.796875 1.984375 2.203125 C 2.578125 1.609375 3.367188 1.3125 4.359375 1.3125 C 4.585938 1.3125 5.007812 1.351562 5.625 1.4375 L 6.09375 1.53125 L 6.09375 7.625 C 6.445312 7.738281 7 7.882812 7.75 8.0625 C 9.082031 8.34375 10.347656 8.484375 11.546875 8.484375 C 15.085938 8.484375 17.675781 7.984375 19.3125 6.984375 C 20.957031 5.984375 21.78125 4.742188 21.78125 3.265625 C 21.78125 1.378906 20.035156 0.4375 16.546875 0.4375 L 8.28125 0.4375 C 6.101562 0.4375 4.429688 -0.0078125 3.265625 -0.90625 C 2.109375 -1.8125 1.53125 -2.960938 1.53125 -4.359375 C 1.53125 -5.742188 2.210938 -6.976562 3.578125 -8.0625 C 4.117188 -8.46875 4.8125 -8.828125 5.65625 -9.140625 C 4.582031 -9.804688 3.804688 -10.597656 3.328125 -11.515625 C 2.847656 -12.429688 2.609375 -13.53125 2.609375 -14.8125 C 2.609375 -16.957031 3.421875 -18.6875 5.046875 -20 C 6.671875 -21.320312 9.050781 -21.984375 12.1875 -21.984375 C 13.550781 -21.984375 14.804688 -21.84375 15.953125 -21.5625 C 17.109375 -21.289062 18.03125 -20.925781 18.71875 -20.46875 C 18.957031 -20.957031 19.265625 -21.394531 19.640625 -21.78125 C 20.515625 -22.644531 21.585938 -23.078125 22.859375 -23.078125 C 23.847656 -23.078125 24.675781 -22.734375 25.34375 -22.046875 C 26.007812 -21.367188 26.34375 -20.476562 26.34375 -19.375 C 26.34375 -18.53125 26.117188 -17.847656 25.671875 -17.328125 C 25.222656 -16.804688 24.648438 -16.546875 23.953125 -16.546875 C 23.628906 -16.546875 23.265625 -16.578125 22.859375 -16.640625 L 22.421875 -16.765625 L 22.421875 -21.984375 C 21.671875 -21.984375 20.960938 -21.625 20.296875 -20.90625 C 20.035156 -20.644531 19.800781 -20.28125 19.59375 -19.8125 C 21.050781 -18.53125 21.78125 -16.863281 21.78125 -14.8125 C 21.78125 -12.65625 20.960938 -10.914062 19.328125 -9.59375 C 17.703125 -8.28125 15.320312 -7.625 12.1875 -7.625 C 10.101562 -7.625 8.21875 -7.984375 6.53125 -8.703125 L 5.65625 -8.28125 C 5.363281 -8.101562 5.144531 -7.929688 5 -7.765625 C 4.863281 -7.609375 4.796875 -7.414062 4.796875 -7.1875 C 4.796875 -6.6875 5.046875 -6.304688 5.546875 -6.046875 C 6.054688 -5.785156 6.96875 -5.65625 8.28125 -5.65625 L 16.546875 -5.65625 C 18.722656 -5.65625 20.425781 -5.023438 21.65625 -3.765625 C 22.894531 -2.503906 23.515625 -0.738281 23.515625 1.53125 C 23.515625 3.851562 22.546875 5.738281 20.609375 7.1875 C 18.679688 8.632812 15.800781 9.359375 11.96875 9.359375 Z M 12.1875 -8.484375 C 13.144531 -8.484375 13.890625 -8.945312 14.421875 -9.875 C 14.960938 -10.8125 15.234375 -12.457031 15.234375 -14.8125 C 15.234375 -17.15625 14.960938 -18.789062 14.421875 -19.71875 C 13.890625 -20.65625 13.144531 -21.125 12.1875 -21.125 C 11.226562 -21.125 10.476562 -20.65625 9.9375 -19.71875 C 9.40625 -18.789062 9.140625 -17.15625 9.140625 -14.8125 C 9.140625 -12.457031 9.40625 -10.8125 9.9375 -9.875 C 10.476562 -8.945312 11.226562 -8.484375 12.1875 -8.484375 Z M 12.1875 -8.484375 "/></g></g></g><g fill="#000000" fill-opacity="1"><g transform="translate(129.685382, 262.874983)"><g><path d="M 6.09375 -25.046875 L 6.09375 -1.953125 L 9.578125 -0.65625 L 9.578125 0 L 1.3125 0 L 1.3125 -0.65625 L 4.796875 -1.953125 L 4.796875 -29.171875 L 2.171875 -29.828125 L 2.171875 -30.484375 L 7.625 -30.484375 C 9.132812 -30.484375 10.332031 -30.171875 11.21875 -29.546875 C 12.101562 -28.921875 12.863281 -28 13.5 -26.78125 L 23 -8.625 L 30.265625 -26.78125 C 30.753906 -28.0625 31.421875 -29 32.265625 -29.59375 C 33.109375 -30.1875 34.398438 -30.484375 36.140625 -30.484375 L 40.71875 -30.484375 L 40.71875 -29.828125 L 38.109375 -29.171875 L 38.109375 -1.3125 L 40.71875 -0.65625 L 40.71875 0 L 28.3125 0 L 28.3125 -0.65625 L 30.921875 -1.3125 L 30.921875 -25.046875 L 20.6875 0.4375 L 19.375 0.4375 Z M 6.09375 -25.046875 "/></g></g></g><g fill="#000000" fill-opacity="1"><g transform="translate(172.579094, 262.874983)"><g><path d="M 1.734375 -0.65625 L 4.359375 -1.3125 L 4.359375 -20.46875 L 1.734375 -21.125 L 1.734375 -21.78125 L 7.40625 -21.78125 C 10.019531 -21.78125 11.328125 -20.472656 11.328125 -17.859375 L 11.328125 -1.3125 L 13.9375 -0.65625 L 13.9375 0 L 1.734375 0 Z M 7.40625 -24.390625 C 6.539062 -24.390625 5.816406 -24.675781 5.234375 -25.25 C 4.648438 -25.832031 4.359375 -26.5625 4.359375 -27.4375 C 4.359375 -28.300781 4.648438 -29.023438 5.234375 -29.609375 C 5.816406 -30.191406 6.539062 -30.484375 7.40625 -30.484375 C 8.28125 -30.484375 9.003906 -30.191406 9.578125 -29.609375 C 10.160156 -29.023438 10.453125 -28.300781 10.453125 -27.4375 C 10.453125 -26.5625 10.160156 -25.832031 9.578125 -25.25 C 9.003906 -24.675781 8.28125 -24.390625 7.40625 -24.390625 Z M 7.40625 -24.390625 "/></g></g></g><g fill="#000000" fill-opacity="1"><g transform="translate(187.385047, 262.874983)"><g><path d="M 1.734375 -0.65625 L 4.359375 -1.3125 L 4.359375 -20.46875 L 1.734375 -21.125 L 1.734375 -21.78125 L 5.65625 -21.78125 C 7.375 -21.78125 8.726562 -21.226562 9.71875 -20.125 C 10.09375 -19.6875 10.410156 -19.144531 10.671875 -18.5 C 11.078125 -19.257812 11.554688 -19.914062 12.109375 -20.46875 C 13.410156 -21.769531 15.035156 -22.421875 16.984375 -22.421875 C 18.609375 -22.421875 20.066406 -22.078125 21.359375 -21.390625 C 22.648438 -20.710938 23.65625 -19.820312 24.375 -18.71875 C 25.101562 -17.625 25.46875 -16.460938 25.46875 -15.234375 L 25.46875 -1.3125 L 28.09375 -0.65625 L 28.09375 0 L 22.421875 0 C 19.804688 0 18.5 -1.304688 18.5 -3.921875 L 18.5 -15.234375 C 18.5 -17.066406 18.171875 -18.46875 17.515625 -19.4375 C 16.867188 -20.414062 16.109375 -20.90625 15.234375 -20.90625 C 14.140625 -20.90625 13.15625 -20.320312 12.28125 -19.15625 C 11.90625 -18.664062 11.585938 -18.085938 11.328125 -17.421875 L 11.328125 -1.3125 L 13.9375 -0.65625 L 13.9375 0 L 1.734375 0 Z M 1.734375 -0.65625 "/></g></g></g><g fill="#000000" fill-opacity="1"><g transform="translate(216.343747, 262.874983)"><g><path d="M 1.734375 -0.65625 L 4.359375 -1.3125 L 4.359375 -29.171875 L 1.734375 -29.828125 L 1.734375 -30.484375 L 7.40625 -30.484375 C 10.019531 -30.484375 11.328125 -29.175781 11.328125 -26.5625 L 11.328125 -19.59375 C 11.753906 -20.175781 12.203125 -20.640625 12.671875 -20.984375 C 13.921875 -21.941406 15.359375 -22.421875 16.984375 -22.421875 C 18.609375 -22.421875 20.066406 -22.078125 21.359375 -21.390625 C 22.648438 -20.710938 23.65625 -19.820312 24.375 -18.71875 C 25.101562 -17.625 25.46875 -16.460938 25.46875 -15.234375 L 25.46875 -1.3125 L 28.09375 -0.65625 L 28.09375 0 L 22.421875 0 C 19.804688 0 18.5 -1.304688 18.5 -3.921875 L 18.5 -15.234375 C 18.5 -17.066406 18.171875 -18.46875 17.515625 -19.4375 C 16.867188 -20.414062 16.109375 -20.90625 15.234375 -20.90625 C 14.140625 -20.90625 13.15625 -20.320312 12.28125 -19.15625 C 11.90625 -18.664062 11.585938 -18.085938 11.328125 -17.421875 L 11.328125 -1.3125 L 13.9375 -0.65625 L 13.9375 0 L 1.734375 0 Z M 1.734375 -0.65625 "/></g></g></g></svg>