<svg xmlns="http://www.w3.org/2000/svg" xmlns:xlink="http://www.w3.org/1999/xlink" width="500" zoomAndPan="magnify" viewBox="0 0 375 374.999991" height="500" preserveAspectRatio="xMidYMid meet" version="1.0"><defs><g/><clipPath id="83d032ea3c"><path d="M 100 62.945312 L 275 62.945312 L 275 307 L 100 307 Z M 100 62.945312 " clip-rule="nonzero"/></clipPath></defs><g clip-path="url(#83d032ea3c)"><path fill="#000000" d="M 234.875 221.003906 C 245.230469 225.089844 256.332031 235.460938 264.496094 249.722656 C 277.640625 272.757812 277.941406 297.386719 265.195312 304.667969 C 252.449219 311.945312 231.488281 299.132812 218.34375 276.046875 C 211.773438 264.53125 208.4375 252.613281 208.285156 242.640625 L 196.289062 221.003906 Z M 178.414062 221.003906 L 166.363281 242.640625 C 166.214844 252.613281 162.878906 264.53125 156.308594 276.046875 C 143.164062 299.082031 122.203125 311.945312 109.457031 304.667969 C 96.710938 297.386719 97.0625 272.757812 110.15625 249.722656 C 118.320312 235.460938 129.472656 225.089844 139.828125 221.003906 Z M 225.214844 227.734375 C 223.472656 227.933594 221.828125 228.429688 220.335938 229.277344 C 210.625 234.8125 210.425781 252.761719 219.886719 269.316406 C 229.296875 285.871094 244.832031 294.84375 254.539062 289.308594 C 264.199219 283.824219 264.445312 265.875 254.988281 249.324219 C 249.261719 239.25 241.296875 232.019531 233.726562 229.078125 Z M 149.4375 227.734375 C 151.179688 227.933594 152.824219 228.429688 154.316406 229.277344 C 164.023438 234.8125 164.222656 252.761719 154.765625 269.316406 C 145.355469 285.871094 129.820312 294.84375 120.113281 289.308594 C 110.453125 283.824219 110.253906 265.875 119.714844 249.324219 C 125.441406 239.25 133.40625 232.019531 140.972656 229.078125 Z M 173.386719 148.65625 L 156.058594 148.65625 L 108.414062 62.945312 Z M 218.640625 148.65625 L 201.316406 148.65625 L 266.289062 62.945312 Z M 218.640625 148.65625 " fill-opacity="1" fill-rule="evenodd"/></g><g fill="#2e2a27" fill-opacity="1"><g transform="translate(124.721678, 188.695504)"><g><path d="M 17.84375 -18.515625 C 17.84375 -18.992188 17.671875 -19.410156 17.328125 -19.765625 C 16.984375 -20.117188 16.582031 -20.304688 16.125 -20.328125 L 10.359375 -20.328125 L 10.359375 -2.1875 C 10.378906 -1.65625 10.578125 -1.207031 10.953125 -0.84375 C 11.328125 -0.476562 11.773438 -0.296875 12.296875 -0.296875 L 12.6875 -0.296875 L 12.6875 0 L 6.0625 0 L 6.0625 -0.296875 L 6.453125 -0.296875 C 6.972656 -0.296875 7.421875 -0.476562 7.796875 -0.84375 C 8.171875 -1.207031 8.367188 -1.644531 8.390625 -2.15625 L 8.390625 -20.328125 L 2.640625 -20.328125 C 2.148438 -20.304688 1.738281 -20.117188 1.40625 -19.765625 C 1.070312 -19.410156 0.90625 -18.992188 0.90625 -18.515625 L 0.90625 -18 L 0.609375 -17.96875 L 0.609375 -21.78125 C 0.910156 -21.664062 1.429688 -21.546875 2.171875 -21.421875 C 2.921875 -21.296875 3.609375 -21.234375 4.234375 -21.234375 L 14.484375 -21.234375 C 15.472656 -21.234375 16.296875 -21.304688 16.953125 -21.453125 C 17.609375 -21.609375 18.003906 -21.71875 18.140625 -21.78125 L 18.140625 -17.96875 L 17.84375 -18 Z M 17.84375 -18.515625 "/></g></g></g><g fill="#2e2a27" fill-opacity="1"><g transform="translate(146.473313, 188.695504)"><g><path d="M 1.03125 -8.84375 L 1.21875 -9.515625 L 10.296875 -9.515625 L 10.484375 -8.84375 L 10.296875 -8.15625 L 1.21875 -8.15625 Z M 1.03125 -8.84375 "/></g></g></g><g fill="#2e2a27" fill-opacity="1"><g transform="translate(161.015206, 188.695504)"><g><path d="M 12.640625 0.421875 C 9.441406 0.398438 6.835938 -0.617188 4.828125 -2.640625 C 2.816406 -4.660156 1.8125 -7.320312 1.8125 -10.625 C 1.8125 -13.925781 2.816406 -16.582031 4.828125 -18.59375 C 6.835938 -20.613281 9.5 -21.625 12.8125 -21.625 C 15.519531 -21.625 17.914062 -20.941406 20 -19.578125 L 20.609375 -15.296875 L 20.328125 -15.296875 C 19.878906 -17.035156 18.976562 -18.375 17.625 -19.3125 C 16.28125 -20.25 14.675781 -20.71875 12.8125 -20.71875 C 10.164062 -20.71875 8.050781 -19.796875 6.46875 -17.953125 C 4.882812 -16.117188 4.09375 -13.6875 4.09375 -10.65625 C 4.09375 -7.632812 4.875 -5.195312 6.4375 -3.34375 C 8 -1.5 10.066406 -0.546875 12.640625 -0.484375 C 14.898438 -0.484375 16.785156 -1.097656 18.296875 -2.328125 C 19.929688 -3.660156 20.921875 -5.832031 21.265625 -8.84375 L 21.515625 -8.84375 L 21.140625 -4.09375 C 19.304688 -1.082031 16.472656 0.421875 12.640625 0.421875 Z M 12.640625 0.421875 "/></g></g></g><g fill="#2e2a27" fill-opacity="1"><g transform="translate(187.068457, 188.695504)"><g><path d="M 20.140625 -17.875 L 19.6875 -17.875 C 19.144531 -17.875 18.734375 -17.660156 18.453125 -17.234375 C 18.328125 -17.054688 18.253906 -16.847656 18.234375 -16.609375 L 18.234375 -6.390625 C 18.234375 -4.285156 17.5625 -2.625 16.21875 -1.40625 C 14.875 -0.1875 13.03125 0.421875 10.6875 0.421875 C 8.351562 0.421875 6.507812 -0.179688 5.15625 -1.390625 C 3.800781 -2.609375 3.125 -4.265625 3.125 -6.359375 L 3.125 -16.578125 C 3.125 -16.941406 2.976562 -17.25 2.6875 -17.5 C 2.40625 -17.75 2.066406 -17.875 1.671875 -17.875 L 1.21875 -17.875 L 1.21875 -18.171875 L 6.96875 -18.171875 L 6.96875 -17.875 L 6.515625 -17.875 C 6.109375 -17.875 5.765625 -17.75 5.484375 -17.5 C 5.203125 -17.25 5.0625 -16.941406 5.0625 -16.578125 L 5.0625 -6.71875 C 5.0625 -4.757812 5.5625 -3.210938 6.5625 -2.078125 C 7.5625 -0.953125 8.972656 -0.390625 10.796875 -0.390625 C 12.628906 -0.390625 14.09375 -0.925781 15.1875 -2 C 16.289062 -3.070312 16.84375 -4.535156 16.84375 -6.390625 L 16.84375 -16.578125 C 16.820312 -16.953125 16.675781 -17.257812 16.40625 -17.5 C 16.132812 -17.75 15.796875 -17.875 15.390625 -17.875 L 14.9375 -17.875 L 14.9375 -18.171875 L 20.140625 -18.171875 Z M 20.140625 -17.875 "/></g></g></g><g fill="#2e2a27" fill-opacity="1"><g transform="translate(211.304124, 188.695504)"><g><path d="M 9.75 -17.296875 L 9.75 -1.90625 C 9.769531 -1.28125 10.078125 -0.816406 10.671875 -0.515625 C 10.929688 -0.367188 11.222656 -0.296875 11.546875 -0.296875 L 11.875 -0.296875 L 11.875 0 L 5.640625 0 L 5.640625 -0.296875 L 6 -0.296875 C 6.476562 -0.296875 6.890625 -0.457031 7.234375 -0.78125 C 7.578125 -1.101562 7.757812 -1.488281 7.78125 -1.9375 L 7.78125 -17.296875 L 2.296875 -17.296875 C 1.835938 -17.296875 1.46875 -17.144531 1.1875 -16.84375 C 0.914062 -16.539062 0.78125 -16.175781 0.78125 -15.75 L 0.78125 -15.265625 L 0.453125 -15.265625 L 0.453125 -18.6875 C 0.859375 -18.53125 1.425781 -18.410156 2.15625 -18.328125 C 2.894531 -18.242188 3.445312 -18.203125 3.8125 -18.203125 L 13.6875 -18.203125 C 15.144531 -18.203125 16.28125 -18.363281 17.09375 -18.6875 L 17.09375 -15.265625 L 16.75 -15.265625 L 16.75 -15.75 C 16.75 -16.175781 16.609375 -16.539062 16.328125 -16.84375 C 16.046875 -17.144531 15.679688 -17.296875 15.234375 -17.296875 Z M 9.75 -17.296875 "/></g></g></g><g fill="#2e2a27" fill-opacity="1"><g transform="translate(231.844036, 188.695504)"><g><path d="M 2.296875 -15.75 L 2.296875 -15.265625 L 1.96875 -15.265625 L 1.96875 -18.6875 C 2.226562 -18.570312 2.707031 -18.46875 3.40625 -18.375 C 4.101562 -18.28125 4.753906 -18.222656 5.359375 -18.203125 L 12.328125 -18.203125 C 12.953125 -18.203125 13.628906 -18.242188 14.359375 -18.328125 C 15.085938 -18.410156 15.550781 -18.503906 15.75 -18.609375 L 15.75 -18.328125 L 4.234375 -0.90625 L 12.546875 -0.90625 C 13.472656 -0.925781 14.257812 -1.09375 14.90625 -1.40625 C 15.550781 -1.71875 16.039062 -2.097656 16.375 -2.546875 C 16.707031 -2.992188 17.035156 -3.585938 17.359375 -4.328125 L 17.65625 -4.328125 L 16.03125 0 L 1.515625 0 L 1.515625 -0.265625 L 12.8125 -17.296875 L 3.78125 -17.296875 C 3.175781 -17.273438 2.742188 -17.015625 2.484375 -16.515625 C 2.359375 -16.265625 2.296875 -16.007812 2.296875 -15.75 Z M 2.296875 -15.75 "/></g></g></g><g fill="#2e2a27" fill-opacity="1"><g transform="translate(108.819102, 208.469458)"><g><path d="M 0.203125 0 L 3.640625 -8.359375 L 4.625 -8.359375 L 8.0625 0 L 6.953125 0 L 6.171875 -1.90625 L 2.09375 -1.90625 L 1.328125 0 Z M 2.5 -2.875 L 5.765625 -2.875 L 4.140625 -6.890625 Z M 2.5 -2.875 "/></g></g></g><g fill="#2e2a27" fill-opacity="1"><g transform="translate(124.658353, 208.469458)"><g><path d="M 4 0.15625 C 3.332031 0.15625 2.753906 0.0390625 2.265625 -0.1875 C 1.773438 -0.414062 1.394531 -0.734375 1.125 -1.140625 C 0.863281 -1.546875 0.726562 -2.019531 0.71875 -2.5625 L 1.765625 -2.5625 C 1.785156 -2.03125 2 -1.609375 2.40625 -1.296875 C 2.820312 -0.992188 3.351562 -0.84375 4 -0.84375 C 4.59375 -0.84375 5.0625 -0.957031 5.40625 -1.1875 C 5.75 -1.425781 5.921875 -1.75 5.921875 -2.15625 C 5.921875 -2.550781 5.753906 -2.863281 5.421875 -3.09375 C 5.085938 -3.332031 4.546875 -3.539062 3.796875 -3.71875 C 2.765625 -3.96875 2.007812 -4.285156 1.53125 -4.671875 C 1.050781 -5.054688 0.8125 -5.570312 0.8125 -6.21875 C 0.8125 -6.925781 1.078125 -7.484375 1.609375 -7.890625 C 2.148438 -8.304688 2.878906 -8.515625 3.796875 -8.515625 C 4.742188 -8.515625 5.488281 -8.28125 6.03125 -7.8125 C 6.570312 -7.34375 6.847656 -6.703125 6.859375 -5.890625 L 5.828125 -5.890625 C 5.816406 -6.390625 5.628906 -6.785156 5.265625 -7.078125 C 4.898438 -7.367188 4.410156 -7.515625 3.796875 -7.515625 C 3.203125 -7.515625 2.734375 -7.394531 2.390625 -7.15625 C 2.054688 -6.925781 1.890625 -6.613281 1.890625 -6.21875 C 1.890625 -5.875 2.046875 -5.582031 2.359375 -5.34375 C 2.671875 -5.113281 3.234375 -4.898438 4.046875 -4.703125 C 5.117188 -4.429688 5.878906 -4.097656 6.328125 -3.703125 C 6.785156 -3.316406 7.015625 -2.816406 7.015625 -2.203125 C 7.015625 -1.472656 6.738281 -0.894531 6.1875 -0.46875 C 5.644531 -0.0507812 4.914062 0.15625 4 0.15625 Z M 4 0.15625 "/></g></g></g><g fill="#2e2a27" fill-opacity="1"><g transform="translate(139.959709, 208.469458)"><g><path d="M 1.21875 0 L 1.21875 -8.359375 L 2.265625 -8.359375 L 2.265625 0 Z M 1.21875 0 "/></g></g></g><g fill="#2e2a27" fill-opacity="1"><g transform="translate(151.017688, 208.469458)"><g><path d="M 0.203125 0 L 3.640625 -8.359375 L 4.625 -8.359375 L 8.0625 0 L 6.953125 0 L 6.171875 -1.90625 L 2.09375 -1.90625 L 1.328125 0 Z M 2.5 -2.875 L 5.765625 -2.875 L 4.140625 -6.890625 Z M 2.5 -2.875 "/></g></g></g><g fill="#2e2a27" fill-opacity="1"><g transform="translate(166.85694, 208.469458)"><g><path d="M 1.21875 0 L 1.21875 -8.359375 L 2.21875 -8.359375 L 6.84375 -1.8125 L 6.84375 -8.359375 L 7.859375 -8.359375 L 7.859375 0 L 6.890625 0 L 2.265625 -6.546875 L 2.265625 0 Z M 1.21875 0 "/></g></g></g><g fill="#2e2a27" fill-opacity="1"><g transform="translate(183.509008, 208.469458)"><g/></g></g><g fill="#2e2a27" fill-opacity="1"><g transform="translate(194.04105, 208.469458)"><g><path d="M 4 0.15625 C 3.332031 0.15625 2.753906 0.0390625 2.265625 -0.1875 C 1.773438 -0.414062 1.394531 -0.734375 1.125 -1.140625 C 0.863281 -1.546875 0.726562 -2.019531 0.71875 -2.5625 L 1.765625 -2.5625 C 1.785156 -2.03125 2 -1.609375 2.40625 -1.296875 C 2.820312 -0.992188 3.351562 -0.84375 4 -0.84375 C 4.59375 -0.84375 5.0625 -0.957031 5.40625 -1.1875 C 5.75 -1.425781 5.921875 -1.75 5.921875 -2.15625 C 5.921875 -2.550781 5.753906 -2.863281 5.421875 -3.09375 C 5.085938 -3.332031 4.546875 -3.539062 3.796875 -3.71875 C 2.765625 -3.96875 2.007812 -4.285156 1.53125 -4.671875 C 1.050781 -5.054688 0.8125 -5.570312 0.8125 -6.21875 C 0.8125 -6.925781 1.078125 -7.484375 1.609375 -7.890625 C 2.148438 -8.304688 2.878906 -8.515625 3.796875 -8.515625 C 4.742188 -8.515625 5.488281 -8.28125 6.03125 -7.8125 C 6.570312 -7.34375 6.847656 -6.703125 6.859375 -5.890625 L 5.828125 -5.890625 C 5.816406 -6.390625 5.628906 -6.785156 5.265625 -7.078125 C 4.898438 -7.367188 4.410156 -7.515625 3.796875 -7.515625 C 3.203125 -7.515625 2.734375 -7.394531 2.390625 -7.15625 C 2.054688 -6.925781 1.890625 -6.613281 1.890625 -6.21875 C 1.890625 -5.875 2.046875 -5.582031 2.359375 -5.34375 C 2.671875 -5.113281 3.234375 -4.898438 4.046875 -4.703125 C 5.117188 -4.429688 5.878906 -4.097656 6.328125 -3.703125 C 6.785156 -3.316406 7.015625 -2.816406 7.015625 -2.203125 C 7.015625 -1.472656 6.738281 -0.894531 6.1875 -0.46875 C 5.644531 -0.0507812 4.914062 0.15625 4 0.15625 Z M 4 0.15625 "/></g></g></g><g fill="#2e2a27" fill-opacity="1"><g transform="translate(209.342407, 208.469458)"><g><path d="M 0.203125 0 L 3.640625 -8.359375 L 4.625 -8.359375 L 8.0625 0 L 6.953125 0 L 6.171875 -1.90625 L 2.09375 -1.90625 L 1.328125 0 Z M 2.5 -2.875 L 5.765625 -2.875 L 4.140625 -6.890625 Z M 2.5 -2.875 "/></g></g></g><g fill="#2e2a27" fill-opacity="1"><g transform="translate(225.181658, 208.469458)"><g><path d="M 1.21875 0 L 1.21875 -8.359375 L 2.265625 -8.359375 L 2.265625 -1 L 6.328125 -1 L 6.328125 0 Z M 1.21875 0 "/></g></g></g><g fill="#2e2a27" fill-opacity="1"><g transform="translate(239.455049, 208.469458)"><g><path d="M 5.015625 0.15625 C 4.171875 0.15625 3.421875 -0.0234375 2.765625 -0.390625 C 2.117188 -0.765625 1.609375 -1.28125 1.234375 -1.9375 C 0.867188 -2.59375 0.6875 -3.34375 0.6875 -4.1875 C 0.6875 -5.039062 0.867188 -5.789062 1.234375 -6.4375 C 1.609375 -7.082031 2.117188 -7.585938 2.765625 -7.953125 C 3.421875 -8.328125 4.171875 -8.515625 5.015625 -8.515625 C 5.867188 -8.515625 6.617188 -8.328125 7.265625 -7.953125 C 7.921875 -7.585938 8.429688 -7.082031 8.796875 -6.4375 C 9.171875 -5.789062 9.359375 -5.039062 9.359375 -4.1875 C 9.359375 -3.34375 9.171875 -2.59375 8.796875 -1.9375 C 8.429688 -1.28125 7.921875 -0.765625 7.265625 -0.390625 C 6.617188 -0.0234375 5.867188 0.15625 5.015625 0.15625 Z M 1.765625 -4.1875 C 1.765625 -3.539062 1.898438 -2.96875 2.171875 -2.46875 C 2.453125 -1.976562 2.835938 -1.59375 3.328125 -1.3125 C 3.816406 -1.03125 4.378906 -0.890625 5.015625 -0.890625 C 5.660156 -0.890625 6.226562 -1.03125 6.71875 -1.3125 C 7.207031 -1.59375 7.585938 -1.976562 7.859375 -2.46875 C 8.128906 -2.96875 8.265625 -3.539062 8.265625 -4.1875 C 8.265625 -4.832031 8.128906 -5.398438 7.859375 -5.890625 C 7.585938 -6.390625 7.207031 -6.773438 6.71875 -7.046875 C 6.226562 -7.328125 5.660156 -7.46875 5.015625 -7.46875 C 4.378906 -7.46875 3.816406 -7.328125 3.328125 -7.046875 C 2.835938 -6.773438 2.453125 -6.390625 2.171875 -5.890625 C 1.898438 -5.398438 1.765625 -4.832031 1.765625 -4.1875 Z M 1.765625 -4.1875 "/></g></g></g><g fill="#2e2a27" fill-opacity="1"><g transform="translate(257.063374, 208.469458)"><g><path d="M 1.21875 0 L 1.21875 -8.359375 L 2.21875 -8.359375 L 6.84375 -1.8125 L 6.84375 -8.359375 L 7.859375 -8.359375 L 7.859375 0 L 6.890625 0 L 2.265625 -6.546875 L 2.265625 0 Z M 1.21875 0 "/></g></g></g></svg>